<svg width="22" height="39" viewBox="0 0 22 39" fill="none" xmlns="http://www.w3.org/2000/svg">
<path fill-rule="evenodd" clip-rule="evenodd" d="M1 32.9063H6.54892V38.4552H9.32338V32.9063H12.0978V38.4552H14.8723V31.5191C19.4964 28.2822 25.9702 19.034 14.8723 7.93615V1H12.0978V7.93615H9.32338V1H6.54892V7.93615H1V32.9063ZM3.69234 10.6155V30.0388C4.05415 30.0388 4.46206 30.0485 4.90532 30.0591C9.5607 30.1696 18.1156 30.3726 18.1156 20.4233C18.1156 10.5416 11.0672 10.6203 6.28437 10.6737C5.29629 10.6847 4.4049 10.6947 3.69234 10.6155Z" fill="#71BBB0"/>
<path d="M6.54892 32.9063H6.79892C6.79892 32.7682 6.68699 32.6563 6.54892 32.6563V32.9063ZM1 32.9063H0.75C0.75 33.0444 0.861929 33.1563 1 33.1563V32.9063ZM6.54892 38.4552H6.29892C6.29892 38.5933 6.41085 38.7052 6.54892 38.7052V38.4552ZM9.32338 38.4552V38.7052C9.46145 38.7052 9.57338 38.5933 9.57338 38.4552H9.32338ZM9.32338 32.9063V32.6563C9.18531 32.6563 9.07338 32.7682 9.07338 32.9063H9.32338ZM12.0978 32.9063H12.3478C12.3478 32.7682 12.2359 32.6563 12.0978 32.6563V32.9063ZM12.0978 38.4552H11.8478C11.8478 38.5933 11.9598 38.7052 12.0978 38.7052V38.4552ZM14.8723 38.4552V38.7052C15.0104 38.7052 15.1223 38.5933 15.1223 38.4552H14.8723ZM14.8723 31.5191L14.7289 31.3143C14.6621 31.361 14.6223 31.4375 14.6223 31.5191H14.8723ZM14.8723 7.93615H14.6223C14.6223 8.00246 14.6486 8.06605 14.6955 8.11293L14.8723 7.93615ZM14.8723 1H15.1223C15.1223 0.861929 15.0104 0.75 14.8723 0.75V1ZM12.0978 1V0.75C11.9598 0.75 11.8478 0.861929 11.8478 1H12.0978ZM12.0978 7.93615V8.18615C12.2359 8.18615 12.3478 8.07422 12.3478 7.93615H12.0978ZM9.32338 7.93615H9.07338C9.07338 8.07422 9.18531 8.18615 9.32338 8.18615V7.93615ZM9.32338 1H9.57338C9.57338 0.861929 9.46145 0.75 9.32338 0.75V1ZM6.54892 1V0.75C6.41085 0.75 6.29892 0.861929 6.29892 1H6.54892ZM6.54892 7.93615V8.18615C6.68699 8.18615 6.79892 8.07422 6.79892 7.93615H6.54892ZM1 7.93615V7.68615C0.861929 7.68615 0.75 7.79808 0.75 7.93615H1ZM3.69234 30.0388H3.44234C3.44234 30.1769 3.55427 30.2888 3.69234 30.2888V30.0388ZM3.69234 10.6155L3.71995 10.367C3.64928 10.3592 3.5786 10.3818 3.52561 10.4292C3.47263 10.4767 3.44234 10.5444 3.44234 10.6155H3.69234ZM4.90532 30.0591L4.91125 29.8091H4.91125L4.90532 30.0591ZM6.28437 10.6737L6.28158 10.4237L6.28437 10.6737ZM6.54892 32.6563H1V33.1563H6.54892V32.6563ZM6.79892 38.4552V32.9063H6.29892V38.4552H6.79892ZM9.32338 38.2052H6.54892V38.7052H9.32338V38.2052ZM9.07338 32.9063V38.4552H9.57338V32.9063H9.07338ZM12.0978 32.6563H9.32338V33.1563H12.0978V32.6563ZM12.3478 38.4552V32.9063H11.8478V38.4552H12.3478ZM14.8723 38.2052H12.0978V38.7052H14.8723V38.2052ZM14.6223 31.5191V38.4552H15.1223V31.5191H14.6223ZM14.6955 8.11293C20.1984 13.6158 21.3126 18.6214 20.5228 22.6271C19.7293 26.6512 17.0036 29.722 14.7289 31.3143L15.0157 31.7239C17.3651 30.0793 20.1884 26.9075 21.0133 22.7238C21.8419 18.5217 20.644 13.3543 15.0491 7.75938L14.6955 8.11293ZM14.6223 1V7.93615H15.1223V1H14.6223ZM12.0978 1.25H14.8723V0.75H12.0978V1.25ZM12.3478 7.93615V1H11.8478V7.93615H12.3478ZM9.32338 8.18615H12.0978V7.68615H9.32338V8.18615ZM9.07338 1V7.93615H9.57338V1H9.07338ZM6.54892 1.25H9.32338V0.75H6.54892V1.25ZM6.79892 7.93615V1H6.29892V7.93615H6.79892ZM1 8.18615H6.54892V7.68615H1V8.18615ZM1.25 32.9063V7.93615H0.75V32.9063H1.25ZM3.94234 30.0388V10.6155H3.44234V30.0388H3.94234ZM4.91125 29.8091C4.46881 29.7986 4.05771 29.7888 3.69234 29.7888V30.2888C4.05059 30.2888 4.45531 30.2984 4.89938 30.309L4.91125 29.8091ZM17.8656 20.4233C17.8656 22.8747 17.3389 24.6783 16.4951 26.0079C15.6519 27.3364 14.4801 28.2107 13.1568 28.7842C10.4951 29.9378 7.2495 29.8646 4.91125 29.8091L4.89938 30.309C7.21652 30.364 10.576 30.4476 13.3556 29.243C14.753 28.6374 16.0109 27.7039 16.9172 26.2758C17.823 24.8487 18.3656 22.9466 18.3656 20.4233H17.8656ZM6.28716 10.9237C8.69258 10.8968 11.5844 10.8697 13.8796 12.0453C15.0181 12.6286 16.0094 13.5086 16.7189 14.8411C17.4301 16.1768 17.8656 17.9815 17.8656 20.4233H18.3656C18.3656 17.9243 17.9201 16.0332 17.1602 14.6061C16.3987 13.1758 15.3289 12.226 14.1075 11.6003C11.6827 10.3582 8.65894 10.3972 6.28158 10.4237L6.28716 10.9237ZM3.66474 10.864C4.3958 10.9452 5.30444 10.9347 6.28716 10.9237L6.28158 10.4237C5.28814 10.4348 4.41401 10.4442 3.71995 10.367L3.66474 10.864Z" fill="#71BBB0"/>
</svg>
