<svg width="30" height="30" viewBox="0 0 30 30" fill="none" xmlns="http://www.w3.org/2000/svg">
<path d="M8.9375 26.375C8.625 26.0625 8.46875 25.6925 8.46875 25.265C8.46875 24.8375 8.625 24.4679 8.9375 24.1562L18.0938 15L8.90625 5.8125C8.61458 5.52083 8.46875 5.15625 8.46875 4.71875C8.46875 4.28125 8.625 3.90625 8.9375 3.59375C9.25 3.28125 9.62 3.125 10.0475 3.125C10.475 3.125 10.8446 3.28125 11.1562 3.59375L21.6563 14.125C21.7813 14.25 21.87 14.3854 21.9225 14.5312C21.975 14.6771 22.0008 14.8333 22 15C22 15.1667 21.9738 15.3229 21.9213 15.4688C21.8688 15.6146 21.7804 15.75 21.6563 15.875L11.125 26.4062C10.8333 26.6979 10.4737 26.8438 10.0462 26.8438C9.61875 26.8438 9.24917 26.6875 8.9375 26.375Z" fill="#0DE8D4"/>
</svg>
