<svg width="20" height="20" viewBox="0 0 20 20" fill="none" xmlns="http://www.w3.org/2000/svg">
<path d="M5.95801 17.5834C5.74967 17.375 5.64551 17.1284 5.64551 16.8434C5.64551 16.5584 5.74967 16.312 5.95801 16.1042L12.0622 10L5.93717 3.87504C5.74273 3.6806 5.64551 3.43754 5.64551 3.14587C5.64551 2.85421 5.74967 2.60421 5.95801 2.39587C6.16634 2.18754 6.41301 2.08337 6.69801 2.08337C6.98301 2.08337 7.2294 2.18754 7.43717 2.39587L14.4372 9.41671C14.5205 9.50004 14.5797 9.59032 14.6147 9.68754C14.6497 9.78476 14.6669 9.88893 14.6663 10C14.6663 10.1112 14.6488 10.2153 14.6138 10.3125C14.5788 10.4098 14.52 10.5 14.4372 10.5834L7.41634 17.6042C7.2219 17.7987 6.98217 17.8959 6.69717 17.8959C6.41217 17.8959 6.16579 17.7917 5.95801 17.5834Z" fill="white"/>
</svg>
