<svg width="207" height="196" viewBox="0 0 207 196" fill="none" xmlns="http://www.w3.org/2000/svg">
<g filter="url(#filter0_d_1_696)">
<circle cx="73.132" cy="149.811" r="0.669807" fill="#9C63F7"/>
</g>
<g filter="url(#filter1_d_1_696)">
<circle cx="54.3773" cy="132.396" r="0.669807" fill="#9C63F7"/>
</g>
<g filter="url(#filter2_d_1_696)">
<circle cx="56.3866" cy="74.7924" r="0.669807" fill="#9C63F7"/>
</g>
<g filter="url(#filter3_d_1_696)">
<circle cx="104.613" cy="48.6698" r="0.669807" fill="#9C63F7"/>
</g>
<circle cx="151.499" cy="74.7924" r="0.669807" fill="#D9D9D9"/>
<circle cx="153.509" cy="132.396" r="0.669807" fill="#D9D9D9"/>
<path d="M44.6202 108V107.48C44.7642 107.171 44.9536 106.893 45.1882 106.648C45.4229 106.397 45.6789 106.149 45.9562 105.904C46.1642 105.717 46.3349 105.563 46.4682 105.44C46.6016 105.317 46.7056 105.208 46.7802 105.112C46.8549 105.016 46.9082 104.917 46.9402 104.816C46.9722 104.715 46.9882 104.589 46.9882 104.44C46.9882 103.944 46.6736 103.696 46.0442 103.696C45.8309 103.696 45.6176 103.72 45.4042 103.768C45.1962 103.811 44.9962 103.869 44.8042 103.944V102.992C45.0069 102.923 45.2416 102.869 45.5082 102.832C45.7802 102.789 46.0389 102.768 46.2842 102.768C46.8816 102.768 47.3296 102.917 47.6282 103.216C47.9322 103.509 48.0842 103.909 48.0842 104.416C48.0842 104.768 47.9962 105.069 47.8202 105.32C47.6496 105.565 47.4256 105.808 47.1482 106.048C46.9296 106.24 46.7216 106.427 46.5242 106.608C46.3269 106.784 46.1616 106.971 46.0282 107.168H48.1322V108H44.6202ZM51.0498 108.208C50.4844 108.208 50.0311 108.101 49.6898 107.888C49.3484 107.675 49.1004 107.365 48.9458 106.96C48.7964 106.549 48.7218 106.059 48.7218 105.488C48.7218 104.912 48.7964 104.421 48.9458 104.016C49.1004 103.611 49.3484 103.301 49.6898 103.088C50.0311 102.875 50.4844 102.768 51.0498 102.768C51.6151 102.768 52.0684 102.875 52.4098 103.088C52.7511 103.301 52.9964 103.611 53.1458 104.016C53.3004 104.421 53.3778 104.912 53.3778 105.488C53.3778 106.059 53.3004 106.549 53.1458 106.96C52.9964 107.365 52.7511 107.675 52.4098 107.888C52.0684 108.101 51.6151 108.208 51.0498 108.208ZM51.0498 107.28C51.5138 107.28 51.8338 107.125 52.0098 106.816C52.1911 106.507 52.2818 106.064 52.2818 105.488C52.2818 104.912 52.1911 104.469 52.0098 104.16C51.8338 103.851 51.5138 103.696 51.0498 103.696C50.5858 103.696 50.2631 103.851 50.0818 104.16C49.9058 104.469 49.8178 104.912 49.8178 105.488C49.8178 106.064 49.9058 106.507 50.0818 106.816C50.2631 107.125 50.5858 107.28 51.0498 107.28Z" fill="#9C63F7"/>
<path d="M73.8273 58V56.92H71.3313V56.184L73.9633 52.848H74.9073V56.048H75.4113V56.92H74.9073V58H73.8273ZM72.3633 56.088H74.0113V54.04L72.3633 56.088ZM78.1787 58.208C77.6134 58.208 77.16 58.1013 76.8187 57.888C76.4774 57.6747 76.2294 57.3653 76.0747 56.96C75.9254 56.5493 75.8507 56.0587 75.8507 55.488C75.8507 54.912 75.9254 54.4213 76.0747 54.016C76.2294 53.6107 76.4774 53.3013 76.8187 53.088C77.16 52.8747 77.6134 52.768 78.1787 52.768C78.744 52.768 79.1974 52.8747 79.5387 53.088C79.88 53.3013 80.1254 53.6107 80.2747 54.016C80.4294 54.4213 80.5067 54.912 80.5067 55.488C80.5067 56.0587 80.4294 56.5493 80.2747 56.96C80.1254 57.3653 79.88 57.6747 79.5387 57.888C79.1974 58.1013 78.744 58.208 78.1787 58.208ZM78.1787 57.28C78.6427 57.28 78.9627 57.1253 79.1387 56.816C79.32 56.5067 79.4107 56.064 79.4107 55.488C79.4107 54.912 79.32 54.4693 79.1387 54.16C78.9627 53.8507 78.6427 53.696 78.1787 53.696C77.7147 53.696 77.392 53.8507 77.2107 54.16C77.0347 54.4693 76.9467 54.912 76.9467 55.488C76.9467 56.064 77.0347 56.5067 77.2107 56.816C77.392 57.1253 77.7147 57.28 78.1787 57.28Z" fill="#9C63F7"/>
<path d="M129.383 58.08C128.711 58.08 128.204 57.9147 127.863 57.584C127.527 57.2533 127.359 56.744 127.359 56.056V54.952C127.359 54.5253 127.449 54.1493 127.631 53.824C127.817 53.4933 128.081 53.2347 128.423 53.048C128.764 52.8613 129.167 52.768 129.631 52.768C129.897 52.768 130.129 52.784 130.327 52.816C130.524 52.848 130.713 52.896 130.895 52.96V53.888C130.559 53.7547 130.161 53.688 129.703 53.688C129.265 53.688 128.935 53.784 128.711 53.976C128.487 54.168 128.375 54.4213 128.375 54.736V54.984C128.545 54.8613 128.745 54.7707 128.975 54.712C129.204 54.648 129.415 54.616 129.607 54.616C130.22 54.616 130.671 54.7653 130.959 55.064C131.247 55.3627 131.391 55.784 131.391 56.328C131.391 56.6693 131.319 56.9733 131.174 57.24C131.036 57.5013 130.82 57.7067 130.527 57.856C130.233 58.0053 129.852 58.08 129.383 58.08ZM129.391 57.28C129.737 57.28 129.996 57.1973 130.167 57.032C130.337 56.8667 130.423 56.6453 130.423 56.368C130.423 56.0693 130.348 55.84 130.199 55.68C130.049 55.52 129.785 55.44 129.407 55.44C129.231 55.44 129.052 55.472 128.871 55.536C128.689 55.6 128.524 55.6827 128.375 55.784V56.272C128.375 56.944 128.713 57.28 129.391 57.28ZM134.312 58.208C133.746 58.208 133.293 58.1013 132.952 57.888C132.61 57.6747 132.362 57.3653 132.208 56.96C132.058 56.5493 131.984 56.0587 131.984 55.488C131.984 54.912 132.058 54.4213 132.208 54.016C132.362 53.6107 132.61 53.3013 132.952 53.088C133.293 52.8747 133.746 52.768 134.312 52.768C134.877 52.768 135.33 52.8747 135.672 53.088C136.013 53.3013 136.258 53.6107 136.408 54.016C136.562 54.4213 136.64 54.912 136.64 55.488C136.64 56.0587 136.562 56.5493 136.408 56.96C136.258 57.3653 136.013 57.6747 135.672 57.888C135.33 58.1013 134.877 58.208 134.312 58.208ZM134.312 57.28C134.776 57.28 135.096 57.1253 135.272 56.816C135.453 56.5067 135.544 56.064 135.544 55.488C135.544 54.912 135.453 54.4693 135.272 54.16C135.096 53.8507 134.776 53.696 134.312 53.696C133.848 53.696 133.525 53.8507 133.344 54.16C133.168 54.4693 133.08 54.912 133.08 55.488C133.08 56.064 133.168 56.5067 133.344 56.816C133.525 57.1253 133.848 57.28 134.312 57.28Z" fill="white"/>
<path d="M154.872 108.08C153.48 108.08 152.784 107.576 152.784 106.568C152.784 106.291 152.856 106.04 153 105.816C153.15 105.592 153.355 105.432 153.616 105.336C153.376 105.229 153.2 105.08 153.088 104.888C152.976 104.696 152.92 104.491 152.92 104.272C152.92 103.813 153.078 103.448 153.392 103.176C153.707 102.904 154.2 102.768 154.872 102.768C155.56 102.768 156.056 102.904 156.36 103.176C156.67 103.448 156.824 103.813 156.824 104.272C156.824 104.501 156.768 104.717 156.656 104.92C156.55 105.123 156.366 105.28 156.104 105.392C156.675 105.595 156.96 105.987 156.96 106.568C156.96 107.576 156.264 108.08 154.872 108.08ZM155.08 105.064C155.331 104.995 155.512 104.907 155.624 104.8C155.742 104.688 155.8 104.52 155.8 104.296C155.8 104.056 155.723 103.883 155.568 103.776C155.419 103.669 155.187 103.616 154.872 103.616C154.563 103.616 154.331 103.669 154.176 103.776C154.022 103.877 153.944 104.051 153.944 104.296C153.944 104.659 154.147 104.88 154.552 104.96L155.08 105.064ZM154.872 107.24C155.235 107.24 155.502 107.187 155.672 107.08C155.848 106.973 155.936 106.797 155.936 106.552C155.936 106.333 155.878 106.176 155.76 106.08C155.643 105.979 155.451 105.901 155.184 105.848L154.568 105.72C154.339 105.773 154.155 105.859 154.016 105.976C153.878 106.088 153.808 106.269 153.808 106.52C153.808 106.781 153.896 106.968 154.072 107.08C154.248 107.187 154.515 107.24 154.872 107.24ZM159.886 108.208C159.32 108.208 158.867 108.101 158.526 107.888C158.184 107.675 157.936 107.365 157.782 106.96C157.632 106.549 157.558 106.059 157.558 105.488C157.558 104.912 157.632 104.421 157.782 104.016C157.936 103.611 158.184 103.301 158.526 103.088C158.867 102.875 159.32 102.768 159.886 102.768C160.451 102.768 160.904 102.875 161.246 103.088C161.587 103.301 161.832 103.611 161.982 104.016C162.136 104.421 162.214 104.912 162.214 105.488C162.214 106.059 162.136 106.549 161.982 106.96C161.832 107.365 161.587 107.675 161.246 107.888C160.904 108.101 160.451 108.208 159.886 108.208ZM159.886 107.28C160.35 107.28 160.67 107.125 160.846 106.816C161.027 106.507 161.118 106.064 161.118 105.488C161.118 104.912 161.027 104.469 160.846 104.16C160.67 103.851 160.35 103.696 159.886 103.696C159.422 103.696 159.099 103.851 158.918 104.16C158.742 104.469 158.654 104.912 158.654 105.488C158.654 106.064 158.742 106.507 158.918 106.816C159.099 107.125 159.422 107.28 159.886 107.28Z" fill="white"/>
<path d="M128.616 152.792V148.616L127.776 148.752V147.848L129.696 147.56V152.792H128.616ZM132.776 153C132.21 153 131.757 152.893 131.416 152.68C131.074 152.466 130.826 152.157 130.672 151.752C130.522 151.341 130.448 150.85 130.448 150.28C130.448 149.704 130.522 149.213 130.672 148.808C130.826 148.402 131.074 148.093 131.416 147.88C131.757 147.666 132.21 147.56 132.776 147.56C133.341 147.56 133.794 147.666 134.136 147.88C134.477 148.093 134.722 148.402 134.872 148.808C135.026 149.213 135.104 149.704 135.104 150.28C135.104 150.85 135.026 151.341 134.872 151.752C134.722 152.157 134.477 152.466 134.136 152.68C133.794 152.893 133.341 153 132.776 153ZM132.776 152.072C133.24 152.072 133.56 151.917 133.736 151.608C133.917 151.298 134.008 150.856 134.008 150.28C134.008 149.704 133.917 149.261 133.736 148.952C133.56 148.642 133.24 148.488 132.776 148.488C132.312 148.488 131.989 148.642 131.808 148.952C131.632 149.261 131.544 149.704 131.544 150.28C131.544 150.856 131.632 151.298 131.808 151.608C131.989 151.917 132.312 152.072 132.776 152.072ZM138.026 153C137.46 153 137.007 152.893 136.666 152.68C136.324 152.466 136.076 152.157 135.922 151.752C135.772 151.341 135.698 150.85 135.698 150.28C135.698 149.704 135.772 149.213 135.922 148.808C136.076 148.402 136.324 148.093 136.666 147.88C137.007 147.666 137.46 147.56 138.026 147.56C138.591 147.56 139.044 147.666 139.386 147.88C139.727 148.093 139.972 148.402 140.122 148.808C140.276 149.213 140.354 149.704 140.354 150.28C140.354 150.85 140.276 151.341 140.122 151.752C139.972 152.157 139.727 152.466 139.386 152.68C139.044 152.893 138.591 153 138.026 153ZM138.026 152.072C138.49 152.072 138.81 151.917 138.986 151.608C139.167 151.298 139.258 150.856 139.258 150.28C139.258 149.704 139.167 149.261 138.986 148.952C138.81 148.642 138.49 148.488 138.026 148.488C137.562 148.488 137.239 148.642 137.058 148.952C136.882 149.261 136.794 149.704 136.794 150.28C136.794 150.856 136.882 151.298 137.058 151.608C137.239 151.917 137.562 152.072 138.026 152.072Z" fill="white"/>
<circle cx="103.165" cy="101.165" r="41.1648" fill="#1F2A3C"/>
<circle cx="103.165" cy="101.165" r="40.5767" stroke="white" stroke-opacity="0.02" stroke-width="1.17614"/>
<g filter="url(#filter4_d_1_696)">
<path fill-rule="evenodd" clip-rule="evenodd" d="M107.769 103.14L103.5 65L99.2312 103.141C98.2322 103.678 97.6194 104.405 97.6194 105.204C97.6194 106.861 100.252 108.205 103.5 108.205C106.748 108.205 109.381 106.861 109.381 105.204C109.381 104.405 108.768 103.678 107.769 103.14Z" fill="#07EDD2"/>
</g>
<g filter="url(#filter5_dd_1_696)">
<circle cx="103" cy="101" r="25" fill="#263245"/>
<circle cx="103" cy="101" r="24.4119" stroke="white" stroke-opacity="0.02" stroke-width="1.17614"/>
</g>
<path d="M82.249 174.842C41.371 163.283 17.6032 120.775 29.1623 79.8968C40.7213 39.0188 83.2299 15.251 124.108 26.8101C164.986 38.3691 188.754 80.8777 177.195 121.756C165.636 162.634 123.127 186.401 82.249 174.842ZM120.968 37.9125C86.2221 28.0873 50.0898 48.2899 40.2647 83.0362C30.4395 117.782 50.6421 153.915 85.3884 163.74C120.135 173.565 156.267 153.363 166.092 118.616C175.917 83.8699 155.715 47.7376 120.968 37.9125Z" fill="#2B3649" fill-opacity="0.2"/>
<g filter="url(#filter6_d_1_696)">
<path d="M70.2168 164.205C68.7463 167.032 65.2491 168.149 62.5408 166.471C49.5675 158.433 39.2383 146.688 32.9309 132.696C25.8309 116.945 24.2406 99.262 28.4163 82.4969C32.5919 65.7317 42.2903 50.8606 55.9486 40.2798C69.607 29.6989 86.43 24.0246 103.707 24.1711C120.983 24.3176 137.708 30.2765 151.185 41.0874C164.662 51.8984 174.106 66.9318 177.997 83.7654C181.888 100.599 179.998 118.252 172.632 133.881C166.088 147.764 155.561 159.332 142.453 167.149C139.717 168.781 136.239 167.604 134.817 164.753C133.395 161.902 134.569 158.459 137.284 156.791C148.081 150.156 156.757 140.5 162.195 128.961C168.456 115.677 170.063 100.672 166.756 86.3636C163.449 72.0551 155.421 59.2766 143.965 50.0873C132.51 40.898 118.294 35.833 103.609 35.7085C88.9236 35.5839 74.6241 40.4071 63.0145 49.4008C51.4049 58.3945 43.1613 71.035 39.612 85.2854C36.0627 99.5357 37.4145 114.566 43.4495 127.954C48.6915 139.584 57.2017 149.386 67.8853 156.203C70.5712 157.916 71.6872 161.379 70.2168 164.205Z" fill="url(#paint0_linear_1_696)" fill-opacity="0.8" shape-rendering="crispEdges"/>
</g>
<path d="M94.7879 106V105.025C95.0579 104.445 95.4129 103.925 95.8529 103.465C96.2929 102.995 96.7729 102.53 97.2929 102.07C97.6829 101.72 98.0029 101.43 98.2529 101.2C98.5029 100.97 98.6979 100.765 98.8379 100.585C98.9779 100.405 99.0779 100.22 99.1379 100.03C99.1979 99.84 99.2279 99.605 99.2279 99.325C99.2279 98.395 98.6379 97.93 97.4579 97.93C97.0579 97.93 96.6579 97.975 96.2579 98.065C95.8679 98.145 95.4929 98.255 95.1329 98.395V96.61C95.5129 96.48 95.9529 96.38 96.4529 96.31C96.9629 96.23 97.4479 96.19 97.9079 96.19C99.0279 96.19 99.8679 96.47 100.428 97.03C100.998 97.58 101.283 98.33 101.283 99.28C101.283 99.94 101.118 100.505 100.788 100.975C100.468 101.435 100.048 101.89 99.5279 102.34C99.1179 102.7 98.7279 103.05 98.3579 103.39C97.9879 103.72 97.6779 104.07 97.4279 104.44H101.373V106H94.7879ZM106.843 106.39C105.783 106.39 104.933 106.19 104.293 105.79C103.653 105.39 103.188 104.81 102.898 104.05C102.618 103.28 102.478 102.36 102.478 101.29C102.478 100.21 102.618 99.29 102.898 98.53C103.188 97.77 103.653 97.19 104.293 96.79C104.933 96.39 105.783 96.19 106.843 96.19C107.903 96.19 108.753 96.39 109.393 96.79C110.033 97.19 110.493 97.77 110.773 98.53C111.063 99.29 111.208 100.21 111.208 101.29C111.208 102.36 111.063 103.28 110.773 104.05C110.493 104.81 110.033 105.39 109.393 105.79C108.753 106.19 107.903 106.39 106.843 106.39ZM106.843 104.65C107.713 104.65 108.313 104.36 108.643 103.78C108.983 103.2 109.153 102.37 109.153 101.29C109.153 100.21 108.983 99.38 108.643 98.8C108.313 98.22 107.713 97.93 106.843 97.93C105.973 97.93 105.368 98.22 105.028 98.8C104.698 99.38 104.533 100.21 104.533 101.29C104.533 102.37 104.698 103.2 105.028 103.78C105.368 104.36 105.973 104.65 106.843 104.65Z" fill="#81ADC0"/>
<path d="M101.487 156.16C101.103 156.16 100.813 156.053 100.615 155.84C100.423 155.627 100.327 155.352 100.327 155.016C100.327 154.632 100.423 154.328 100.615 154.104C100.813 153.88 101.103 153.768 101.487 153.768C101.871 153.768 102.159 153.88 102.351 154.104C102.549 154.328 102.647 154.632 102.647 155.016C102.647 155.352 102.549 155.627 102.351 155.84C102.159 156.053 101.871 156.16 101.487 156.16ZM101.127 159L103.839 153.848H104.863L102.143 159H101.127ZM101.487 155.544C101.674 155.544 101.807 155.496 101.887 155.4C101.973 155.299 102.015 155.165 102.015 155C102.015 154.787 101.973 154.632 101.887 154.536C101.802 154.44 101.669 154.392 101.487 154.392C101.306 154.392 101.173 154.44 101.087 154.536C101.007 154.632 100.967 154.787 100.967 155C100.967 155.165 101.007 155.299 101.087 155.4C101.173 155.496 101.306 155.544 101.487 155.544ZM104.511 159.08C104.127 159.08 103.837 158.973 103.639 158.76C103.447 158.547 103.351 158.272 103.351 157.936C103.351 157.552 103.447 157.248 103.639 157.024C103.837 156.8 104.127 156.688 104.511 156.688C104.895 156.688 105.183 156.8 105.375 157.024C105.573 157.248 105.671 157.552 105.671 157.936C105.671 158.272 105.573 158.547 105.375 158.76C105.183 158.973 104.895 159.08 104.511 159.08ZM104.511 158.464C104.698 158.464 104.831 158.416 104.911 158.32C104.997 158.219 105.039 158.085 105.039 157.92C105.039 157.707 104.997 157.552 104.911 157.456C104.826 157.36 104.693 157.312 104.511 157.312C104.33 157.312 104.197 157.36 104.111 157.456C104.031 157.552 103.991 157.707 103.991 157.92C103.991 158.085 104.031 158.219 104.111 158.32C104.197 158.416 104.33 158.464 104.511 158.464Z" fill="#81ADC0"/>
<defs>
<filter id="filter0_d_1_696" x="72.4622" y="147.801" width="2.67921" height="2.67921" filterUnits="userSpaceOnUse" color-interpolation-filters="sRGB">
<feFlood flood-opacity="0" result="BackgroundImageFix"/>
<feColorMatrix in="SourceAlpha" type="matrix" values="0 0 0 0 0 0 0 0 0 0 0 0 0 0 0 0 0 0 127 0" result="hardAlpha"/>
<feOffset dx="0.669807" dy="-0.669807"/>
<feGaussianBlur stdDeviation="0.334904"/>
<feComposite in2="hardAlpha" operator="out"/>
<feColorMatrix type="matrix" values="0 0 0 0 0 0 0 0 0 0 0 0 0 0 0 0 0 0 0.5 0"/>
<feBlend mode="normal" in2="BackgroundImageFix" result="effect1_dropShadow_1_696"/>
<feBlend mode="normal" in="SourceGraphic" in2="effect1_dropShadow_1_696" result="shape"/>
</filter>
<filter id="filter1_d_1_696" x="53.7075" y="130.386" width="2.67921" height="2.67921" filterUnits="userSpaceOnUse" color-interpolation-filters="sRGB">
<feFlood flood-opacity="0" result="BackgroundImageFix"/>
<feColorMatrix in="SourceAlpha" type="matrix" values="0 0 0 0 0 0 0 0 0 0 0 0 0 0 0 0 0 0 127 0" result="hardAlpha"/>
<feOffset dx="0.669807" dy="-0.669807"/>
<feGaussianBlur stdDeviation="0.334904"/>
<feComposite in2="hardAlpha" operator="out"/>
<feColorMatrix type="matrix" values="0 0 0 0 0 0 0 0 0 0 0 0 0 0 0 0 0 0 0.5 0"/>
<feBlend mode="normal" in2="BackgroundImageFix" result="effect1_dropShadow_1_696"/>
<feBlend mode="normal" in="SourceGraphic" in2="effect1_dropShadow_1_696" result="shape"/>
</filter>
<filter id="filter2_d_1_696" x="55.7168" y="72.7829" width="2.67921" height="2.67921" filterUnits="userSpaceOnUse" color-interpolation-filters="sRGB">
<feFlood flood-opacity="0" result="BackgroundImageFix"/>
<feColorMatrix in="SourceAlpha" type="matrix" values="0 0 0 0 0 0 0 0 0 0 0 0 0 0 0 0 0 0 127 0" result="hardAlpha"/>
<feOffset dx="0.669807" dy="-0.669807"/>
<feGaussianBlur stdDeviation="0.334904"/>
<feComposite in2="hardAlpha" operator="out"/>
<feColorMatrix type="matrix" values="0 0 0 0 0 0 0 0 0 0 0 0 0 0 0 0 0 0 0.5 0"/>
<feBlend mode="normal" in2="BackgroundImageFix" result="effect1_dropShadow_1_696"/>
<feBlend mode="normal" in="SourceGraphic" in2="effect1_dropShadow_1_696" result="shape"/>
</filter>
<filter id="filter3_d_1_696" x="103.943" y="46.6604" width="2.67921" height="2.67921" filterUnits="userSpaceOnUse" color-interpolation-filters="sRGB">
<feFlood flood-opacity="0" result="BackgroundImageFix"/>
<feColorMatrix in="SourceAlpha" type="matrix" values="0 0 0 0 0 0 0 0 0 0 0 0 0 0 0 0 0 0 127 0" result="hardAlpha"/>
<feOffset dx="0.669807" dy="-0.669807"/>
<feGaussianBlur stdDeviation="0.334904"/>
<feComposite in2="hardAlpha" operator="out"/>
<feColorMatrix type="matrix" values="0 0 0 0 0 0 0 0 0 0 0 0 0 0 0 0 0 0 0.5 0"/>
<feBlend mode="normal" in2="BackgroundImageFix" result="effect1_dropShadow_1_696"/>
<feBlend mode="normal" in="SourceGraphic" in2="effect1_dropShadow_1_696" result="shape"/>
</filter>
<filter id="filter4_d_1_696" x="81.1535" y="53.2386" width="35.2842" height="66.7273" filterUnits="userSpaceOnUse" color-interpolation-filters="sRGB">
<feFlood flood-opacity="0" result="BackgroundImageFix"/>
<feColorMatrix in="SourceAlpha" type="matrix" values="0 0 0 0 0 0 0 0 0 0 0 0 0 0 0 0 0 0 127 0" result="hardAlpha"/>
<feOffset dx="-4.70455"/>
<feGaussianBlur stdDeviation="5.88068"/>
<feComposite in2="hardAlpha" operator="out"/>
<feColorMatrix type="matrix" values="0 0 0 0 0.027451 0 0 0 0 0.929412 0 0 0 0 0.823529 0 0 0 0.7 0"/>
<feBlend mode="normal" in2="BackgroundImageFix" result="effect1_dropShadow_1_696"/>
<feBlend mode="normal" in="SourceGraphic" in2="effect1_dropShadow_1_696" result="shape"/>
</filter>
<filter id="filter5_dd_1_696" x="63.2955" y="61.2955" width="79.4091" height="79.4091" filterUnits="userSpaceOnUse" color-interpolation-filters="sRGB">
<feFlood flood-opacity="0" result="BackgroundImageFix"/>
<feColorMatrix in="SourceAlpha" type="matrix" values="0 0 0 0 0 0 0 0 0 0 0 0 0 0 0 0 0 0 127 0" result="hardAlpha"/>
<feOffset dx="4.70455" dy="4.70455"/>
<feGaussianBlur stdDeviation="5"/>
<feComposite in2="hardAlpha" operator="out"/>
<feColorMatrix type="matrix" values="0 0 0 0 0 0 0 0 0 0 0 0 0 0 0 0 0 0 0.25 0"/>
<feBlend mode="normal" in2="BackgroundImageFix" result="effect1_dropShadow_1_696"/>
<feColorMatrix in="SourceAlpha" type="matrix" values="0 0 0 0 0 0 0 0 0 0 0 0 0 0 0 0 0 0 127 0" result="hardAlpha"/>
<feOffset dx="-4.70455" dy="-4.70455"/>
<feGaussianBlur stdDeviation="5"/>
<feComposite in2="hardAlpha" operator="out"/>
<feColorMatrix type="matrix" values="0 0 0 0 1 0 0 0 0 1 0 0 0 0 1 0 0 0 0.05 0"/>
<feBlend mode="normal" in2="effect1_dropShadow_1_696" result="effect2_dropShadow_1_696"/>
<feBlend mode="normal" in="SourceGraphic" in2="effect2_dropShadow_1_696" result="shape"/>
</filter>
<filter id="filter6_d_1_696" x="14.3746" y="17.1116" width="177.36" height="167.245" filterUnits="userSpaceOnUse" color-interpolation-filters="sRGB">
<feFlood flood-opacity="0" result="BackgroundImageFix"/>
<feColorMatrix in="SourceAlpha" type="matrix" values="0 0 0 0 0 0 0 0 0 0 0 0 0 0 0 0 0 0 127 0" result="hardAlpha"/>
<feOffset dy="4.70455"/>
<feGaussianBlur stdDeviation="5.88068"/>
<feComposite in2="hardAlpha" operator="out"/>
<feColorMatrix type="matrix" values="0 0 0 0 0.490196 0 0 0 0 0.819608 0 0 0 0 0.756863 0 0 0 0.6 0"/>
<feBlend mode="normal" in2="BackgroundImageFix" result="effect1_dropShadow_1_696"/>
<feBlend mode="normal" in="SourceGraphic" in2="effect1_dropShadow_1_696" result="shape"/>
</filter>
<linearGradient id="paint0_linear_1_696" x1="100.436" y1="27.3116" x2="66.3276" y2="165.508" gradientUnits="userSpaceOnUse">
<stop stop-color="#07EDD2"/>
<stop offset="1" stop-color="#9C63F7"/>
</linearGradient>
</defs>
</svg>
