<svg width="164" height="164" viewBox="0 0 164 164" fill="none" xmlns="http://www.w3.org/2000/svg">
<circle cx="81.9999" cy="82" r="52.452" stroke="#646464" stroke-opacity="0.4"/>
<circle cx="82" cy="82" r="81.5" stroke="#646464" stroke-opacity="0.4"/>
<g clip-path="url(#clip0_1_3058)">
<path d="M95.2012 80.4286C96.1872 80.4286 96.9884 79.6382 96.9884 78.6614C96.9884 77.6865 96.1891 76.8943 95.2012 76.8943C94.2153 76.8943 93.4141 77.6847 93.4141 78.6614C93.4141 79.6363 94.2134 80.4286 95.2012 80.4286Z" fill="#9C63F7"/>
<path d="M69.3853 80.4286C70.3713 80.4286 71.1725 79.6382 71.1725 78.6614C71.1725 77.6865 70.3732 76.8943 69.3853 76.8943C68.3994 76.8943 67.5981 77.6847 67.5981 78.6614C67.5981 79.6363 68.3975 80.4286 69.3853 80.4286Z" fill="#9C63F7"/>
<path d="M107.304 80.4286C108.29 80.4286 109.091 79.6382 109.091 78.6614C109.091 77.6865 108.292 76.8943 107.304 76.8943C106.318 76.8943 105.517 77.6847 105.517 78.6614C105.517 79.6363 106.316 80.4286 107.304 80.4286Z" fill="#9C63F7"/>
<path d="M50.52 80.5217V63.3593H58.2814C60.061 63.3593 61.5786 63.6482 62.836 64.226C64.0935 64.8039 65.0549 65.7285 65.7204 66.9979C66.3859 68.2673 66.7177 69.9525 66.7177 72.0477C66.7177 74.9966 65.99 77.1478 64.5346 78.4974C63.0792 79.8488 60.9942 80.5236 58.2814 80.5236H50.52V80.5217ZM55.5874 76.6836H57.6367C58.4812 76.6836 59.1901 76.5643 59.765 76.3239C60.34 76.0834 60.7793 75.6304 61.0866 74.9649C61.392 74.2995 61.5447 73.3264 61.5447 72.0477C61.5447 70.7689 61.4052 69.7791 61.1262 69.0764C60.8472 68.3755 60.4211 67.8871 59.8461 67.6112C59.2711 67.3353 58.534 67.1974 57.6367 67.1974H55.5874V76.6836Z" fill="#9C63F7"/>
<path d="M72.9727 80.5217L79.6293 63.3593H84.9927L91.6494 80.5217H86.367L84.9116 76.87H79.6821L78.2531 80.5217H72.9727ZM80.357 73.2724H84.2386L82.2987 68.2357L80.357 73.2724Z" fill="#9C63F7"/>
<path d="M98.7473 80.5217V63.3593H103.815V80.5217H98.7473Z" fill="#9C63F7"/>
<path d="M114.359 80.5217L110.315 63.3593H115.275L117.243 72.4466L119.157 65.9447V63.3593H123.308L125.949 72.4727L128.025 63.3593H132.984L128.969 80.5217H124.388L121.773 71.6469L118.94 80.5217H114.359Z" fill="#9C63F7"/>
<path d="M139.535 80.3611C136.983 80.3611 135.101 79.8019 133.889 78.6816C132.677 77.5631 132.07 75.9284 132.07 73.7772C132.07 71.6447 132.681 70.0155 133.902 68.8878C135.124 67.76 137.002 67.1952 139.535 67.1952C142.086 67.1952 143.977 67.76 145.208 68.8878C146.439 70.0155 147.053 71.6466 147.053 73.7772C147.053 75.9265 146.443 77.5613 145.221 78.6816C143.999 79.8019 142.105 80.3611 139.535 80.3611ZM139.535 76.7094C140.361 76.7094 140.959 76.4783 141.328 76.016C141.696 75.5537 141.88 74.808 141.88 73.7772C141.88 72.765 141.696 72.0231 141.328 71.5515C140.96 71.0818 140.363 70.845 139.535 70.845C138.726 70.845 138.142 71.0799 137.784 71.5515C137.424 72.0231 137.245 72.7632 137.245 73.7772C137.245 74.808 137.424 75.5537 137.784 76.016C138.142 76.4801 138.726 76.7094 139.535 76.7094Z" fill="#9C63F7"/>
<path d="M52.7693 87.0586V85.4573L51.2046 82.7451H51.97L53.135 84.8422L54.3001 82.7451H55.0655L53.5008 85.4573V87.0586H52.7693Z" fill="#9C63F7"/>
<path d="M56.7036 87.1257C56.1248 87.1257 55.7026 86.9821 55.433 86.6969C55.1634 86.4117 55.0295 86.0035 55.0295 85.4704C55.0295 84.9391 55.1653 84.5309 55.4367 84.2438C55.7082 83.9586 56.1305 83.8151 56.7036 83.8151C57.2824 83.8151 57.7065 83.9586 57.9761 84.2438C58.2476 84.529 58.3833 84.9372 58.3833 85.4704C58.3833 86.0016 58.2495 86.4098 57.9799 86.6969C57.7122 86.9821 57.2861 87.1257 56.7036 87.1257ZM56.7036 86.5086C57.0429 86.5086 57.2824 86.4266 57.4256 86.2645C57.567 86.1023 57.6387 85.8376 57.6387 85.4704C57.6387 85.105 57.567 84.8403 57.4256 84.68C57.2842 84.5197 57.0429 84.4395 56.7036 84.4395C56.3699 84.4395 56.1305 84.5197 55.9891 84.68C55.8477 84.8403 55.7761 85.105 55.7761 85.4704C55.7761 85.8357 55.8477 86.1004 55.9891 86.2645C56.1324 86.4285 56.3699 86.5086 56.7036 86.5086Z" fill="#9C63F7"/>
<path d="M60.2876 87.1262C59.9031 87.1262 59.609 87.0218 59.4035 86.8111C59.198 86.6005 59.0962 86.2929 59.0962 85.8866V83.8846H59.8352V85.8866C59.8352 86.1233 59.8936 86.2985 60.0124 86.4085C60.1293 86.5203 60.3103 86.5763 60.5535 86.5763C60.7344 86.5763 60.9003 86.5427 61.0549 86.4756C61.2076 86.4085 61.3415 86.319 61.4546 86.2072V83.8827H62.186V87.0572H61.5149L61.481 86.7291C61.3358 86.841 61.1643 86.9342 60.9663 87.0106C60.7665 87.0889 60.5403 87.1262 60.2876 87.1262Z" fill="#9C63F7"/>
<path d="M63.0718 87.0589V83.8844H63.7486L63.7882 84.2535C63.9409 84.1547 64.1237 84.0652 64.3367 83.985C64.5498 83.9049 64.759 83.8489 64.9664 83.8173V84.3728C64.8401 84.3951 64.7025 84.4268 64.5573 84.4697C64.4103 84.5126 64.2708 84.5592 64.1407 84.6095C64.0106 84.6617 63.8994 84.7139 63.8089 84.7661V87.057H63.0718V87.0589Z" fill="#9C63F7"/>
<path d="M67.1157 88.5054V83.8844H67.7529L67.7944 84.1994C67.9396 84.0708 68.096 83.9738 68.2676 83.9105C68.4391 83.8489 68.6427 83.8173 68.8765 83.8173C69.3365 83.8173 69.6966 83.9422 69.953 84.1882C70.2093 84.4361 70.3394 84.8462 70.3394 85.4166C70.3394 85.987 70.2056 86.4158 69.9398 86.6991C69.6739 86.9825 69.3101 87.1241 68.8482 87.1241C68.4599 87.1241 68.1281 87.0346 67.8528 86.8557V88.5035H67.1157V88.5054ZM68.6597 86.5761C69.2837 86.5761 69.5948 86.1884 69.5948 85.411C69.5948 85.0364 69.525 84.7698 69.3855 84.6114C69.246 84.4529 69.0104 84.3728 68.6804 84.3728C68.3505 84.3728 68.0753 84.4846 67.8547 84.7083V86.2965C67.9584 86.3822 68.0753 86.4493 68.2035 86.4997C68.3317 86.5518 68.4844 86.5761 68.6597 86.5761Z" fill="#9C63F7"/>
<path d="M72.711 87.126C72.1511 87.126 71.7175 86.9899 71.4102 86.7178C71.1029 86.4456 70.9502 86.028 70.9502 85.4651C70.9502 84.9562 71.0803 84.5536 71.3423 84.259C71.6044 83.9645 72.0021 83.8173 72.5338 83.8173C73.022 83.8173 73.3878 83.944 73.6347 84.1957C73.8798 84.4473 74.0042 84.7735 74.0042 85.1706V85.7596H71.6534C71.6892 86.0672 71.8023 86.2797 71.9927 86.3953C72.1831 86.5108 72.4716 86.5686 72.8599 86.5686C73.022 86.5686 73.1898 86.5537 73.3614 86.522C73.5329 86.4903 73.6819 86.4512 73.8082 86.4009V86.9358C73.663 86.9992 73.4971 87.0458 73.3105 87.0757C73.1238 87.1092 72.924 87.126 72.711 87.126ZM71.6553 85.2843H73.3557V85.0625C73.3557 84.8444 73.2954 84.6729 73.1729 84.5498C73.0503 84.4268 72.8448 84.3653 72.5564 84.3653C72.2133 84.3653 71.9776 84.4399 71.8494 84.5871C71.7194 84.7344 71.6553 84.9674 71.6553 85.2843Z" fill="#9C63F7"/>
<path d="M74.751 87.0589V83.8844H75.4278L75.4674 84.2535C75.6201 84.1547 75.8029 84.0652 76.0159 83.985C76.229 83.9049 76.4382 83.8489 76.6456 83.8173V84.3728C76.5193 84.3951 76.3817 84.4268 76.2365 84.4697C76.0895 84.5126 75.95 84.5592 75.8199 84.6095C75.6898 84.6617 75.5786 84.7139 75.4881 84.7661V87.057H74.751V87.0589Z" fill="#9C63F7"/>
<path d="M78.246 87.126C78.0254 87.126 77.8143 87.1111 77.6126 87.0794C77.4109 87.0477 77.245 87.0104 77.1149 86.9657V86.3487C77.2676 86.4065 77.4373 86.4512 77.6239 86.4829C77.8086 86.5146 77.9859 86.5295 78.1517 86.5295C78.4044 86.5295 78.5853 86.5071 78.6928 86.4624C78.8021 86.4176 78.8549 86.33 78.8549 86.2014C78.8549 86.1082 78.8229 86.0336 78.7569 85.9796C78.6909 85.9255 78.5948 85.8771 78.4647 85.8323C78.3365 85.7876 78.1725 85.7335 77.9727 85.672C77.7822 85.6105 77.6182 85.5415 77.4787 85.4688C77.3392 85.3943 77.2299 85.3011 77.1526 85.1836C77.0753 85.068 77.0376 84.9152 77.0376 84.7288C77.0376 84.438 77.1432 84.2143 77.3562 84.0559C77.5692 83.8974 77.9086 83.8173 78.3799 83.8173C78.5646 83.8173 78.7418 83.8303 78.9077 83.8583C79.0755 83.8844 79.2169 83.9179 79.3338 83.9589V84.5685C79.2075 84.52 79.068 84.4809 78.9171 84.4548C78.7663 84.4287 78.6249 84.4156 78.4949 84.4156C78.2592 84.4156 78.082 84.4361 77.9632 84.4753C77.8445 84.5144 77.7841 84.5964 77.7841 84.7157C77.7841 84.8406 77.8463 84.9282 77.9708 84.9804C78.0952 85.0326 78.295 85.1016 78.5703 85.1911C78.8229 85.2675 79.0246 85.3477 79.1735 85.4315C79.3225 85.5173 79.4299 85.6179 79.4959 85.7354C79.5619 85.8528 79.5939 86.0075 79.5939 86.1939C79.5939 86.5071 79.4789 86.7401 79.2489 86.8948C79.0171 87.0496 78.6834 87.126 78.246 87.126Z" fill="#9C63F7"/>
<path d="M81.7825 87.1257C81.2037 87.1257 80.7814 86.9821 80.5118 86.6969C80.2422 86.4117 80.1084 86.0035 80.1084 85.4704C80.1084 84.9391 80.2441 84.5309 80.5156 84.2438C80.7871 83.9586 81.2094 83.8151 81.7825 83.8151C82.3612 83.8151 82.7854 83.9586 83.055 84.2438C83.3264 84.529 83.4622 84.9372 83.4622 85.4704C83.4622 86.0016 83.3283 86.4098 83.0587 86.6969C82.7892 86.9821 82.365 87.1257 81.7825 87.1257ZM81.7825 86.5086C82.1218 86.5086 82.3612 86.4266 82.5045 86.2645C82.6459 86.1023 82.7175 85.8376 82.7175 85.4704C82.7175 85.105 82.6459 84.8403 82.5045 84.68C82.3631 84.5197 82.1218 84.4395 81.7825 84.4395C81.4488 84.4395 81.2094 84.5197 81.068 84.68C80.9266 84.8403 80.8549 85.105 80.8549 85.4704C80.8549 85.8357 80.9266 86.1004 81.068 86.2645C81.2094 86.4285 81.4469 86.5086 81.7825 86.5086Z" fill="#9C63F7"/>
<path d="M84.207 87.0589V83.8844H84.8838L84.9178 84.2199C85.0629 84.1081 85.2345 84.013 85.4362 83.9347C85.6379 83.8564 85.8604 83.8173 86.1035 83.8173C86.5183 83.8173 86.8218 83.9142 87.0103 84.1062C87.1988 84.2982 87.295 84.5983 87.295 85.0028V87.0589H86.5635V85.0364C86.5635 84.7903 86.5126 84.6188 86.4108 84.52C86.309 84.4212 86.1186 84.3728 85.8377 84.3728C85.6699 84.3728 85.5059 84.4063 85.3457 84.4734C85.1854 84.5405 85.0516 84.6281 84.9423 84.7344V87.0589H84.207Z" fill="#9C63F7"/>
<path d="M89.0498 87.1262C88.8462 87.1262 88.6577 87.0907 88.4842 87.018C88.3108 86.9472 88.1713 86.8391 88.0676 86.6937C87.9639 86.5483 87.9111 86.3693 87.9111 86.155C87.9111 85.8511 88.0167 85.6069 88.226 85.4224C88.4352 85.236 88.7595 85.1447 89.1987 85.1447H90.228V85.0049C90.228 84.8539 90.2035 84.7327 90.1564 84.6432C90.1093 84.5537 90.0226 84.4885 89.8981 84.4494C89.7737 84.4083 89.5927 84.3897 89.3533 84.3897C88.9744 84.3897 88.62 84.4456 88.2901 84.5575V84.015C88.4352 83.9572 88.6105 83.9106 88.8179 83.8752C89.0253 83.8398 89.2496 83.8212 89.4891 83.8212C89.9585 83.8212 90.3167 83.9144 90.5636 84.1026C90.8087 84.2909 90.9331 84.5966 90.9331 85.0198V87.0628H90.3035L90.2563 86.7403C90.1244 86.8652 89.9641 86.9621 89.7718 87.0292C89.5795 87.0926 89.3382 87.1262 89.0498 87.1262ZM89.2459 86.6042C89.4664 86.6042 89.6606 86.5669 89.8246 86.4942C89.9886 86.4197 90.1244 86.3209 90.228 86.196V85.6405H89.2119C88.9951 85.6405 88.8387 85.6815 88.7406 85.7654C88.6426 85.8474 88.5955 85.9742 88.5955 86.1438C88.5955 86.3097 88.652 86.4271 88.7651 86.498C88.8782 86.5688 89.0385 86.6042 89.2459 86.6042Z" fill="#9C63F7"/>
<path d="M92.5791 87.1257C92.3171 87.1257 92.1191 87.0623 91.9834 86.9355C91.8476 86.8088 91.7798 86.5981 91.7798 86.3036V82.5457H92.5188V86.2365C92.5188 86.3614 92.5414 86.4472 92.5866 86.49C92.6319 86.5348 92.6998 86.5571 92.7903 86.5571C92.8996 86.5571 93.0033 86.5441 93.1013 86.518V87.0474C93.0146 87.0791 92.9335 87.0996 92.8543 87.1108C92.7752 87.1201 92.6828 87.1257 92.5791 87.1257Z" fill="#9C63F7"/>
<path d="M96.6172 87.1257C96.3288 87.1257 96.0724 87.0772 95.8518 86.9784C95.6313 86.8796 95.4597 86.7175 95.3372 86.4901C95.2146 86.2626 95.1543 85.9569 95.1543 85.5729C95.1543 85.1927 95.2203 84.872 95.3504 84.6111C95.4804 84.3501 95.6633 84.1525 95.8952 84.0183C96.1271 83.8841 96.391 83.817 96.6851 83.817C96.8793 83.817 97.0527 83.8394 97.2035 83.8841C97.3543 83.9288 97.4995 83.9978 97.6409 84.091V82.5438H98.3799V87.0586H97.7502L97.7031 86.7436C97.5579 86.8722 97.3996 86.9691 97.228 87.0306C97.0546 87.094 96.851 87.1257 96.6172 87.1257ZM96.8133 86.5758C97.1432 86.5758 97.4184 86.464 97.639 86.2403V84.6521C97.426 84.4638 97.1601 84.3706 96.8397 84.3706C96.5286 84.3706 96.293 84.4731 96.1346 84.6782C95.9762 84.8832 95.8971 85.1833 95.8971 85.5748C95.8971 85.9551 95.9706 86.216 96.1176 86.3577C96.2647 86.505 96.4966 86.5758 96.8133 86.5758Z" fill="#9C63F7"/>
<path d="M99.5903 87.0583V84.4392H99.1021L99.1699 83.8837H100.327V87.0583H99.5903ZM99.53 83.2201V82.618H100.337V83.2201H99.53Z" fill="#9C63F7"/>
<path d="M102.516 88.2366C102.277 88.2366 102.037 88.2217 101.798 88.1938C101.558 88.1639 101.355 88.1211 101.189 88.0633V87.5003C101.37 87.5581 101.577 87.6029 101.811 87.6345C102.047 87.6662 102.269 87.6811 102.482 87.6811C102.808 87.6811 103.044 87.6625 103.193 87.6271C103.342 87.5917 103.417 87.5115 103.417 87.3866C103.417 87.2934 103.381 87.2263 103.308 87.189C103.236 87.1517 103.099 87.1312 102.895 87.1312H102.028C101.445 87.1312 101.153 86.9281 101.153 86.5217C101.153 86.3931 101.191 86.2719 101.268 86.1601C101.345 86.0482 101.466 85.9643 101.634 85.9047C101.449 85.8152 101.311 85.6922 101.225 85.5356C101.136 85.379 101.093 85.1926 101.093 84.9727C101.093 84.5663 101.215 84.2718 101.462 84.0891C101.707 83.9064 102.077 83.8151 102.569 83.8151C102.673 83.8151 102.782 83.8225 102.895 83.8393C103.008 83.8542 103.097 83.8691 103.159 83.8822H104.337L104.316 84.3575H103.774C103.86 84.4283 103.922 84.5178 103.964 84.6259C104.005 84.734 104.024 84.8496 104.024 84.9745C104.024 85.3138 103.921 85.5803 103.713 85.7742C103.506 85.9681 103.191 86.065 102.772 86.065C102.701 86.065 102.633 86.0613 102.573 86.0557C102.512 86.0482 102.444 86.0408 102.373 86.0314C102.237 86.0445 102.116 86.0799 102.007 86.1396C101.898 86.1973 101.845 86.2756 101.845 86.3744C101.845 86.4415 101.871 86.49 101.926 86.518C101.981 86.5459 102.071 86.5608 102.198 86.5608H103.099C103.419 86.5608 103.666 86.6279 103.84 86.7659C104.013 86.902 104.1 87.0996 104.1 87.3587C104.1 87.6718 103.962 87.8955 103.691 88.0316C103.419 88.1695 103.027 88.2366 102.516 88.2366ZM102.571 85.6046C102.865 85.6046 103.068 85.5561 103.183 85.4573C103.298 85.3585 103.357 85.1926 103.357 84.9559C103.357 84.7191 103.298 84.5476 103.183 84.4395C103.068 84.3314 102.863 84.2792 102.571 84.2792C102.296 84.2792 102.094 84.3314 101.968 84.4339C101.841 84.5365 101.777 84.7117 101.777 84.9559C101.777 85.1833 101.837 85.3492 101.956 85.4517C102.077 85.5542 102.282 85.6046 102.571 85.6046Z" fill="#9C63F7"/>
<path d="M105.159 87.0583V84.4392H104.671L104.739 83.8837H105.896V87.0583H105.159ZM105.099 83.2201V82.618H105.906V83.2201H105.099Z" fill="#9C63F7"/>
<path d="M108.01 87.1257C107.666 87.1257 107.41 87.0362 107.24 86.8535C107.071 86.6727 106.986 86.4266 106.986 86.1135V84.4526H106.513V83.8841H106.986V83.1533L107.717 82.9315V83.8822H108.571L108.524 84.4507H107.717V86.0725C107.717 86.2552 107.761 86.3838 107.846 86.4583C107.932 86.531 108.072 86.5683 108.266 86.5683C108.388 86.5683 108.517 86.5459 108.652 86.5012V87.0176C108.477 87.0903 108.264 87.1257 108.01 87.1257Z" fill="#9C63F7"/>
<path d="M110.245 87.1262C110.042 87.1262 109.853 87.0907 109.68 87.018C109.506 86.9472 109.367 86.8391 109.263 86.6937C109.159 86.5483 109.106 86.3693 109.106 86.155C109.106 85.8511 109.212 85.6069 109.421 85.4224C109.631 85.236 109.955 85.1447 110.394 85.1447H111.423V85.0049C111.423 84.8539 111.399 84.7327 111.352 84.6432C111.305 84.5537 111.218 84.4885 111.093 84.4494C110.969 84.4083 110.788 84.3897 110.549 84.3897C110.17 84.3897 109.815 84.4456 109.485 84.5575V84.015C109.631 83.9572 109.806 83.9106 110.013 83.8752C110.221 83.8398 110.445 83.8212 110.684 83.8212C111.154 83.8212 111.512 83.9144 111.759 84.1026C112.004 84.2909 112.128 84.5966 112.128 85.0198V87.0628H111.499L111.452 86.7403C111.32 86.8652 111.159 86.9621 110.967 87.0292C110.775 87.0926 110.534 87.1262 110.245 87.1262ZM110.441 86.6042C110.662 86.6042 110.856 86.5669 111.02 86.4942C111.184 86.4197 111.32 86.3209 111.423 86.196V85.6405H110.407C110.19 85.6405 110.034 85.6815 109.936 85.7654C109.838 85.8474 109.791 85.9742 109.791 86.1438C109.791 86.3097 109.847 86.4271 109.96 86.498C110.074 86.5688 110.234 86.6042 110.441 86.6042Z" fill="#9C63F7"/>
<path d="M113.774 87.1257C113.512 87.1257 113.314 87.0623 113.179 86.9355C113.043 86.8088 112.975 86.5981 112.975 86.3036V82.5457H113.714V86.2365C113.714 86.3614 113.737 86.4472 113.782 86.49C113.827 86.5348 113.895 86.5571 113.986 86.5571C114.095 86.5571 114.199 86.5441 114.297 86.518V87.0474C114.21 87.0791 114.129 87.0996 114.05 87.1108C113.97 87.1201 113.878 87.1257 113.774 87.1257Z" fill="#9C63F7"/>
<path d="M116.355 87.0586L118.022 82.7451H118.847L120.501 87.0586H119.743L119.309 85.9476H117.554L117.121 87.0586H116.355ZM117.669 85.3846H119.187L118.429 83.4087L117.669 85.3846Z" fill="#9C63F7"/>
<path d="M121.117 87.0587V86.4901H121.741V87.0587H121.117Z" fill="#9C63F7"/>
<path d="M122.493 87.0586V82.7451H123.232V87.0586H122.493Z" fill="#9C63F7"/>
<path d="M123.977 87.0587V86.4901H124.601V87.0587H123.977Z" fill="#9C63F7"/>
<path d="M127.648 87.0582L126.801 83.8837H127.54L128.096 86.1951L128.726 84.2733V83.8855H129.288L129.985 86.197L130.542 83.8855H131.273L130.432 87.06H129.735L129.05 84.9835L128.353 87.06H127.648V87.0582Z" fill="#9C63F7"/>
<path d="M133.25 87.1257C132.672 87.1257 132.249 86.9821 131.98 86.6969C131.71 86.4117 131.576 86.0035 131.576 85.4704C131.576 84.9391 131.712 84.5309 131.984 84.2438C132.255 83.9586 132.677 83.8151 133.25 83.8151C133.829 83.8151 134.253 83.9586 134.523 84.2438C134.794 84.529 134.93 84.9372 134.93 85.4704C134.93 86.0016 134.796 86.4098 134.527 86.6969C134.259 86.9821 133.833 87.1257 133.25 87.1257ZM133.25 86.5086C133.59 86.5086 133.829 86.4266 133.973 86.2645C134.114 86.1023 134.186 85.8376 134.186 85.4704C134.186 85.105 134.114 84.8403 133.973 84.68C133.831 84.5197 133.59 84.4395 133.25 84.4395C132.917 84.4395 132.677 84.5197 132.536 84.68C132.395 84.8403 132.323 85.105 132.323 85.4704C132.323 85.8357 132.395 86.1004 132.536 86.2645C132.677 86.4285 132.915 86.5086 133.25 86.5086Z" fill="#9C63F7"/>
<path d="M135.675 87.0589V83.8844H136.352L136.391 84.2535C136.544 84.1547 136.727 84.0652 136.94 83.985C137.153 83.9049 137.362 83.8489 137.569 83.8173V84.3728C137.443 84.3951 137.306 84.4268 137.16 84.4697C137.013 84.5126 136.874 84.5592 136.744 84.6095C136.614 84.6617 136.502 84.7139 136.412 84.7661V87.057H135.675V87.0589Z" fill="#9C63F7"/>
<path d="M138.133 87.0586V82.5438H138.872V85.1554L140.22 83.8822H141.066L139.758 85.161L141.14 87.0567H140.361L139.298 85.5487L138.872 85.9513V87.0567H138.133V87.0586Z" fill="#9C63F7"/>
<path d="M142.984 87.126C142.424 87.126 141.99 86.9899 141.683 86.7178C141.376 86.4456 141.223 86.028 141.223 85.4651C141.223 84.9562 141.353 84.5536 141.615 84.259C141.877 83.9645 142.275 83.8173 142.807 83.8173C143.295 83.8173 143.661 83.944 143.908 84.1957C144.153 84.4473 144.277 84.7735 144.277 85.1706V85.7596H141.926C141.962 86.0672 142.075 86.2797 142.266 86.3953C142.456 86.5108 142.745 86.5686 143.133 86.5686C143.295 86.5686 143.463 86.5537 143.634 86.522C143.806 86.4903 143.955 86.4512 144.081 86.4009V86.9358C143.936 86.9992 143.77 87.0458 143.583 87.0757C143.397 87.1092 143.197 87.126 142.984 87.126ZM141.928 85.2843H143.629V85.0625C143.629 84.8444 143.568 84.6729 143.446 84.5498C143.323 84.4268 143.118 84.3653 142.829 84.3653C142.486 84.3653 142.251 84.4399 142.122 84.5871C141.992 84.7344 141.928 84.9674 141.928 85.2843Z" fill="#9C63F7"/>
<path d="M145.023 87.0589V83.8844H145.7L145.74 84.2535C145.893 84.1547 146.075 84.0652 146.288 83.985C146.501 83.9049 146.711 83.8489 146.918 83.8173V84.3728C146.792 84.3951 146.654 84.4268 146.509 84.4697C146.362 84.5126 146.224 84.5592 146.092 84.6095C145.962 84.6617 145.851 84.7139 145.761 84.7661V87.057H145.023V87.0589Z" fill="#9C63F7"/>
<path d="M36.6145 58.4962H28.0444C27.7673 57.5716 27.2074 56.8856 25.982 56.8856C24.7566 56.8856 24.1232 57.5716 23.8461 58.4962H15.3495C11.2605 58.4962 7.94629 61.7732 7.94629 65.8164V81.7281C7.94629 85.7712 11.2605 89.0483 15.3495 89.0483H19.6496V96.9911C19.6496 98.5718 20.9448 99.8524 22.5434 99.8524H25.1129V94.4503H26.8492V99.8524H29.4187C31.0174 99.8524 32.3125 98.5718 32.3125 96.9911V89.0483H36.6145C40.7035 89.0483 44.0177 85.7712 44.0177 81.7281V65.8164C44.0177 61.7732 40.7035 58.4962 36.6145 58.4962ZM38.6279 83.0553C38.6279 83.4598 38.2943 83.7897 37.8814 83.7897H14.0261C13.6132 83.7897 13.2795 83.4617 13.2795 83.0553V64.56C13.2795 64.1555 13.6132 63.8255 14.0261 63.8255H37.8795C38.2924 63.8255 38.6261 64.1536 38.6261 64.56V83.0553H38.6279Z" fill="url(#paint0_linear_1_3058)"/>
<path d="M13.3135 92.6741V95.4069C13.3135 96.7565 14.4201 97.8525 15.7869 97.8525C17.1536 97.8525 18.2602 96.7583 18.2602 95.4069V90.2303H15.7869C14.4201 90.2285 13.3135 91.3227 13.3135 92.6741Z" fill="url(#paint1_linear_1_3058)"/>
<path d="M36.1527 95.1176H38.9164C40.2812 95.1176 41.3897 94.0234 41.3897 92.672C41.3897 91.3205 40.2831 90.2263 38.9164 90.2263H33.6812V92.672C33.6812 94.0234 34.7878 95.1176 36.1527 95.1176Z" fill="url(#paint2_linear_1_3058)"/>
<path d="M19.5931 75.2859C20.7821 75.2859 21.746 74.3328 21.746 73.1571C21.746 71.9814 20.7821 71.0283 19.5931 71.0283C18.4041 71.0283 17.4402 71.9814 17.4402 73.1571C17.4402 74.3328 18.4041 75.2859 19.5931 75.2859Z" fill="url(#paint3_linear_1_3058)"/>
<path d="M33.8602 70.9426C33.5887 70.7151 33.2343 70.6014 32.878 70.6014C32.6876 70.6014 32.4953 70.635 32.3162 70.7021L32.3143 70.704L31.7883 71.0358L28.4138 73.1608L31.7525 75.3026L32.3143 75.6624L32.3162 75.6643C32.8252 75.8544 33.4417 75.7742 33.8602 75.4219C34.4031 74.9671 34.4879 74.1432 33.9469 73.6865L33.157 73.1813L33.8602 72.7134C34.4012 72.2586 34.4012 71.3974 33.8602 70.9426Z" fill="url(#paint4_linear_1_3058)"/>
<path d="M23.8008 77.6532C23.8008 78.8294 24.7641 79.782 25.9537 79.782C27.1432 79.782 28.1066 78.8294 28.1066 77.6532" fill="url(#paint5_linear_1_3058)"/>
</g>
<path d="M43.5717 12.7089C45.2428 12.7089 46.5976 11.3542 46.5976 9.68306C46.5976 8.01194 45.2428 6.65723 43.5717 6.65723C41.9006 6.65723 40.5459 8.01194 40.5459 9.68306C40.5459 11.3542 41.9006 12.7089 43.5717 12.7089Z" fill="url(#paint6_linear_1_3058)"/>
<path d="M108.022 128.901C108.858 128.901 109.535 128.223 109.535 127.388C109.535 126.552 108.858 125.875 108.022 125.875C107.187 125.875 106.509 126.552 106.509 127.388C106.509 128.223 107.187 128.901 108.022 128.901Z" fill="url(#paint7_linear_1_3058)"/>
<defs>
<linearGradient id="paint0_linear_1_3058" x1="7.94596" y1="78.3687" x2="44.0184" y2="78.3687" gradientUnits="userSpaceOnUse">
<stop stop-color="#07EDD2"/>
<stop offset="0.8034" stop-color="#9569F5"/>
</linearGradient>
<linearGradient id="paint1_linear_1_3058" x1="13.3138" y1="94.0395" x2="18.259" y2="94.0395" gradientUnits="userSpaceOnUse">
<stop stop-color="#45B3E0"/>
<stop offset="1" stop-color="#8F6EF4"/>
</linearGradient>
<linearGradient id="paint2_linear_1_3058" x1="33.681" y1="92.6731" x2="41.3893" y2="92.6731" gradientUnits="userSpaceOnUse">
<stop stop-color="#45B3E0"/>
<stop offset="1" stop-color="#8F6EF4"/>
</linearGradient>
<linearGradient id="paint3_linear_1_3058" x1="17.4396" y1="73.1569" x2="21.7451" y2="73.1569" gradientUnits="userSpaceOnUse">
<stop stop-color="#5A9FE5"/>
<stop offset="0.5542" stop-color="#9C63F7"/>
<stop offset="1" stop-color="#9668F6"/>
</linearGradient>
<linearGradient id="paint4_linear_1_3058" x1="28.4143" y1="73.1829" x2="34.3118" y2="73.1829" gradientUnits="userSpaceOnUse">
<stop stop-color="#5A9FE5"/>
<stop offset="0.5542" stop-color="#9C63F7"/>
<stop offset="1" stop-color="#9668F6"/>
</linearGradient>
<linearGradient id="paint5_linear_1_3058" x1="23.8006" y1="78.7175" x2="28.1062" y2="78.7175" gradientUnits="userSpaceOnUse">
<stop stop-color="#5A9FE5"/>
<stop offset="0.5542" stop-color="#9C63F7"/>
<stop offset="1" stop-color="#9668F6"/>
</linearGradient>
<linearGradient id="paint6_linear_1_3058" x1="40.5451" y1="9.68273" x2="46.5964" y2="9.68273" gradientUnits="userSpaceOnUse">
<stop stop-color="#5A9FE5"/>
<stop offset="0.5542" stop-color="#9C63F7"/>
<stop offset="1" stop-color="#9668F6"/>
</linearGradient>
<linearGradient id="paint7_linear_1_3058" x1="106.509" y1="127.388" x2="109.535" y2="127.388" gradientUnits="userSpaceOnUse">
<stop stop-color="#5A9FE5"/>
<stop offset="0.5542" stop-color="#9C63F7"/>
<stop offset="1" stop-color="#9668F6"/>
</linearGradient>
<clipPath id="clip0_1_3058">
<rect width="139.188" height="42.9668" fill="white" transform="translate(7.86719 56.8856)"/>
</clipPath>
</defs>
</svg>
