<svg width="60" height="60" viewBox="0 0 60 60" fill="none" xmlns="http://www.w3.org/2000/svg">
<path d="M30 60C46.5685 60 60 46.5686 60 30C60 13.4315 46.5685 0 30 0C13.4315 0 0 13.4315 0 30C0 46.5686 13.4315 60 30 60Z" fill="#3F4958"/>
<mask id="mask0_1_988" style="mask-type:luminance" maskUnits="userSpaceOnUse" x="13" y="12" width="34" height="35">
<path d="M43.3333 35V22.5L32.9167 16.6408M27.0833 16.6408L16.6667 22.5V35M19.1667 38.9067L30 45L36.6667 41.25L40.8333 38.9058" stroke="white" stroke-width="2.08333" stroke-linecap="round" stroke-linejoin="round"/>
<path d="M27.5 25.625L25 27.0833V32.9167L27.5 34.375L30 35.8333L32.5 34.375L35 32.9167V27.0833L32.5 25.625L30 24.1667L27.5 25.625Z" fill="white" stroke="white" stroke-width="2.08333" stroke-linecap="round" stroke-linejoin="round"/>
<path d="M30 24.1667V18.3333M35 32.5L40.8333 35.8333M25 32.5L19.1667 35.8333" stroke="white" stroke-width="2.08333" stroke-linecap="round" stroke-linejoin="round"/>
<path d="M30 18.3333C31.3807 18.3333 32.5 17.214 32.5 15.8333C32.5 14.4526 31.3807 13.3333 30 13.3333C28.6193 13.3333 27.5 14.4526 27.5 15.8333C27.5 17.214 28.6193 18.3333 30 18.3333Z" fill="white" stroke="white" stroke-width="2.08333" stroke-linecap="round" stroke-linejoin="round"/>
<path d="M16.6667 40C18.0474 40 19.1667 38.8807 19.1667 37.5C19.1667 36.1193 18.0474 35 16.6667 35C15.2859 35 14.1667 36.1193 14.1667 37.5C14.1667 38.8807 15.2859 40 16.6667 40Z" fill="white" stroke="white" stroke-width="2.08333" stroke-linecap="round" stroke-linejoin="round"/>
<path d="M43.3333 40C44.714 40 45.8333 38.8807 45.8333 37.5C45.8333 36.1193 44.714 35 43.3333 35C41.9526 35 40.8333 36.1193 40.8333 37.5C40.8333 38.8807 41.9526 40 43.3333 40Z" fill="white" stroke="white" stroke-width="2.08333" stroke-linecap="round" stroke-linejoin="round"/>
</mask>
<g mask="url(#mask0_1_988)">
<path d="M10 10H50V50H10V10Z" fill="url(#paint0_linear_1_988)"/>
</g>
<defs>
<linearGradient id="paint0_linear_1_988" x1="9.99963" y1="30.0093" x2="26.0341" y2="30.0093" gradientUnits="userSpaceOnUse">
<stop stop-color="#45B3E0"/>
<stop offset="1" stop-color="#8F6EF4"/>
</linearGradient>
</defs>
</svg>
