<svg width="60" height="60" viewBox="0 0 60 60" fill="none" xmlns="http://www.w3.org/2000/svg">
<path d="M30.0002 60C46.5688 60 60.0002 46.5686 60.0002 30C60.0002 13.4315 46.5688 0 30.0002 0C13.4317 0 0.000244141 13.4315 0.000244141 30C0.000244141 46.5686 13.4317 60 30.0002 60Z" fill="#3F4958"/>
<path d="M15.0002 43C14.528 43 14.1319 42.84 13.8119 42.52C13.4919 42.2 13.3325 41.8044 13.3336 41.3333C13.3336 40.8611 13.4936 40.465 13.8136 40.145C14.1336 39.825 14.5291 39.6656 15.0002 39.6667H45.0002C45.4725 39.6667 45.8686 39.8267 46.1886 40.1467C46.5086 40.4667 46.668 40.8622 46.6669 41.3333C46.6669 41.8056 46.5069 42.2017 46.1869 42.5217C45.8669 42.8417 45.4714 43.0011 45.0002 43H15.0002ZM17.5002 38C16.8058 38 16.2152 37.7567 15.7286 37.27C15.2419 36.7833 14.9991 36.1933 15.0002 35.5V28.8333C15.0002 28.1389 15.2436 27.5483 15.7302 27.0617C16.2169 26.575 16.8069 26.3322 17.5002 26.3333C18.1947 26.3333 18.7852 26.5767 19.2719 27.0633C19.7586 27.55 20.0014 28.14 20.0002 28.8333V35.5C20.0002 36.1944 19.7569 36.785 19.2702 37.2717C18.7836 37.7583 18.1936 38.0011 17.5002 38ZM25.8336 38C25.1391 38 24.5486 37.7567 24.0619 37.27C23.5752 36.7833 23.3325 36.1933 23.3336 35.5V20.5C23.3336 19.8056 23.5769 19.215 24.0636 18.7283C24.5502 18.2417 25.1402 17.9989 25.8336 18C26.528 18 27.1186 18.2433 27.6052 18.73C28.0919 19.2167 28.3347 19.8067 28.3336 20.5V35.5C28.3336 36.1944 28.0902 36.785 27.6036 37.2717C27.1169 37.7583 26.5269 38.0011 25.8336 38ZM34.1669 38C33.4725 38 32.8819 37.7567 32.3952 37.27C31.9086 36.7833 31.6658 36.1933 31.6669 35.5V25.5C31.6669 24.8056 31.9102 24.215 32.3969 23.7283C32.8836 23.2417 33.4736 22.9989 34.1669 23C34.8614 23 35.4519 23.2433 35.9386 23.73C36.4252 24.2167 36.668 24.8067 36.6669 25.5V35.5C36.6669 36.1944 36.4236 36.785 35.9369 37.2717C35.4502 37.7583 34.8602 38.0011 34.1669 38ZM42.5002 38C41.8058 38 41.2152 37.7567 40.7286 37.27C40.2419 36.7833 39.9991 36.1933 40.0002 35.5V15.5C40.0002 14.8056 40.2436 14.215 40.7302 13.7283C41.2169 13.2417 41.8069 12.9989 42.5002 13C43.1947 13 43.7852 13.2433 44.2719 13.73C44.7586 14.2167 45.0014 14.8067 45.0002 15.5V35.5C45.0002 36.1944 44.7569 36.785 44.2702 37.2717C43.7836 37.7583 43.1936 38.0011 42.5002 38Z" fill="url(#paint0_linear_1_977)"/>
<defs>
<linearGradient id="paint0_linear_1_977" x1="13.3333" y1="28.007" x2="26.6953" y2="28.007" gradientUnits="userSpaceOnUse">
<stop stop-color="#45B3E0"/>
<stop offset="1" stop-color="#8F6EF4"/>
</linearGradient>
</defs>
</svg>
