<svg width="60" height="60" viewBox="0 0 60 60" fill="none" xmlns="http://www.w3.org/2000/svg">
<path d="M30.0002 60C46.5688 60 60.0002 46.5686 60.0002 30C60.0002 13.4315 46.5688 0 30.0002 0C13.4317 0 0.000244141 13.4315 0.000244141 30C0.000244141 46.5686 13.4317 60 30.0002 60Z" fill="#3F4958"/>
<path d="M45.0002 28.3333C45.0002 37.5833 38.6002 46.2333 30.0002 48.3333C21.4002 46.2333 15.0002 37.5833 15.0002 28.3333V18.3333L30.0002 11.6667L45.0002 18.3333V28.3333ZM30.0002 45C36.2502 43.3333 41.6669 35.9 41.6669 28.7V20.5L30.0002 15.3L18.3336 20.5V28.7C18.3336 35.9 23.7502 43.3333 30.0002 45ZM34.6669 28.3333V25.8333C34.6669 23.5 32.3336 21.6667 30.0002 21.6667C27.6669 21.6667 25.3336 23.5 25.3336 25.8333V28.3333C24.3336 28.3333 23.3336 29.3333 23.3336 30.3333V36.1667C23.3336 37.3333 24.3336 38.3333 25.3336 38.3333H34.5002C35.6669 38.3333 36.6669 37.3333 36.6669 36.3333V30.5C36.6669 29.3333 35.6669 28.3333 34.6669 28.3333ZM32.5002 28.3333H27.5002V25.8333C27.5002 24.5 28.6669 23.6667 30.0002 23.6667C31.3336 23.6667 32.5002 24.5 32.5002 25.8333V28.3333Z" fill="url(#paint0_linear_1_955)"/>
<defs>
<linearGradient id="paint0_linear_1_955" x1="15" y1="30.0086" x2="27.0258" y2="30.0086" gradientUnits="userSpaceOnUse">
<stop stop-color="#45B3E0"/>
<stop offset="1" stop-color="#8F6EF4"/>
</linearGradient>
</defs>
</svg>
