<svg width="60" height="60" viewBox="0 0 60 60" fill="none" xmlns="http://www.w3.org/2000/svg">
<path d="M30.0002 60C46.5688 60 60.0002 46.5686 60.0002 30C60.0002 13.4315 46.5688 0 30.0002 0C13.4317 0 0.000244141 13.4315 0.000244141 30C0.000244141 46.5686 13.4317 60 30.0002 60Z" fill="#3F4958"/>
<path d="M43.9836 24.2667L41.9169 27.3667C42.9055 29.3385 43.3895 31.5247 43.3255 33.7295C43.2615 35.9344 42.6516 38.0889 41.5502 40H18.4502C17.0189 37.5168 16.4257 34.6385 16.7588 31.7918C17.0919 28.945 18.3334 26.2814 20.2994 24.1957C22.2653 22.1101 24.851 20.7134 27.6731 20.2128C30.4953 19.7123 33.4036 20.1344 35.9669 21.4167L39.0669 19.35C35.7828 17.2215 31.8544 16.3166 27.9701 16.7938C24.0858 17.271 20.4933 19.0998 17.822 21.9599C15.1507 24.82 13.5711 28.5289 13.3599 32.4367C13.1487 36.3445 14.3194 40.202 16.6669 43.3333H43.3336C45.3779 40.6021 46.5348 37.3093 46.648 33.8996C46.7613 30.4899 45.8255 27.1276 43.9669 24.2667H43.9836Z" fill="url(#paint0_linear_1_1008)"/>
<path d="M27.6502 35.6833C27.9598 35.9932 28.3275 36.2391 28.7321 36.4069C29.1368 36.5746 29.5705 36.6609 30.0086 36.6609C30.4466 36.6609 30.8804 36.5746 31.285 36.4069C31.6897 36.2391 32.0573 35.9932 32.3669 35.6833L41.8002 21.5333L27.6502 30.9667C27.3403 31.2762 27.0945 31.6439 26.9267 32.0485C26.759 32.4532 26.6726 32.8869 26.6726 33.325C26.6726 33.763 26.759 34.1968 26.9267 34.6015C27.0945 35.0061 27.3403 35.3737 27.6502 35.6833Z" fill="url(#paint1_linear_1_1008)"/>
<defs>
<linearGradient id="paint0_linear_1_1008" x1="13.3353" y1="30.0076" x2="26.6927" y2="30.0076" gradientUnits="userSpaceOnUse">
<stop stop-color="#45B3E0"/>
<stop offset="1" stop-color="#8F6EF4"/>
</linearGradient>
<linearGradient id="paint1_linear_1_1008" x1="26.6725" y1="29.1007" x2="32.7366" y2="29.1007" gradientUnits="userSpaceOnUse">
<stop stop-color="#45B3E0"/>
<stop offset="1" stop-color="#8F6EF4"/>
</linearGradient>
</defs>
</svg>
