<svg width="60" height="60" viewBox="0 0 60 60" fill="none" xmlns="http://www.w3.org/2000/svg">
<path d="M30 60C46.5685 60 60 46.5686 60 30C60 13.4315 46.5685 0 30 0C13.4315 0 0 13.4315 0 30C0 46.5686 13.4315 60 30 60Z" fill="#3F4958"/>
<g clip-path="url(#clip0_1_1020)">
<path d="M29.5 23.6667L25.125 26.2188V31.3229L29.5 33.875L33.875 31.3229V26.2188L29.5 23.6667ZM31.7123 26.6417L29.481 27.9425L27.2688 26.6519L29.5 25.351L31.7123 26.6417ZM26.5688 27.9279L28.7329 29.1908V31.7429L26.5688 30.4815V27.9279ZM30.1767 31.7969V29.22L32.4313 27.9046V30.4815L30.1767 31.7969ZM16.375 12L12 14.5521V19.6562L16.375 22.2083L20.75 19.6562V14.5521L16.375 12ZM18.5873 14.975L16.356 16.2758L14.1438 14.9852L16.375 13.6844L18.5873 14.975ZM13.4438 16.2598L15.6079 17.5227V20.0748L13.4438 18.8162V16.2598ZM17.0517 20.1287V17.5533L19.3063 16.2379V18.8148L17.0517 20.1287ZM16.375 36.7917L12 39.3438V44.4479L16.375 47L20.75 44.4479V39.3438L16.375 36.7917ZM18.5873 39.7667L16.356 41.0675L14.1438 39.7769L16.375 38.476L18.5873 39.7667ZM13.4438 41.0529L15.6079 42.3158V44.8679L13.4438 43.6079V41.0529ZM17.0517 44.9219V42.345L19.3063 41.0296V43.6065L17.0517 44.9219ZM42.625 12L38.25 14.5521V19.6562L42.625 22.2083L47 19.6562V14.5521L42.625 12ZM44.8373 14.975L42.606 16.2758L40.3937 14.9852L42.625 13.6844L44.8373 14.975ZM39.6938 16.2613L41.8579 17.5242V20.0763L39.6938 18.8148V16.2613ZM43.3017 20.1302V17.5533L45.5563 16.2379V18.8148L43.3017 20.1302ZM42.625 36.7917L38.25 39.3438V44.4479L42.625 47L47 44.4479V39.3438L42.625 36.7917ZM44.8373 39.7667L42.606 41.0675L40.3937 39.7769L42.625 38.476L44.8373 39.7667ZM39.6938 41.0529L41.8579 42.3158V44.8679L39.6938 43.6065V41.0529ZM43.3017 44.9219V42.345L45.5563 41.0296V43.6065L43.3017 44.9219ZM25.125 16.375H33.875V17.8333H25.125V16.375ZM25.125 41.1667H33.875V42.625H25.125V41.1667ZM17.1042 25.125V33.875H15.6458V25.125H17.1042ZM22.6356 24.8742L19.5425 21.781L20.5735 20.75L23.6667 23.8417L22.6356 24.8742ZM35.3333 24.094L38.4265 21.0008L39.4575 22.0319L36.3644 25.125L35.3333 24.094ZM23.8533 33.6985L20.7602 36.7917L19.7292 35.7606L22.8223 32.6675L23.8533 33.6985ZM36.6152 32.6048L39.7083 35.6979L38.6773 36.729L35.5842 33.6358L36.6152 32.6048ZM43.3542 25.125V33.875H41.8958V25.125H43.3542Z" fill="url(#paint0_linear_1_1020)"/>
</g>
<defs>
<linearGradient id="paint0_linear_1_1020" x1="11.9997" y1="29.5082" x2="26.0299" y2="29.5082" gradientUnits="userSpaceOnUse">
<stop stop-color="#45B3E0"/>
<stop offset="1" stop-color="#8F6EF4"/>
</linearGradient>
<clipPath id="clip0_1_1020">
<rect width="35" height="35" fill="white" transform="translate(12 12)"/>
</clipPath>
</defs>
</svg>
