<svg width="240" height="75" viewBox="0 0 240 75" fill="none" xmlns="http://www.w3.org/2000/svg">
<g clip-path="url(#clip0_1_1739)">
<path d="M150.588 41.0954C152.289 41.0954 153.67 39.7158 153.67 38.0108C153.67 36.3091 152.292 34.9262 150.588 34.9262C148.888 34.9262 147.507 36.3058 147.507 38.0108C147.507 39.7125 148.885 41.0954 150.588 41.0954Z" fill="#9C63F7"/>
<path d="M106.074 41.0954C107.774 41.0954 109.156 39.7158 109.156 38.0108C109.156 36.3091 107.778 34.9262 106.074 34.9262C104.374 34.9262 102.993 36.3058 102.993 38.0108C102.993 39.7125 104.371 41.0954 106.074 41.0954Z" fill="#9C63F7"/>
<path d="M171.458 41.0954C173.158 41.0954 174.539 39.7158 174.539 38.0108C174.539 36.3091 173.161 34.9262 171.458 34.9262C169.758 34.9262 168.376 36.3058 168.376 38.0108C168.376 39.7125 169.754 41.0954 171.458 41.0954Z" fill="#9C63F7"/>
<path d="M73.5454 41.2581V11.3004H86.9282C89.9968 11.3004 92.6136 11.8048 94.7817 12.8134C96.9499 13.8221 98.6077 15.436 99.7552 17.6518C100.903 19.8677 101.475 22.8091 101.475 26.4664C101.475 31.6139 100.22 35.3687 97.7105 37.7245C95.2011 40.0835 91.6059 41.2614 86.9282 41.2614H73.5454V41.2581ZM82.2831 34.5585H85.8165C87.2728 34.5585 88.495 34.3503 89.4865 33.9306C90.4779 33.5108 91.2353 32.7202 91.7651 31.5585C92.2917 30.3969 92.5551 28.6985 92.5551 26.4664C92.5551 24.2343 92.3145 22.5065 91.8334 21.2798C91.3523 20.0564 90.6177 19.2039 89.6262 18.7223C88.6348 18.2408 87.3638 18 85.8165 18H82.2831V34.5585Z" fill="#9C63F7"/>
<path d="M112.26 41.2581L123.738 11.3004H132.986L144.464 41.2581H135.356L132.846 34.8839H123.829L121.365 41.2581H112.26ZM124.993 28.6041H131.686L128.341 19.8123L124.993 28.6041Z" fill="#9C63F7"/>
<path d="M156.703 41.2581V11.3004H165.44V41.2581H156.703Z" fill="#9C63F7"/>
<path d="M183.621 41.2581L176.648 11.3004H185.201L188.594 27.1627L191.894 15.8134V11.3004H199.052L203.606 27.2082L207.185 11.3004H215.737L208.813 41.2581H200.914L196.406 25.7668L191.52 41.2581H183.621Z" fill="#9C63F7"/>
<path d="M227.034 40.9783C222.632 40.9783 219.388 40.0021 217.298 38.0466C215.208 36.0943 214.161 33.2407 214.161 29.4859C214.161 25.7635 215.214 22.9197 217.321 20.9512C219.427 18.9826 222.665 17.9967 227.034 17.9967C231.432 17.9967 234.692 18.9826 236.815 20.9512C238.937 22.9197 239.997 25.7668 239.997 29.4859C239.997 33.2375 238.944 36.0911 236.837 38.0466C234.731 40.0021 231.464 40.9783 227.034 40.9783ZM227.034 34.6041C228.457 34.6041 229.488 34.2006 230.125 33.3937C230.759 32.5867 231.077 31.2852 231.077 29.4859C231.077 27.719 230.759 26.424 230.125 25.6008C229.491 24.7809 228.461 24.3676 227.034 24.3676C225.639 24.3676 224.631 24.7776 224.014 25.6008C223.393 26.424 223.084 27.7158 223.084 29.4859C223.084 31.2852 223.393 32.5867 224.014 33.3937C224.631 34.2039 225.639 34.6041 227.034 34.6041Z" fill="#9C63F7"/>
<path d="M77.4236 52.6692V49.8742L74.7256 45.1399H76.0453L78.0542 48.8004L80.0631 45.1399H81.3829L78.6848 49.8742V52.6692H77.4236Z" fill="#9C63F7"/>
<path d="M84.2078 52.7863C83.2099 52.7863 82.4818 52.5358 82.0169 52.0379C81.5521 51.5401 81.3213 50.8275 81.3213 49.8969C81.3213 48.9696 81.5553 48.257 82.0234 47.7559C82.4915 47.2581 83.2197 47.0076 84.2078 47.0076C85.2058 47.0076 85.9372 47.2581 86.402 47.7559C86.8701 48.2538 87.1042 48.9664 87.1042 49.8969C87.1042 50.8243 86.8734 51.5369 86.4085 52.0379C85.9469 52.5358 85.2123 52.7863 84.2078 52.7863ZM84.2078 51.7093C84.793 51.7093 85.2058 51.5661 85.4528 51.2831C85.6966 51 85.8202 50.5379 85.8202 49.8969C85.8202 49.2592 85.6966 48.7972 85.4528 48.5173C85.209 48.2375 84.793 48.0976 84.2078 48.0976C83.6325 48.0976 83.2197 48.2375 82.9759 48.5173C82.7321 48.7972 82.6085 49.2592 82.6085 49.8969C82.6085 50.5347 82.7321 50.9967 82.9759 51.2831C83.2229 51.5694 83.6325 51.7093 84.2078 51.7093Z" fill="#9C63F7"/>
<path d="M90.3869 52.7863C89.7238 52.7863 89.2167 52.6041 88.8624 52.2364C88.5081 51.8687 88.3325 51.3319 88.3325 50.6225V47.1279H89.6068V50.6225C89.6068 51.0358 89.7075 51.3416 89.9123 51.5336C90.1139 51.7288 90.4259 51.8264 90.8453 51.8264C91.1573 51.8264 91.4434 51.7679 91.7099 51.6507C91.9732 51.5336 92.204 51.3774 92.3991 51.1822V47.1247H93.6603V52.6659H92.5031L92.4446 52.0932C92.1943 52.2885 91.8985 52.4512 91.5571 52.5846C91.2126 52.7212 90.8225 52.7863 90.3869 52.7863Z" fill="#9C63F7"/>
<path d="M95.1885 52.6692V47.1279H96.3554L96.4237 47.7722C96.687 47.5997 97.0023 47.4436 97.3696 47.3036C97.737 47.1637 98.0978 47.0661 98.4554 47.0108V47.9804C98.2376 48.0195 98.0003 48.0748 97.75 48.1496C97.4964 48.2245 97.2559 48.3058 97.0316 48.3937C96.8073 48.4848 96.6155 48.5759 96.4595 48.667V52.6659H95.1885V52.6692Z" fill="#9C63F7"/>
<path d="M102.161 55.1941V47.1279H103.259L103.331 47.6778C103.581 47.4533 103.851 47.2841 104.147 47.1735C104.443 47.0661 104.794 47.0108 105.197 47.0108C105.99 47.0108 106.611 47.2288 107.053 47.6583C107.495 48.0911 107.719 48.8069 107.719 49.8026C107.719 50.7982 107.488 51.5466 107.03 52.0412C106.572 52.5357 105.944 52.783 105.148 52.783C104.478 52.783 103.906 52.6269 103.432 52.3145V55.1908H102.161V55.1941ZM104.823 51.8264C105.899 51.8264 106.435 51.1496 106.435 49.7928C106.435 49.1388 106.315 48.6735 106.074 48.3969C105.834 48.1203 105.428 47.9804 104.859 47.9804C104.29 47.9804 103.815 48.1757 103.435 48.5661V51.3384C103.614 51.488 103.815 51.6052 104.036 51.693C104.257 51.7841 104.521 51.8264 104.823 51.8264Z" fill="#9C63F7"/>
<path d="M111.809 52.7863C110.843 52.7863 110.095 52.5488 109.566 52.0737C109.036 51.5987 108.772 50.8698 108.772 49.8872C108.772 48.9989 108.997 48.2961 109.449 47.782C109.9 47.2679 110.586 47.0108 111.503 47.0108C112.345 47.0108 112.976 47.2321 113.401 47.6713C113.824 48.1106 114.038 48.68 114.038 49.3731V50.4013H109.985C110.047 50.9381 110.242 51.3091 110.57 51.5108C110.898 51.7125 111.396 51.8134 112.065 51.8134C112.345 51.8134 112.634 51.7874 112.93 51.7321C113.226 51.6767 113.483 51.6084 113.7 51.5206V52.4544C113.45 52.565 113.164 52.6464 112.842 52.6984C112.52 52.757 112.176 52.7863 111.809 52.7863ZM109.988 49.5715H112.92V49.1843C112.92 48.8036 112.816 48.5043 112.605 48.2895C112.394 48.0748 112.039 47.9674 111.542 47.9674C110.95 47.9674 110.544 48.0976 110.323 48.3546C110.099 48.6117 109.988 49.0184 109.988 49.5715Z" fill="#9C63F7"/>
<path d="M115.326 52.6692V47.1279H116.493L116.561 47.7722C116.824 47.5997 117.14 47.4436 117.507 47.3036C117.874 47.1637 118.235 47.0661 118.593 47.0108V47.9804C118.375 48.0195 118.137 48.0748 117.887 48.1496C117.634 48.2245 117.393 48.3058 117.169 48.3937C116.944 48.4848 116.753 48.5759 116.597 48.667V52.6659H115.326V52.6692Z" fill="#9C63F7"/>
<path d="M121.353 52.7863C120.972 52.7863 120.608 52.7603 120.26 52.7049C119.913 52.6496 119.627 52.5846 119.402 52.5065V51.4295C119.666 51.5303 119.958 51.6084 120.28 51.6637C120.599 51.719 120.904 51.7451 121.19 51.7451C121.626 51.7451 121.938 51.706 122.123 51.6279C122.312 51.5498 122.403 51.3969 122.403 51.1724C122.403 51.0097 122.347 50.8796 122.234 50.7852C122.12 50.6908 121.954 50.6062 121.73 50.5282C121.509 50.4501 121.226 50.3557 120.881 50.2483C120.553 50.141 120.27 50.0206 120.03 49.8937C119.789 49.7635 119.601 49.6008 119.467 49.3958C119.334 49.1941 119.269 48.9273 119.269 48.6019C119.269 48.0943 119.451 47.7039 119.818 47.4273C120.186 47.1507 120.771 47.0108 121.583 47.0108C121.902 47.0108 122.208 47.0336 122.494 47.0824C122.783 47.1279 123.027 47.1865 123.228 47.2581V48.3221C123.011 48.2375 122.77 48.1692 122.51 48.1236C122.25 48.078 122.006 48.0553 121.782 48.0553C121.375 48.0553 121.07 48.0911 120.865 48.1594C120.66 48.2277 120.556 48.3709 120.556 48.5791C120.556 48.7971 120.664 48.9501 120.878 49.0412C121.093 49.1323 121.437 49.2527 121.912 49.4088C122.347 49.5423 122.695 49.6822 122.952 49.8286C123.209 49.9783 123.394 50.154 123.508 50.359C123.622 50.5639 123.677 50.834 123.677 51.1594C123.677 51.706 123.479 52.1128 123.082 52.3828C122.682 52.6529 122.107 52.7863 121.353 52.7863Z" fill="#9C63F7"/>
<path d="M127.451 52.7863C126.453 52.7863 125.724 52.5358 125.26 52.0379C124.795 51.5401 124.564 50.8275 124.564 49.8969C124.564 48.9696 124.798 48.257 125.266 47.7559C125.734 47.2581 126.462 47.0076 127.451 47.0076C128.448 47.0076 129.18 47.2581 129.645 47.7559C130.113 48.2538 130.347 48.9664 130.347 49.8969C130.347 50.8243 130.116 51.5369 129.651 52.0379C129.186 52.5358 128.455 52.7863 127.451 52.7863ZM127.451 51.7093C128.036 51.7093 128.448 51.5661 128.696 51.2831C128.939 51 129.063 50.5379 129.063 49.8969C129.063 49.2592 128.939 48.7972 128.696 48.5173C128.452 48.2375 128.036 48.0976 127.451 48.0976C126.875 48.0976 126.462 48.2375 126.219 48.5173C125.975 48.7972 125.851 49.2592 125.851 49.8969C125.851 50.5347 125.975 50.9967 126.219 51.2831C126.462 51.5694 126.872 51.7093 127.451 51.7093Z" fill="#9C63F7"/>
<path d="M131.631 52.6692V47.1279H132.798L132.856 47.7136C133.107 47.5184 133.402 47.3524 133.75 47.2158C134.098 47.0791 134.482 47.0108 134.901 47.0108C135.616 47.0108 136.139 47.18 136.465 47.5151C136.79 47.8503 136.955 48.3741 136.955 49.0802V52.6692H135.694V49.1388C135.694 48.7093 135.606 48.4099 135.431 48.2375C135.255 48.065 134.927 47.9804 134.443 47.9804C134.153 47.9804 133.871 48.039 133.594 48.1561C133.318 48.2733 133.087 48.4262 132.899 48.6117V52.6692H131.631Z" fill="#9C63F7"/>
<path d="M139.982 52.7863C139.631 52.7863 139.306 52.7245 139.007 52.5976C138.708 52.474 138.467 52.2852 138.288 52.0314C138.11 51.7776 138.019 51.4653 138.019 51.0911C138.019 50.5607 138.201 50.1345 138.561 49.8123C138.922 49.487 139.481 49.3275 140.239 49.3275H142.014V49.0835C142.014 48.8199 141.971 48.6084 141.89 48.4523C141.809 48.2961 141.659 48.1822 141.445 48.1139C141.23 48.0423 140.918 48.0097 140.505 48.0097C139.852 48.0097 139.241 48.1074 138.672 48.3026V47.3557C138.922 47.2549 139.225 47.1735 139.582 47.1117C139.94 47.0499 140.327 47.0173 140.739 47.0173C141.549 47.0173 142.166 47.18 142.592 47.5087C143.015 47.8373 143.229 48.3709 143.229 49.1095V52.6757H142.144L142.062 52.1128C141.835 52.3308 141.558 52.5 141.227 52.6171C140.895 52.7277 140.479 52.7863 139.982 52.7863ZM140.32 51.8753C140.7 51.8753 141.035 51.8102 141.318 51.6833C141.601 51.5531 141.835 51.3807 142.014 51.1627V50.193H140.261C139.888 50.193 139.618 50.2646 139.449 50.411C139.28 50.5542 139.199 50.7755 139.199 51.0716C139.199 51.3612 139.296 51.5661 139.491 51.6898C139.686 51.8134 139.962 51.8753 140.32 51.8753Z" fill="#9C63F7"/>
<path d="M146.067 52.7863C145.615 52.7863 145.274 52.6756 145.04 52.4544C144.806 52.2331 144.689 51.8654 144.689 51.3513V44.7917H145.963V51.2342C145.963 51.4522 146.002 51.6019 146.08 51.6767C146.158 51.7548 146.275 51.7939 146.431 51.7939C146.62 51.7939 146.799 51.7711 146.968 51.7255V52.6496C146.818 52.7049 146.678 52.7407 146.542 52.7602C146.405 52.7765 146.246 52.7863 146.067 52.7863Z" fill="#9C63F7"/>
<path d="M153.03 52.7863C152.532 52.7863 152.09 52.7017 151.71 52.5292C151.33 52.3568 151.034 52.0737 150.823 51.6767C150.611 51.2798 150.507 50.7462 150.507 50.0759C150.507 49.4121 150.621 48.8524 150.845 48.3969C151.07 47.9414 151.385 47.5965 151.785 47.3622C152.185 47.1279 152.64 47.0108 153.147 47.0108C153.482 47.0108 153.781 47.0498 154.041 47.1279C154.301 47.206 154.551 47.3264 154.795 47.4891V44.7885H156.069V52.6691H154.983L154.902 52.1193C154.652 52.3438 154.379 52.513 154.083 52.6203C153.784 52.731 153.433 52.7863 153.03 52.7863ZM153.368 51.8264C153.937 51.8264 154.411 51.6312 154.792 51.2407V48.4685C154.424 48.1399 153.966 47.9772 153.413 47.9772C152.877 47.9772 152.471 48.1561 152.198 48.514C151.925 48.872 151.788 49.3958 151.788 50.0791C151.788 50.7429 151.915 51.1984 152.168 51.4457C152.422 51.7028 152.822 51.8264 153.368 51.8264Z" fill="#9C63F7"/>
<path d="M158.156 52.6691V48.0975H157.314L157.431 47.1279H159.427V52.6691H158.156ZM158.052 45.9696V44.9186H159.443V45.9696H158.052Z" fill="#9C63F7"/>
<path d="M163.201 54.7256C162.788 54.7256 162.376 54.6995 161.963 54.6507C161.55 54.5987 161.199 54.5238 160.913 54.423V53.4403C161.225 53.5412 161.582 53.6193 161.986 53.6746C162.392 53.7299 162.775 53.7559 163.143 53.7559C163.705 53.7559 164.111 53.7234 164.368 53.6616C164.625 53.5998 164.755 53.4598 164.755 53.2418C164.755 53.0792 164.693 52.962 164.567 52.8969C164.443 52.8319 164.206 52.7961 163.855 52.7961H162.359C161.355 52.7961 160.851 52.4414 160.851 51.7321C160.851 51.5076 160.916 51.2961 161.049 51.1008C161.183 50.9056 161.391 50.7592 161.68 50.6551C161.361 50.4989 161.124 50.2841 160.975 50.0108C160.822 49.7375 160.747 49.4121 160.747 49.0282C160.747 48.3189 160.958 47.8048 161.384 47.4859C161.807 47.167 162.444 47.0076 163.292 47.0076C163.471 47.0076 163.66 47.0206 163.855 47.0499C164.05 47.0759 164.202 47.1019 164.31 47.1247H166.341L166.306 47.9544H165.369C165.519 48.0781 165.626 48.2342 165.698 48.423C165.769 48.6117 165.802 48.8134 165.802 49.0314C165.802 49.6236 165.623 50.0889 165.265 50.4273C164.908 50.7657 164.365 50.9349 163.643 50.9349C163.52 50.9349 163.403 50.9284 163.299 50.9186C163.195 50.9056 163.078 50.8926 162.954 50.8763C162.72 50.8991 162.512 50.9609 162.324 51.0651C162.135 51.1659 162.044 51.3026 162.044 51.475C162.044 51.5922 162.09 51.6768 162.184 51.7256C162.278 51.7744 162.434 51.8004 162.652 51.8004H164.206C164.758 51.8004 165.184 51.9175 165.483 52.1583C165.782 52.3959 165.932 52.7408 165.932 53.193C165.932 53.7397 165.695 54.1301 165.226 54.3677C164.758 54.6084 164.082 54.7256 163.201 54.7256ZM163.296 50.1312C163.803 50.1312 164.154 50.0466 164.352 49.8742C164.55 49.7017 164.651 49.4121 164.651 48.9989C164.651 48.5857 164.55 48.2863 164.352 48.0976C164.154 47.9089 163.799 47.8178 163.296 47.8178C162.821 47.8178 162.473 47.9089 162.255 48.0878C162.038 48.2668 161.927 48.5726 161.927 48.9989C161.927 49.3959 162.031 49.6854 162.236 49.8644C162.444 50.0434 162.798 50.1312 163.296 50.1312Z" fill="#9C63F7"/>
<path d="M167.758 52.6691V48.0975H166.917L167.034 47.1279H169.029V52.6691H167.758ZM167.654 45.9696V44.9186H169.046V45.9696H167.654Z" fill="#9C63F7"/>
<path d="M172.673 52.7863C172.082 52.7863 171.64 52.6301 171.347 52.3113C171.054 51.9956 170.908 51.5661 170.908 51.0195V48.1204H170.092V47.128H170.908V45.8525L172.169 45.4653V47.1247H173.642L173.561 48.1171H172.169V50.9479C172.169 51.2668 172.244 51.4913 172.39 51.6215C172.54 51.7484 172.781 51.8134 173.115 51.8134C173.327 51.8134 173.548 51.7744 173.782 51.6963V52.5976C173.479 52.7245 173.112 52.7863 172.673 52.7863Z" fill="#9C63F7"/>
<path d="M176.529 52.7863C176.178 52.7863 175.853 52.7245 175.554 52.5976C175.255 52.474 175.014 52.2852 174.835 52.0314C174.656 51.7776 174.565 51.4653 174.565 51.0911C174.565 50.5607 174.747 50.1345 175.108 49.8123C175.469 49.487 176.028 49.3275 176.786 49.3275H178.56V49.0835C178.56 48.8199 178.518 48.6084 178.437 48.4523C178.356 48.2961 178.206 48.1822 177.992 48.1139C177.777 48.0423 177.465 48.0097 177.052 48.0097C176.399 48.0097 175.788 48.1074 175.219 48.3026V47.3557C175.469 47.2549 175.771 47.1735 176.129 47.1117C176.487 47.0499 176.873 47.0173 177.286 47.0173C178.096 47.0173 178.713 47.18 179.139 47.5087C179.562 47.8373 179.776 48.3709 179.776 49.1095V52.6757H178.69L178.609 52.1128C178.382 52.3308 178.105 52.5 177.774 52.6171C177.442 52.7277 177.026 52.7863 176.529 52.7863ZM176.867 51.8753C177.247 51.8753 177.582 51.8102 177.865 51.6833C178.148 51.5531 178.382 51.3807 178.56 51.1627V50.193H176.808C176.435 50.193 176.165 50.2646 175.996 50.411C175.827 50.5542 175.745 50.7755 175.745 51.0716C175.745 51.3612 175.843 51.5661 176.038 51.6898C176.233 51.8134 176.509 51.8753 176.867 51.8753Z" fill="#9C63F7"/>
<path d="M182.614 52.7863C182.162 52.7863 181.82 52.6756 181.586 52.4544C181.352 52.2331 181.235 51.8654 181.235 51.3513V44.7917H182.51V51.2342C182.51 51.4522 182.549 51.6019 182.627 51.6767C182.705 51.7548 182.822 51.7939 182.978 51.7939C183.166 51.7939 183.345 51.7711 183.514 51.7255V52.6496C183.365 52.7049 183.225 52.7407 183.088 52.7602C182.952 52.7765 182.792 52.7863 182.614 52.7863Z" fill="#9C63F7"/>
<path d="M187.064 52.6692L189.938 45.1399H191.361L194.212 52.6692H192.905L192.158 50.7299H189.131L188.384 52.6692H187.064ZM189.33 49.7473H191.946L190.64 46.2982L189.33 49.7473Z" fill="#9C63F7"/>
<path d="M195.275 52.6692V51.6768H196.351V52.6692H195.275Z" fill="#9C63F7"/>
<path d="M197.648 52.6692V45.1399H198.922V52.6692H197.648Z" fill="#9C63F7"/>
<path d="M200.206 52.6692V51.6768H201.282V52.6692H200.206Z" fill="#9C63F7"/>
<path d="M206.535 52.6691L205.076 47.1279H206.35L207.309 51.1626L208.395 47.808V47.1312H209.363L210.566 51.1659L211.525 47.1312H212.786L211.336 52.6724H210.134L208.954 49.0477L207.751 52.6724H206.535V52.6691Z" fill="#9C63F7"/>
<path d="M216.196 52.7863C215.198 52.7863 214.47 52.5358 214.005 52.0379C213.54 51.5401 213.31 50.8275 213.31 49.8969C213.31 48.9696 213.544 48.257 214.012 47.7559C214.48 47.2581 215.208 47.0076 216.196 47.0076C217.194 47.0076 217.925 47.2581 218.39 47.7559C218.858 48.2538 219.092 48.9664 219.092 49.8969C219.092 50.8243 218.862 51.5369 218.397 52.0379C217.935 52.5358 217.201 52.7863 216.196 52.7863ZM216.196 51.7093C216.781 51.7093 217.194 51.5661 217.441 51.2831C217.685 51 217.808 50.5379 217.808 49.8969C217.808 49.2592 217.685 48.7972 217.441 48.5173C217.197 48.2375 216.781 48.0976 216.196 48.0976C215.621 48.0976 215.208 48.2375 214.964 48.5173C214.72 48.7972 214.597 49.2592 214.597 49.8969C214.597 50.5347 214.72 50.9967 214.964 51.2831C215.208 51.5694 215.618 51.7093 216.196 51.7093Z" fill="#9C63F7"/>
<path d="M220.376 52.6692V47.1279H221.543L221.612 47.7722C221.875 47.5997 222.19 47.4436 222.558 47.3036C222.925 47.1637 223.286 47.0661 223.643 47.0108V47.9804C223.426 48.0195 223.188 48.0748 222.938 48.1496C222.684 48.2245 222.444 48.3058 222.22 48.3937C221.995 48.4848 221.803 48.5759 221.647 48.667V52.6659H220.376V52.6692Z" fill="#9C63F7"/>
<path d="M224.615 52.6691V44.7885H225.889V49.347L228.214 47.1247H229.673L227.417 49.3568L229.8 52.6659H228.457L226.624 50.0336L225.889 50.7364V52.6659H224.615V52.6691Z" fill="#9C63F7"/>
<path d="M232.979 52.7863C232.014 52.7863 231.266 52.5488 230.736 52.0737C230.206 51.5987 229.943 50.8698 229.943 49.8872C229.943 48.9989 230.167 48.2961 230.619 47.782C231.071 47.2679 231.757 47.0108 232.673 47.0108C233.515 47.0108 234.146 47.2321 234.572 47.6713C234.994 48.1106 235.209 48.68 235.209 49.3731V50.4013H231.155C231.217 50.9381 231.412 51.3091 231.74 51.5108C232.069 51.7125 232.566 51.8134 233.236 51.8134C233.515 51.8134 233.805 51.7874 234.1 51.7321C234.396 51.6767 234.653 51.6084 234.871 51.5206V52.4544C234.621 52.565 234.334 52.6464 234.013 52.6984C233.691 52.757 233.346 52.7863 232.979 52.7863ZM231.159 49.5715H234.091V49.1843C234.091 48.8036 233.987 48.5043 233.775 48.2895C233.564 48.0748 233.21 47.9674 232.712 47.9674C232.121 47.9674 231.714 48.0976 231.493 48.3546C231.269 48.6117 231.159 49.0184 231.159 49.5715Z" fill="#9C63F7"/>
<path d="M236.496 52.6692V47.1279H237.663L237.731 47.7722C237.995 47.5997 238.31 47.4436 238.677 47.3036C239.045 47.1637 239.405 47.0661 239.763 47.0108V47.9804C239.545 48.0195 239.308 48.0748 239.058 48.1496C238.804 48.2245 238.567 48.3058 238.339 48.3937C238.115 48.4848 237.923 48.5759 237.767 48.667V52.6659H236.496V52.6692Z" fill="#9C63F7"/>
<path d="M49.5689 2.81128H34.7916C34.3138 1.1974 33.3483 0 31.2354 0C29.1225 0 28.0303 1.1974 27.5525 2.81128H12.9019C5.85131 2.81128 0.136719 8.53145 0.136719 15.5889V43.3633C0.136719 50.4208 5.85131 56.141 12.9019 56.141H20.3166V70.0054C20.3166 72.7646 22.5498 75 25.3063 75H29.7369V65.5705H32.7307V75H37.1613C39.9178 75 42.151 72.7646 42.151 70.0054V56.141H49.5689C56.6195 56.141 62.3341 50.4208 62.3341 43.3633V15.5889C62.3341 8.53145 56.6195 2.81128 49.5689 2.81128ZM53.0406 45.68C53.0406 46.3861 52.4653 46.962 51.7534 46.962H10.62C9.90809 46.962 9.33273 46.3894 9.33273 45.68V13.3959C9.33273 12.6898 9.90809 12.1139 10.62 12.1139H51.7501C52.462 12.1139 53.0374 12.6866 53.0374 13.3959V45.68H53.0406Z" fill="url(#paint0_linear_1_1739)"/>
<path d="M9.39111 62.4696V67.2397C9.39111 69.5955 11.2992 71.5087 13.6559 71.5087C16.0126 71.5087 17.9207 69.5987 17.9207 67.2397V58.2039H13.6559C11.2992 58.2007 9.39111 60.1106 9.39111 62.4696Z" fill="url(#paint1_linear_1_1739)"/>
<path d="M48.7723 66.7353H53.5377C55.8912 66.7353 57.8025 64.8254 57.8025 62.4664C57.8025 60.1074 55.8944 58.1974 53.5377 58.1974H44.5107V62.4664C44.5107 64.8254 46.4189 66.7353 48.7723 66.7353Z" fill="url(#paint2_linear_1_1739)"/>
<path d="M20.219 32.1182C22.2692 32.1182 23.9313 30.4546 23.9313 28.4024C23.9313 26.3502 22.2692 24.6865 20.219 24.6865C18.1688 24.6865 16.5068 26.3502 16.5068 28.4024C16.5068 30.4546 18.1688 32.1182 20.219 32.1182Z" fill="url(#paint3_linear_1_1739)"/>
<path d="M44.8198 24.5369C44.3517 24.1399 43.7406 23.9414 43.1262 23.9414C42.7979 23.9414 42.4663 24 42.1575 24.1171L42.1543 24.1204L41.2473 24.6995L35.4287 28.4089L41.1856 32.1475L42.1543 32.7755L42.1575 32.7787C43.0352 33.1106 44.0981 32.9707 44.8198 32.3557C45.7559 31.5618 45.9022 30.1236 44.9693 29.3264L43.6073 28.4447L44.8198 27.628C45.7527 26.834 45.7527 25.3308 44.8198 24.5369Z" fill="url(#paint4_linear_1_1739)"/>
<path d="M27.4746 36.2505C27.4746 38.3037 29.1357 39.9664 31.1868 39.9664C33.238 39.9664 34.899 38.3037 34.899 36.2505" fill="url(#paint5_linear_1_1739)"/>
</g>
<defs>
<linearGradient id="paint0_linear_1_1739" x1="0.136156" y1="37.4995" x2="62.3353" y2="37.4995" gradientUnits="userSpaceOnUse">
<stop stop-color="#07EDD2"/>
<stop offset="0.8034" stop-color="#9569F5"/>
</linearGradient>
<linearGradient id="paint1_linear_1_1739" x1="9.39168" y1="64.8529" x2="17.9186" y2="64.8529" gradientUnits="userSpaceOnUse">
<stop stop-color="#45B3E0"/>
<stop offset="1" stop-color="#8F6EF4"/>
</linearGradient>
<linearGradient id="paint2_linear_1_1739" x1="44.5104" y1="62.4684" x2="57.8017" y2="62.4684" gradientUnits="userSpaceOnUse">
<stop stop-color="#45B3E0"/>
<stop offset="1" stop-color="#8F6EF4"/>
</linearGradient>
<linearGradient id="paint3_linear_1_1739" x1="16.5058" y1="28.402" x2="23.9298" y2="28.402" gradientUnits="userSpaceOnUse">
<stop stop-color="#5A9FE5"/>
<stop offset="0.5542" stop-color="#9C63F7"/>
<stop offset="1" stop-color="#9668F6"/>
</linearGradient>
<linearGradient id="paint4_linear_1_1739" x1="35.4296" y1="28.4474" x2="45.5985" y2="28.4474" gradientUnits="userSpaceOnUse">
<stop stop-color="#5A9FE5"/>
<stop offset="0.5542" stop-color="#9C63F7"/>
<stop offset="1" stop-color="#9668F6"/>
</linearGradient>
<linearGradient id="paint5_linear_1_1739" x1="27.4744" y1="38.1084" x2="34.8983" y2="38.1084" gradientUnits="userSpaceOnUse">
<stop stop-color="#5A9FE5"/>
<stop offset="0.5542" stop-color="#9C63F7"/>
<stop offset="1" stop-color="#9668F6"/>
</linearGradient>
<clipPath id="clip0_1_1739">
<rect width="240" height="75" fill="white"/>
</clipPath>
</defs>
</svg>
