<svg width="410" height="56" viewBox="0 0 410 56" fill="none" xmlns="http://www.w3.org/2000/svg">
<rect width="410" height="56" rx="5" fill="#2B3649"/>
<path d="M29.2877 35V24.04L27.2077 24.4V22.58L31.4477 21.92V35H29.2877ZM38.6744 35V24.04L36.5944 24.4V22.58L40.8344 21.92V35H38.6744Z" fill="#7DD1C1"/>
<path d="M48.0611 35V24.04L45.9811 24.4V22.58L50.2211 21.92V35H48.0611ZM65.0572 35V24.04L62.9772 24.4V22.58L67.2172 21.92V35H65.0572ZM74.4439 35V24.04L72.3639 24.4V22.58L76.6039 21.92V35H74.4439ZM83.8306 35V24.04L81.7506 24.4V22.58L85.9906 21.92V35H83.8306ZM100.827 35V24.04L98.7467 24.4V22.58L102.987 21.92V35H100.827ZM110.213 35V24.04L108.133 24.4V22.58L112.373 21.92V35H110.213ZM119.6 35V24.04L117.52 24.4V22.58L121.76 21.92V35H119.6ZM136.596 35V24.04L134.516 24.4V22.58L138.756 21.92V35H136.596ZM145.983 35V24.04L143.903 24.4V22.58L148.143 21.92V35H145.983ZM155.37 35V24.04L153.29 24.4V22.58L157.53 21.92V35H155.37ZM172.366 35V24.04L170.286 24.4V22.58L174.526 21.92V35H172.366ZM181.752 35V24.04L179.673 24.4V22.58L183.913 21.92V35H181.752ZM191.139 35V24.04L189.059 24.4V22.58L193.299 21.92V35H191.139ZM198.446 37.4L199.046 33.62H200.946L200.026 37.4H198.446ZM215.354 35V24.04L213.274 24.4V22.58L217.514 21.92V35H215.354ZM224.741 35V24.04L222.661 24.4V22.58L226.901 21.92V35H224.741ZM234.127 35V24.04L232.048 24.4V22.58L236.288 21.92V35H234.127ZM251.124 35V24.04L249.044 24.4V22.58L253.284 21.92V35H251.124ZM260.51 35V24.04L258.43 24.4V22.58L262.67 21.92V35H260.51ZM269.897 35V24.04L267.817 24.4V22.58L272.057 21.92V35H269.897ZM286.893 35V24.04L284.813 24.4V22.58L289.053 21.92V35H286.893ZM296.28 35V24.04L294.2 24.4V22.58L298.44 21.92V35H296.28ZM305.667 35V24.04L303.587 24.4V22.58L307.827 21.92V35H305.667ZM322.663 35V24.04L320.583 24.4V22.58L324.823 21.92V35H322.663ZM332.049 35V24.04L329.969 24.4V22.58L334.209 21.92V35H332.049ZM341.436 35V24.04L339.356 24.4V22.58L343.596 21.92V35H341.436ZM358.432 35V24.04L356.352 24.4V22.58L360.592 21.92V35H358.432ZM367.819 35V24.04L365.739 24.4V22.58L369.979 21.92V35H367.819ZM377.206 35V24.04L375.126 24.4V22.58L379.366 21.92V35H377.206Z" fill="white"/>
</svg>
