<svg width="175" height="17" viewBox="0 0 175 17" fill="none" xmlns="http://www.w3.org/2000/svg">
<path d="M2.94 14V3.04L0.86 3.4V1.58L5.1 0.919999V14H2.94ZM12.3267 14V3.04L10.2467 3.4V1.58L14.4867 0.919999V14H12.3267Z" fill="#7DD1C1"/>
<path d="M21.7134 14V3.04L19.6334 3.4V1.58L23.8734 0.919999V14H21.7134ZM38.7095 14V3.04L36.6295 3.4V1.58L40.8695 0.919999V14H38.7095ZM48.0962 14V3.04L46.0163 3.4V1.58L50.2563 0.919999V14H48.0962ZM57.483 14V3.04L55.403 3.4V1.58L59.643 0.919999V14H57.483ZM74.4791 14V3.04L72.3991 3.4V1.58L76.6391 0.919999V14H74.4791ZM83.8658 14V3.04L81.7858 3.4V1.58L86.0258 0.919999V14H83.8658ZM93.2525 14V3.04L91.1725 3.4V1.58L95.4125 0.919999V14H93.2525ZM110.249 14V3.04L108.169 3.4V1.58L112.409 0.919999V14H110.249ZM119.635 14V3.04L117.555 3.4V1.58L121.795 0.919999V14H119.635ZM129.022 14V3.04L126.942 3.4V1.58L131.182 0.919999V14H129.022ZM136.329 16.4L136.929 12.62H138.829L137.909 16.4H136.329ZM153.237 14V3.04L151.157 3.4V1.58L155.397 0.919999V14H153.237ZM162.624 14V3.04L160.544 3.4V1.58L164.784 0.919999V14H162.624ZM172.01 14V3.04L169.93 3.4V1.58L174.17 0.919999V14H172.01Z" fill="white"/>
</svg>
