<svg width="60" height="60" viewBox="0 0 60 60" fill="none" xmlns="http://www.w3.org/2000/svg">
<path d="M30 60C46.5685 60 60 46.5686 60 30C60 13.4315 46.5685 0 30 0C13.4315 0 0 13.4315 0 30C0 46.5686 13.4315 60 30 60Z" fill="#3F4958"/>
<path d="M37.2667 33.3333C37.4 32.2333 37.5 31.1333 37.5 30C37.5 28.8667 37.4 27.7667 37.2667 26.6667H42.9C43.1667 27.7333 43.3333 28.85 43.3333 30C43.3333 31.15 43.1667 32.2667 42.9 33.3333M34.3167 42.6C35.3167 40.75 36.0833 38.75 36.6167 36.6667H41.5333C39.9186 39.4471 37.3569 41.5533 34.3167 42.6ZM33.9 33.3333H26.1C25.9333 32.2333 25.8333 31.1333 25.8333 30C25.8333 28.8667 25.9333 27.75 26.1 26.6667H33.9C34.05 27.75 34.1667 28.8667 34.1667 30C34.1667 31.1333 34.05 32.2333 33.9 33.3333ZM30 43.2667C28.6167 41.2667 27.5 39.05 26.8167 36.6667H33.1833C32.5 39.05 31.3833 41.2667 30 43.2667ZM23.3333 23.3333H18.4667C20.0648 20.5454 22.6247 18.4358 25.6667 17.4C24.6667 19.25 23.9167 21.25 23.3333 23.3333ZM18.4667 36.6667H23.3333C23.9167 38.75 24.6667 40.75 25.6667 42.6C22.631 41.5528 20.0748 39.4462 18.4667 36.6667ZM17.1 33.3333C16.8333 32.2667 16.6667 31.15 16.6667 30C16.6667 28.85 16.8333 27.7333 17.1 26.6667H22.7333C22.6 27.7667 22.5 28.8667 22.5 30C22.5 31.1333 22.6 32.2333 22.7333 33.3333M30 16.7167C31.3833 18.7167 32.5 20.95 33.1833 23.3333H26.8167C27.5 20.95 28.6167 18.7167 30 16.7167ZM41.5333 23.3333H36.6167C36.095 21.2691 35.3226 19.2765 34.3167 17.4C37.3833 18.45 39.9333 20.5667 41.5333 23.3333ZM30 13.3333C20.7833 13.3333 13.3333 20.8333 13.3333 30C13.3333 34.4203 15.0893 38.6595 18.2149 41.7851C19.7625 43.3328 21.5999 44.5604 23.622 45.398C25.644 46.2356 27.8113 46.6667 30 46.6667C34.4203 46.6667 38.6595 44.9107 41.7851 41.7851C44.9107 38.6595 46.6667 34.4203 46.6667 30C46.6667 27.8113 46.2356 25.644 45.398 23.6219C44.5604 21.5998 43.3328 19.7625 41.7851 18.2149C40.2375 16.6672 38.4002 15.4396 36.3781 14.602C34.356 13.7644 32.1887 13.3333 30 13.3333Z" fill="url(#paint0_linear_1_966)"/>
<defs>
<linearGradient id="paint0_linear_1_966" x1="13.333" y1="30.0078" x2="26.6951" y2="30.0078" gradientUnits="userSpaceOnUse">
<stop stop-color="#45B3E0"/>
<stop offset="1" stop-color="#8F6EF4"/>
</linearGradient>
</defs>
</svg>
