<svg width="60" height="458" viewBox="0 0 60 458" fill="none" xmlns="http://www.w3.org/2000/svg">
<path d="M30.5 30C30.5 29.4477 30.0523 29 29.5 29C28.9477 29 28.5 29.4477 28.5 30L30.5 30ZM28.5 30L28.5 430L30.5 430L30.5 30L28.5 30Z" fill="url(#paint0_linear_1_1037)"/>
<path d="M30 458C46.5685 458 60 444.569 60 428C60 411.431 46.5685 398 30 398C13.4315 398 0 411.431 0 428C0 444.569 13.4315 458 30 458Z" fill="#3F4958"/>
<path d="M22.5952 415C22.5727 415 22.5504 415.005 22.5306 415.016C22.5109 415.027 22.4944 415.043 22.4827 415.063L15.0178 427.936C15.0062 427.956 15 427.978 15 428.001C15 428.024 15.0062 428.047 15.0178 428.066L22.5665 440.936C22.6165 441.021 22.7415 441.021 22.7915 440.936L30.2564 428.064C30.2677 428.044 30.2734 428.021 30.273 427.998C30.2725 427.975 30.266 427.953 30.2539 427.934L22.7077 415.063C22.6961 415.043 22.6796 415.027 22.6599 415.016C22.6401 415.005 22.6178 415 22.5952 415ZM26.174 415C26.1514 415 26.1291 415.006 26.1095 415.017C26.0899 415.028 26.0736 415.044 26.0622 415.064C26.0508 415.084 26.0447 415.106 26.0446 415.129C26.0444 415.151 26.0503 415.173 26.0615 415.193L32.5439 426.441C32.5552 426.461 32.5716 426.477 32.5913 426.489C32.6111 426.501 32.6335 426.507 32.6564 426.507H36.5526C36.6526 426.507 36.7151 426.397 36.6651 426.31L30.1827 415.064C30.1711 415.044 30.1546 415.028 30.1349 415.017C30.1152 415.006 30.0929 415 30.0702 415H26.174ZM33.5376 415C33.5151 415 33.493 415.006 33.4735 415.017C33.454 415.029 33.4378 415.045 33.4266 415.064C33.4154 415.084 33.4096 415.106 33.4098 415.129C33.41 415.152 33.4161 415.174 33.4276 415.193L40.8201 427.999L33.4276 440.804C33.4161 440.824 33.41 440.846 33.4098 440.869C33.4096 440.891 33.4154 440.913 33.4266 440.933C33.4378 440.953 33.454 440.969 33.4735 440.98C33.493 440.992 33.5151 440.998 33.5376 440.997H37.4413C37.4636 440.998 37.4855 440.992 37.5048 440.981C37.5242 440.97 37.5402 440.954 37.5513 440.935L44.9825 428.063C44.994 428.043 45 428.021 45 427.999C45 427.976 44.994 427.954 44.9825 427.935L37.5513 415.064C37.5404 415.044 37.5244 415.028 37.5051 415.017C37.4857 415.006 37.4637 415 37.4413 415H33.5376ZM32.5501 429.676C32.5274 429.676 32.5051 429.681 32.4855 429.693C32.4659 429.704 32.4498 429.721 32.4389 429.741L26.0627 440.804C26.0127 440.891 26.0752 440.997 26.1752 440.997H30.0714C30.094 440.998 30.1162 440.992 30.1359 440.981C30.1557 440.97 30.1722 440.954 30.1839 440.935L36.5589 429.871C36.5704 429.852 36.5764 429.829 36.5765 429.806C36.5765 429.784 36.5705 429.761 36.5591 429.741C36.5476 429.722 36.5312 429.705 36.5114 429.694C36.4916 429.683 36.4691 429.677 36.4464 429.677H32.5489L32.5501 429.676Z" fill="url(#paint1_linear_1_1037)"/>
<path d="M30 262C46.5685 262 60 248.569 60 232C60 215.431 46.5685 202 30 202C13.4315 202 0 215.431 0 232C0 248.569 13.4315 262 30 262Z" fill="#3F4958"/>
<path d="M45 230.333V227H41.6667V223.667C41.664 222.783 41.312 221.937 40.6874 221.313C40.0629 220.688 39.2166 220.336 38.3333 220.333H35V217H31.6667V220.333H28.3333V217H25V220.333H21.6667C20.7834 220.336 19.9371 220.688 19.3126 221.313C18.688 221.937 18.336 222.783 18.3333 223.667V227H15V230.333H18.3333V233.667H15V237H18.3333V240.333C18.336 241.217 18.688 242.063 19.3126 242.687C19.9371 243.312 20.7834 243.664 21.6667 243.667H25V247H28.3333V243.667H31.6667V247H35V243.667H38.3333C39.2166 243.664 40.0629 243.312 40.6874 242.687C41.312 242.063 41.664 241.217 41.6667 240.333V237H45V233.667H41.6667V230.333H45ZM38.3333 240.333H21.6667V223.667H38.3333V240.333Z" fill="url(#paint2_linear_1_1037)"/>
<path d="M28.935 225.333H26.6933L23.3433 238.667H25.055L25.8283 235.542H29.6883L30.4417 238.667H32.2117L28.935 225.333ZM26.0533 234.207L27.75 226.917H27.8267L29.465 234.207H26.0533ZM33.74 225.333H35.4067V238.667H33.74V225.333Z" fill="url(#paint3_linear_1_1037)"/>
<path d="M30 60C46.5685 60 60 46.5686 60 30C60 13.4315 46.5685 0 30 0C13.4315 0 0 13.4315 0 30C0 46.5686 13.4315 60 30 60Z" fill="#3F4958"/>
<mask id="mask0_1_1037" style="mask-type:luminance" maskUnits="userSpaceOnUse" x="13" y="12" width="34" height="35">
<path d="M43.3333 35V22.5L32.9167 16.6409M27.0833 16.6409L16.6667 22.5V35M19.1667 38.9067L30 45L36.6667 41.25L40.8333 38.9059" stroke="white" stroke-width="2.08333" stroke-linecap="round" stroke-linejoin="round"/>
<path d="M27.5 25.6251L25 27.0834V32.9167L27.5 34.3751L30 35.8334L32.5 34.3751L35 32.9167V27.0834L32.5 25.6251L30 24.1667L27.5 25.6251Z" fill="white" stroke="white" stroke-width="2.08333" stroke-linecap="round" stroke-linejoin="round"/>
<path d="M30 24.1667V18.3334M35 32.5L40.8333 35.8334M25 32.5L19.1667 35.8334" stroke="white" stroke-width="2.08333" stroke-linecap="round" stroke-linejoin="round"/>
<path d="M30 18.3334C31.3807 18.3334 32.5 17.2141 32.5 15.8334C32.5 14.4527 31.3807 13.3334 30 13.3334C28.6193 13.3334 27.5 14.4527 27.5 15.8334C27.5 17.2141 28.6193 18.3334 30 18.3334Z" fill="white" stroke="white" stroke-width="2.08333" stroke-linecap="round" stroke-linejoin="round"/>
<path d="M16.6667 40C18.0474 40 19.1667 38.8807 19.1667 37.5C19.1667 36.1193 18.0474 35 16.6667 35C15.286 35 14.1667 36.1193 14.1667 37.5C14.1667 38.8807 15.286 40 16.6667 40Z" fill="white" stroke="white" stroke-width="2.08333" stroke-linecap="round" stroke-linejoin="round"/>
<path d="M43.3333 40C44.7141 40 45.8333 38.8807 45.8333 37.5C45.8333 36.1193 44.7141 35 43.3333 35C41.9526 35 40.8333 36.1193 40.8333 37.5C40.8333 38.8807 41.9526 40 43.3333 40Z" fill="white" stroke="white" stroke-width="2.08333" stroke-linecap="round" stroke-linejoin="round"/>
</mask>
<g mask="url(#mask0_1_1037)">
<path d="M10 10H50V50H10V10Z" fill="url(#paint4_linear_1_1037)"/>
</g>
<defs>
<linearGradient id="paint0_linear_1_1037" x1="28.9998" y1="29.9963" x2="28.9998" y2="190.341" gradientUnits="userSpaceOnUse">
<stop stop-color="#45B3E0"/>
<stop offset="1" stop-color="#8F6EF4"/>
</linearGradient>
<linearGradient id="paint1_linear_1_1037" x1="14.9997" y1="428.006" x2="27.0256" y2="428.006" gradientUnits="userSpaceOnUse">
<stop stop-color="#45B3E0"/>
<stop offset="1" stop-color="#8F6EF4"/>
</linearGradient>
<linearGradient id="paint2_linear_1_1037" x1="14.9997" y1="232.007" x2="27.0256" y2="232.007" gradientUnits="userSpaceOnUse">
<stop stop-color="#45B3E0"/>
<stop offset="1" stop-color="#8F6EF4"/>
</linearGradient>
<linearGradient id="paint3_linear_1_1037" x1="23.3432" y1="232.003" x2="28.179" y2="232.003" gradientUnits="userSpaceOnUse">
<stop stop-color="#45B3E0"/>
<stop offset="1" stop-color="#8F6EF4"/>
</linearGradient>
<linearGradient id="paint4_linear_1_1037" x1="9.99963" y1="30.0093" x2="26.0341" y2="30.0093" gradientUnits="userSpaceOnUse">
<stop stop-color="#45B3E0"/>
<stop offset="1" stop-color="#8F6EF4"/>
</linearGradient>
</defs>
</svg>
