<svg width="108" height="130" viewBox="0 0 108 130" fill="none" xmlns="http://www.w3.org/2000/svg">
<g clip-path="url(#clip0_1_1883)">
<path d="M85.8299 4.87289H60.1718C59.3478 2.07549 57.6658 0 53.9972 0C50.3285 0 48.4321 2.07549 47.6024 4.87289H22.1644C9.92234 4.87289 0 14.7879 0 27.0208V75.1631C0 87.3961 9.92234 97.3111 22.1644 97.3111H35.0443V121.343C35.0443 126.125 38.9218 130 43.708 130H51.4009V113.656H56.5991V130H64.292C69.0782 130 72.9557 126.125 72.9557 121.343V97.3111H85.8356C98.0777 97.3111 108 87.3961 108 75.1631V27.0208C108 14.7879 98.072 4.87289 85.8299 4.87289ZM91.8578 79.1787C91.8578 80.4026 90.8588 81.4009 89.6228 81.4009H18.2022C16.9662 81.4009 15.9672 80.4082 15.9672 79.1787V23.2195C15.9672 21.9957 16.9662 20.9974 18.2022 20.9974H89.6171C90.8532 20.9974 91.8522 21.99 91.8522 23.2195V79.1787H91.8578Z" fill="url(#paint0_linear_1_1883)"/>
<path d="M16.0688 108.281V116.549C16.0688 120.632 19.3819 123.948 23.4739 123.948C27.5659 123.948 30.879 120.638 30.879 116.549V100.887H23.4739C19.3876 100.881 16.0688 104.192 16.0688 108.281Z" fill="url(#paint1_linear_1_1883)"/>
<path d="M84.4527 115.675H92.7269C96.8133 115.675 100.132 112.364 100.132 108.275C100.132 104.186 96.8189 100.875 92.7269 100.875H77.0532V108.275C77.0476 112.364 80.3607 115.675 84.4527 115.675Z" fill="url(#paint2_linear_1_1883)"/>
<path d="M34.8694 55.6716C38.4292 55.6716 41.315 52.788 41.315 49.2308C41.315 45.6737 38.4292 42.79 34.8694 42.79C31.3096 42.79 28.4238 45.6737 28.4238 49.2308C28.4238 52.788 31.3096 55.6716 34.8694 55.6716Z" fill="url(#paint3_linear_1_1883)"/>
<path d="M77.5837 42.5306C76.7709 41.8425 75.7098 41.4985 74.6431 41.4985C74.073 41.4985 73.4973 41.6 72.9611 41.803L72.9555 41.8087L71.3808 42.8126L61.2778 49.2421L71.2736 55.7223L72.9555 56.8108L72.9611 56.8165C74.485 57.3918 76.3307 57.1492 77.5837 56.0833C79.2092 54.7072 79.4631 52.2143 77.8433 50.8325L75.4784 49.3041L77.5837 47.8885C79.2035 46.5124 79.2035 43.9067 77.5837 42.5306Z" fill="url(#paint4_linear_1_1883)"/>
<path d="M47.4668 62.8343C47.4668 66.3931 50.3509 69.2751 53.9124 69.2751C57.4738 69.2751 60.3579 66.3931 60.3579 62.8343" fill="url(#paint5_linear_1_1883)"/>
</g>
<defs>
<linearGradient id="paint0_linear_1_1883" x1="0" y1="64.9992" x2="107.997" y2="64.9992" gradientUnits="userSpaceOnUse">
<stop stop-color="#7DD1C1"/>
<stop offset="0.4732" stop-color="#887DC1"/>
</linearGradient>
<linearGradient id="paint1_linear_1_1883" x1="16.0708" y1="112.412" x2="30.8762" y2="112.412" gradientUnits="userSpaceOnUse">
<stop stop-color="#7DD1C1"/>
<stop offset="0.8972" stop-color="#887DC1"/>
</linearGradient>
<linearGradient id="paint2_linear_1_1883" x1="77.048" y1="108.279" x2="100.126" y2="108.279" gradientUnits="userSpaceOnUse">
<stop stop-color="#7DD1C1"/>
<stop offset="0.8972" stop-color="#887DC1"/>
</linearGradient>
<linearGradient id="paint3_linear_1_1883" x1="28.4231" y1="49.2301" x2="41.3134" y2="49.2301" gradientUnits="userSpaceOnUse">
<stop stop-color="#7DD1C1"/>
<stop offset="2.77045e-07" stop-color="#81ADC0"/>
<stop offset="0.5754" stop-color="#887DC1"/>
</linearGradient>
<linearGradient id="paint4_linear_1_1883" x1="61.2803" y1="49.3089" x2="78.9367" y2="49.3089" gradientUnits="userSpaceOnUse">
<stop stop-color="#7DD1C1"/>
<stop offset="2.77045e-07" stop-color="#81ADC0"/>
<stop offset="0.5754" stop-color="#887DC1"/>
</linearGradient>
<linearGradient id="paint5_linear_1_1883" x1="47.4673" y1="66.0545" x2="60.3577" y2="66.0545" gradientUnits="userSpaceOnUse">
<stop stop-color="#7DD1C1"/>
<stop offset="2.77045e-07" stop-color="#81ADC0"/>
<stop offset="0.5754" stop-color="#887DC1"/>
</linearGradient>
<clipPath id="clip0_1_1883">
<rect width="108" height="130" fill="white"/>
</clipPath>
</defs>
</svg>
