<svg width="115" height="30" viewBox="0 0 115 30" fill="none" xmlns="http://www.w3.org/2000/svg">
<path d="M52.9672 20.2322C54.136 20.2322 55.0858 19.3124 55.0858 18.1758C55.0858 17.0413 54.1382 16.1194 52.9672 16.1194C51.7984 16.1194 50.8486 17.0391 50.8486 18.1758C50.8486 19.3103 51.7961 20.2322 52.9672 20.2322Z" fill="#9C63F7"/>
<path d="M22.3637 20.2322C23.5325 20.2322 24.4822 19.3124 24.4822 18.1758C24.4822 17.0413 23.5347 16.1194 22.3637 16.1194C21.1948 16.1194 20.2451 17.0391 20.2451 18.1758C20.2451 19.3103 21.1926 20.2322 22.3637 20.2322Z" fill="#9C63F7"/>
<path d="M67.3143 20.2322C68.4831 20.2322 69.4329 19.3124 69.4329 18.1758C69.4329 17.0413 68.4854 16.1194 67.3143 16.1194C66.1455 16.1194 65.1957 17.0391 65.1957 18.1758C65.1957 19.3103 66.1433 20.2322 67.3143 20.2322Z" fill="#9C63F7"/>
<path d="M-6.10352e-05 20.3407V0.368896H9.20062C11.3103 0.368896 13.1093 0.705122 14.5999 1.37757C16.0905 2.05002 17.2303 3.12595 18.0192 4.60317C18.808 6.08039 19.2014 8.04135 19.2014 10.4795C19.2014 13.9112 18.3387 16.4145 16.6135 17.985C14.8882 19.5576 12.4165 20.3429 9.20062 20.3429H-6.10352e-05V20.3407ZM6.00709 15.8743H8.43632C9.43751 15.8743 10.2778 15.7355 10.9594 15.4557C11.641 15.1758 12.1617 14.6487 12.526 13.8743C12.888 13.0999 13.0691 11.9676 13.0691 10.4795C13.0691 8.99146 12.9037 7.83961 12.5729 7.02183C12.2422 6.20621 11.7371 5.63788 11.0555 5.31684C10.3739 4.9958 9.50009 4.83528 8.43632 4.83528H6.00709V15.8743Z" fill="#9C63F7"/>
<path d="M26.6166 20.3407L34.5077 0.368896H40.8657L48.7568 20.3407H42.4949L40.7697 16.0912H34.5703L32.8763 20.3407H26.6166ZM35.3704 11.9047H39.9718L37.6722 6.04352L35.3704 11.9047Z" fill="#9C63F7"/>
<path d="M57.1708 20.3407V0.368896H63.178V20.3407H57.1708Z" fill="#9C63F7"/>
<path d="M75.6769 20.3407L70.8832 0.368896H76.763L79.0961 10.9437L81.3645 3.37757V0.368896H86.2855L89.4165 10.9741L91.877 0.368896H97.7568L92.9966 20.3407H87.566L84.4664 10.0131L81.1075 20.3407H75.6769Z" fill="#9C63F7"/>
<path d="M105.523 20.1543C102.497 20.1543 100.266 19.5035 98.8294 18.1998C97.3924 16.8983 96.6728 14.9959 96.6728 12.4927C96.6728 10.0111 97.3969 8.11525 98.845 6.80288C100.293 5.49052 102.519 4.83325 105.523 4.83325C108.546 4.83325 110.788 5.49052 112.247 6.80288C113.706 8.11525 114.435 10.0133 114.435 12.4927C114.435 14.9938 113.711 16.8962 112.263 18.1998C110.815 19.5035 108.569 20.1543 105.523 20.1543ZM105.523 15.9048C106.501 15.9048 107.21 15.6359 107.648 15.0979C108.084 14.5599 108.303 13.6923 108.303 12.4927C108.303 11.3148 108.084 10.4515 107.648 9.90267C107.212 9.35603 106.504 9.08054 105.523 9.08054C104.564 9.08054 103.871 9.35386 103.446 9.90267C103.02 10.4515 102.807 11.3126 102.807 12.4927C102.807 13.6923 103.02 14.5599 103.446 15.0979C103.871 15.638 104.564 15.9048 105.523 15.9048Z" fill="#9C63F7"/>
<path d="M2.66586 27.948V26.0846L0.810974 22.9285H1.7183L3.09941 25.3688L4.48052 22.9285H5.38785L3.53297 26.0846V27.948H2.66586Z" fill="#9C63F7"/>
<path d="M7.3299 28.0261C6.64382 28.0261 6.14323 27.8591 5.82365 27.5272C5.50407 27.1953 5.3454 26.7202 5.3454 26.0998C5.3454 25.4816 5.50631 25.0066 5.82812 24.6725C6.14993 24.3406 6.65052 24.1736 7.3299 24.1736C8.01599 24.1736 8.51882 24.3406 8.8384 24.6725C9.16021 25.0044 9.32112 25.4794 9.32112 26.0998C9.32112 26.7181 9.16244 27.1931 8.84287 27.5272C8.52552 27.8591 8.02046 28.0261 7.3299 28.0261ZM7.3299 27.3081C7.73217 27.3081 8.01599 27.2126 8.18584 27.0239C8.35345 26.8352 8.43837 26.5272 8.43837 26.0998C8.43837 25.6747 8.35345 25.3666 8.18584 25.1801C8.01823 24.9935 7.73217 24.9003 7.3299 24.9003C6.93434 24.9003 6.65053 24.9935 6.48292 25.1801C6.31531 25.3666 6.23038 25.6747 6.23038 26.0998C6.23038 26.525 6.31531 26.833 6.48292 27.0239C6.65276 27.2148 6.93434 27.3081 7.3299 27.3081Z" fill="#9C63F7"/>
<path d="M11.5782 28.0259C11.1223 28.0259 10.7737 27.9044 10.5301 27.6593C10.2865 27.4142 10.1658 27.0562 10.1658 26.5834V24.2536H11.0419V26.5834C11.0419 26.8588 11.1112 27.0627 11.2519 27.1907C11.3905 27.3209 11.605 27.386 11.8933 27.386C12.1079 27.386 12.3045 27.3469 12.4878 27.2688C12.6688 27.1907 12.8275 27.0866 12.9616 26.9565V24.2515H13.8287V27.9456H13.0331L12.9929 27.5638C12.8208 27.694 12.6174 27.8024 12.3828 27.8914C12.1459 27.9825 11.8777 28.0259 11.5782 28.0259Z" fill="#9C63F7"/>
<path d="M14.8791 27.948V24.2539H15.6814L15.7283 24.6834C15.9093 24.5684 16.1261 24.4643 16.3786 24.371C16.6312 24.2777 16.8792 24.2127 17.1251 24.1758V24.8222C16.9753 24.8482 16.8122 24.8851 16.6401 24.935C16.4658 24.9849 16.3004 25.0391 16.1462 25.0977C15.992 25.1584 15.8602 25.2192 15.7529 25.2799V27.9458H14.8791V27.948Z" fill="#9C63F7"/>
<path d="M19.6727 29.6313V24.2539H20.4281L20.4773 24.6205C20.6493 24.4708 20.8348 24.358 21.0382 24.2842C21.2416 24.2127 21.4829 24.1758 21.76 24.1758C22.3053 24.1758 22.7322 24.3211 23.0361 24.6074C23.34 24.896 23.4942 25.3732 23.4942 26.037C23.4942 26.7007 23.3356 27.1996 23.0205 27.5294C22.7054 27.8591 22.274 28.0239 21.7265 28.0239C21.2661 28.0239 20.8728 27.9198 20.5465 27.7116V29.6291H19.6727V29.6313ZM21.503 27.3862C22.2428 27.3862 22.6115 26.935 22.6115 26.0304C22.6115 25.5944 22.5288 25.2842 22.3634 25.0999C22.1981 24.9155 21.9187 24.8222 21.5276 24.8222C21.1365 24.8222 20.8102 24.9524 20.5488 25.2127V27.0608C20.6717 27.1606 20.8102 27.2387 20.9622 27.2973C21.1142 27.358 21.2952 27.3862 21.503 27.3862Z" fill="#9C63F7"/>
<path d="M26.3056 28.0261C25.6419 28.0261 25.1279 27.8678 24.7636 27.5511C24.3993 27.2343 24.2183 26.7484 24.2183 26.0933C24.2183 25.5012 24.3725 25.0326 24.6832 24.6899C24.9938 24.3471 25.4653 24.1758 26.0956 24.1758C26.6744 24.1758 27.1079 24.3233 27.4007 24.6161C27.6912 24.909 27.8387 25.2886 27.8387 25.7506V26.4361H25.0519C25.0944 26.794 25.2285 27.0413 25.4542 27.1758C25.6799 27.3103 26.0218 27.3775 26.4822 27.3775C26.6744 27.3775 26.8733 27.3602 27.0766 27.3233C27.28 27.2864 27.4566 27.2409 27.6063 27.1823V27.8048C27.4342 27.8786 27.2375 27.9328 27.0163 27.9675C26.795 28.0066 26.5582 28.0261 26.3056 28.0261ZM25.0541 25.8829H27.0699V25.6248C27.0699 25.371 26.9984 25.1714 26.8532 25.0283C26.7079 24.8851 26.4643 24.8135 26.1224 24.8135C25.7156 24.8135 25.4363 24.9003 25.2843 25.0717C25.1301 25.243 25.0541 25.5142 25.0541 25.8829Z" fill="#9C63F7"/>
<path d="M28.7237 27.948V24.2539H29.526L29.5729 24.6834C29.7539 24.5684 29.9707 24.4643 30.2232 24.371C30.4758 24.2777 30.7238 24.2127 30.9697 24.1758V24.8222C30.8199 24.8482 30.6568 24.8851 30.4847 24.935C30.3104 24.9849 30.145 25.0391 29.9908 25.0977C29.8366 25.1584 29.7048 25.2192 29.5975 25.2799V27.9458H28.7237V27.948Z" fill="#9C63F7"/>
<path d="M32.867 28.0261C32.6055 28.0261 32.3552 28.0088 32.1161 27.9719C31.877 27.935 31.6803 27.8916 31.5261 27.8396V27.1215C31.7072 27.1888 31.9083 27.2409 32.1295 27.2777C32.3485 27.3146 32.5586 27.332 32.7553 27.332C33.0547 27.332 33.2693 27.3059 33.3967 27.2539C33.5263 27.2018 33.5889 27.0999 33.5889 26.9502C33.5889 26.8417 33.5509 26.755 33.4726 26.6921C33.3944 26.6291 33.2805 26.5727 33.1263 26.5207C32.9743 26.4686 32.7799 26.4057 32.543 26.3341C32.3173 26.2625 32.1228 26.1823 31.9575 26.0977C31.7921 26.0109 31.6625 25.9025 31.5708 25.7658C31.4792 25.6313 31.4345 25.4534 31.4345 25.2365C31.4345 24.8981 31.5597 24.6378 31.8122 24.4534C32.0647 24.2691 32.467 24.1758 33.0257 24.1758C33.2447 24.1758 33.4548 24.191 33.6514 24.2235C33.8503 24.2539 34.0179 24.2929 34.1565 24.3406V25.05C34.0068 24.9936 33.8414 24.948 33.6626 24.9176C33.4838 24.8873 33.3162 24.8721 33.162 24.8721C32.8827 24.8721 32.6726 24.896 32.5318 24.9415C32.391 24.9871 32.3195 25.0825 32.3195 25.2213C32.3195 25.3667 32.3932 25.4686 32.5407 25.5294C32.6882 25.5901 32.9251 25.6704 33.2514 25.7745C33.5509 25.8634 33.79 25.9567 33.9665 26.0543C34.1431 26.1541 34.2705 26.2712 34.3487 26.4079C34.4269 26.5445 34.4649 26.7246 34.4649 26.9415C34.4649 27.3059 34.3286 27.5771 34.0559 27.7571C33.781 27.9372 33.3855 28.0261 32.867 28.0261Z" fill="#9C63F7"/>
<path d="M37.0595 28.0261C36.3734 28.0261 35.8728 27.8591 35.5532 27.5272C35.2336 27.1953 35.075 26.7202 35.075 26.0998C35.075 25.4816 35.2359 25.0066 35.5577 24.6725C35.8795 24.3406 36.3801 24.1736 37.0595 24.1736C37.7455 24.1736 38.2484 24.3406 38.5679 24.6725C38.8898 25.0044 39.0507 25.4794 39.0507 26.0998C39.0507 26.7181 38.892 27.1931 38.5724 27.5272C38.2528 27.8591 37.75 28.0261 37.0595 28.0261ZM37.0595 27.3081C37.4617 27.3081 37.7455 27.2126 37.9154 27.0239C38.083 26.8352 38.1679 26.5272 38.1679 26.0998C38.1679 25.6747 38.083 25.3666 37.9154 25.1801C37.7478 24.9935 37.4617 24.9003 37.0595 24.9003C36.6639 24.9003 36.3801 24.9935 36.2125 25.1801C36.0449 25.3666 35.9599 25.6747 35.9599 26.0998C35.9599 26.525 36.0449 26.833 36.2125 27.0239C36.3801 27.2148 36.6617 27.3081 37.0595 27.3081Z" fill="#9C63F7"/>
<path d="M39.9334 27.948V24.2539H40.7357L40.7759 24.6443C40.948 24.5142 41.1514 24.4035 41.3905 24.3124C41.6296 24.2213 41.8933 24.1758 42.1816 24.1758C42.6733 24.1758 43.0331 24.2886 43.2566 24.512C43.48 24.7354 43.594 25.0847 43.594 25.5554V27.948H42.7269V25.5944C42.7269 25.3081 42.6666 25.1085 42.5459 24.9936C42.4252 24.8786 42.1995 24.8222 41.8665 24.8222C41.6676 24.8222 41.4732 24.8612 41.2832 24.9393C41.0933 25.0174 40.9346 25.1194 40.805 25.243V27.948H39.9334Z" fill="#9C63F7"/>
<path d="M45.6746 28.0259C45.4333 28.0259 45.2098 27.9847 45.0042 27.9001C44.7986 27.8177 44.6332 27.6919 44.5103 27.5227C44.3874 27.3535 44.3248 27.1452 44.3248 26.8958C44.3248 26.5422 44.45 26.258 44.698 26.0433C44.9461 25.8264 45.3305 25.7201 45.8512 25.7201H47.0714V25.5574C47.0714 25.3817 47.0424 25.2407 46.9865 25.1365C46.9306 25.0324 46.8278 24.9565 46.6803 24.911C46.5328 24.8632 46.3183 24.8415 46.0345 24.8415C45.5853 24.8415 45.1651 24.9066 44.774 25.0368V24.4055C44.9461 24.3383 45.1539 24.2841 45.3998 24.2428C45.6456 24.2016 45.9115 24.1799 46.1954 24.1799C46.7518 24.1799 47.1764 24.2884 47.4692 24.5075C47.7597 24.7266 47.9072 25.0823 47.9072 25.5747V27.9522H47.1608L47.1049 27.5769C46.9485 27.7222 46.7585 27.835 46.5306 27.9131C46.3026 27.9869 46.0166 28.0259 45.6746 28.0259ZM45.9071 27.4185C46.1685 27.4185 46.3987 27.3752 46.5932 27.2906C46.7876 27.2038 46.9485 27.0888 47.0714 26.9435V26.2971H45.8668C45.6098 26.2971 45.4244 26.3448 45.3081 26.4424C45.1919 26.5379 45.1361 26.6854 45.1361 26.8828C45.1361 27.0758 45.2031 27.2125 45.3372 27.2949C45.4713 27.3773 45.6612 27.4185 45.9071 27.4185Z" fill="#9C63F7"/>
<path d="M49.8582 28.0263C49.5476 28.0263 49.3129 27.9525 49.152 27.805C48.9911 27.6575 48.9106 27.4124 48.9106 27.0696V22.6965H49.7867V26.9915C49.7867 27.1369 49.8135 27.2367 49.8671 27.2866C49.9208 27.3386 50.0012 27.3646 50.1085 27.3646C50.2381 27.3646 50.361 27.3495 50.4772 27.3191V27.9351C50.3744 27.972 50.2783 27.9959 50.1845 28.0089C50.0906 28.0197 49.9811 28.0263 49.8582 28.0263Z" fill="#9C63F7"/>
<path d="M54.6452 28.026C54.3032 28.026 53.9993 27.9696 53.7378 27.8546C53.4764 27.7396 53.273 27.5509 53.1277 27.2863C52.9825 27.0216 52.9109 26.6659 52.9109 26.219C52.9109 25.7765 52.9892 25.4034 53.1434 25.0997C53.2976 24.796 53.5143 24.5661 53.7892 24.4099C54.0641 24.2537 54.377 24.1757 54.7256 24.1757C54.9558 24.1757 55.1614 24.2017 55.3402 24.2537C55.519 24.3058 55.691 24.3861 55.8587 24.4945V22.6941H56.7347V27.9479H55.9883L55.9324 27.5813C55.7603 27.731 55.5726 27.8438 55.3692 27.9153C55.1636 27.9891 54.9223 28.026 54.6452 28.026ZM54.8776 27.3861C55.2687 27.3861 55.5949 27.2559 55.8564 26.9956V25.1475C55.6039 24.9284 55.2888 24.8199 54.9089 24.8199C54.5401 24.8199 54.2608 24.9392 54.073 25.1778C53.8853 25.4164 53.7915 25.7657 53.7915 26.2212C53.7915 26.6637 53.8786 26.9674 54.0529 27.1323C54.2273 27.3036 54.5021 27.3861 54.8776 27.3861Z" fill="#9C63F7"/>
<path d="M58.1694 27.9478V24.9001H57.5906L57.6711 24.2536H59.0433V27.9478H58.1694ZM58.0979 23.4814V22.7808H59.0544V23.4814H58.0979Z" fill="#9C63F7"/>
<path d="M61.6378 29.3189C61.354 29.3189 61.0702 29.3016 60.7864 29.269C60.5026 29.2343 60.2612 29.1844 60.0645 29.1172V28.4621C60.2791 28.5293 60.5249 28.5814 60.802 28.6183C61.0814 28.6551 61.3451 28.6725 61.5976 28.6725C61.9842 28.6725 62.2636 28.6508 62.4401 28.6096C62.6167 28.5684 62.7061 28.4751 62.7061 28.3298C62.7061 28.2213 62.6636 28.1432 62.5765 28.0998C62.4915 28.0564 62.3284 28.0326 62.087 28.0326H61.059C60.3685 28.0326 60.0221 27.7961 60.0221 27.3233C60.0221 27.1736 60.0668 27.0326 60.1584 26.9024C60.25 26.7723 60.393 26.6747 60.5919 26.6053C60.3729 26.5011 60.2098 26.358 60.107 26.1758C60.002 25.9935 59.9506 25.7766 59.9506 25.5207C59.9506 25.0478 60.0958 24.705 60.3886 24.4925C60.6791 24.2799 61.1171 24.1736 61.7004 24.1736C61.8233 24.1736 61.9529 24.1823 62.087 24.2018C62.2211 24.2191 62.3262 24.2365 62.3999 24.2517H63.7967L63.7721 24.8048H63.1284C63.2312 24.8873 63.305 24.9914 63.3542 25.1172C63.4033 25.243 63.4257 25.3775 63.4257 25.5228C63.4257 25.9176 63.3028 26.2278 63.0569 26.4534C62.8111 26.679 62.4379 26.7918 61.9418 26.7918C61.8569 26.7918 61.7764 26.7875 61.7049 26.781C61.6334 26.7723 61.5529 26.7636 61.468 26.7528C61.3071 26.7679 61.1641 26.8092 61.0344 26.8786C60.9048 26.9458 60.8422 27.0369 60.8422 27.1519C60.8422 27.23 60.8735 27.2864 60.9383 27.3189C61.0031 27.3515 61.1104 27.3688 61.2602 27.3688H62.3284C62.7083 27.3688 63.0011 27.4469 63.2067 27.6074C63.4123 27.7658 63.5151 27.9957 63.5151 28.2972C63.5151 28.6617 63.3519 28.922 63.0301 29.0803C62.7083 29.2408 62.2435 29.3189 61.6378 29.3189ZM61.7026 26.256C62.0513 26.256 62.2926 26.1996 62.429 26.0846C62.5653 25.9697 62.6346 25.7766 62.6346 25.5011C62.6346 25.2256 62.5653 25.0261 62.429 24.9003C62.2926 24.7745 62.049 24.7137 61.7026 24.7137C61.3764 24.7137 61.1372 24.7745 60.9875 24.8938C60.8378 25.0131 60.7618 25.217 60.7618 25.5011C60.7618 25.7658 60.8333 25.9588 60.9741 26.0781C61.1171 26.1974 61.3607 26.256 61.7026 26.256Z" fill="#9C63F7"/>
<path d="M64.771 27.9478V24.9001H64.1922L64.2727 24.2536H65.6448V27.9478H64.771ZM64.6995 23.4814V22.7808H65.656V23.4814H64.6995Z" fill="#9C63F7"/>
<path d="M68.15 28.026C67.7433 28.026 67.4394 27.9218 67.2382 27.7093C67.0371 27.4988 66.9365 27.2125 66.9365 26.8481V24.9153H66.3756V24.2537H66.9365V23.4034L67.8036 23.1453V24.2516H68.816L68.7601 24.9132H67.8036V26.8004C67.8036 27.0129 67.855 27.1626 67.9556 27.2494C68.0584 27.334 68.2238 27.3774 68.454 27.3774C68.5992 27.3774 68.7512 27.3513 68.9121 27.2993V27.9001C68.7043 27.9847 68.4517 28.026 68.15 28.026Z" fill="#9C63F7"/>
<path d="M70.8005 28.0259C70.5591 28.0259 70.3357 27.9847 70.1301 27.9001C69.9245 27.8177 69.7591 27.6919 69.6362 27.5227C69.5133 27.3535 69.4507 27.1452 69.4507 26.8958C69.4507 26.5422 69.5758 26.258 69.8239 26.0433C70.072 25.8264 70.4563 25.7201 70.9771 25.7201H72.1973V25.5574C72.1973 25.3817 72.1682 25.2407 72.1123 25.1365C72.0565 25.0324 71.9537 24.9565 71.8062 24.911C71.6587 24.8632 71.4441 24.8415 71.1603 24.8415C70.7111 24.8415 70.291 24.9066 69.8999 25.0368V24.4055C70.072 24.3383 70.2798 24.2841 70.5256 24.2428C70.7714 24.2016 71.0374 24.1799 71.3212 24.1799C71.8777 24.1799 72.3023 24.2884 72.595 24.5075C72.8856 24.7266 73.0331 25.0823 73.0331 25.5747V27.9522H72.2866L72.2308 27.5769C72.0743 27.7222 71.8844 27.835 71.6564 27.9131C71.4285 27.9869 71.1424 28.0259 70.8005 28.0259ZM71.0329 27.4185C71.2944 27.4185 71.5246 27.3752 71.719 27.2906C71.9134 27.2038 72.0743 27.0888 72.1973 26.9435V26.2971H70.9927C70.7357 26.2971 70.5502 26.3448 70.434 26.4424C70.3178 26.5379 70.2619 26.6854 70.2619 26.8828C70.2619 27.0758 70.329 27.2125 70.463 27.2949C70.5971 27.3773 70.7871 27.4185 71.0329 27.4185Z" fill="#9C63F7"/>
<path d="M74.9841 28.0263C74.6734 28.0263 74.4388 27.9525 74.2779 27.805C74.117 27.6575 74.0365 27.4124 74.0365 27.0696V22.6965H74.9125V26.9915C74.9125 27.1369 74.9394 27.2367 74.993 27.2866C75.0466 27.3386 75.1271 27.3646 75.2344 27.3646C75.364 27.3646 75.4869 27.3495 75.6031 27.3191V27.9351C75.5003 27.972 75.4042 27.9959 75.3103 28.0089C75.2165 28.0197 75.107 28.0263 74.9841 28.0263Z" fill="#9C63F7"/>
<path d="M78.0435 27.948L80.0191 22.9285H80.9979L82.9578 27.948H82.0595L81.5454 26.6551H79.4648L78.9508 27.948H78.0435ZM79.6012 26H81.4002L80.5018 23.7007L79.6012 26Z" fill="#9C63F7"/>
<path d="M83.6887 27.948V27.2864H84.4284V27.948H83.6887Z" fill="#9C63F7"/>
<path d="M85.3201 27.948V22.9285H86.1961V27.948H85.3201Z" fill="#9C63F7"/>
<path d="M87.0789 27.948V27.2864H87.8186V27.948H87.0789Z" fill="#9C63F7"/>
<path d="M91.4301 27.9478L90.4266 24.2537H91.3027L91.962 26.9435L92.7084 24.707V24.2558H93.3744L94.2012 26.9456L94.8605 24.2558H95.7276L94.7309 27.95H93.904L93.0928 25.5335L92.2659 27.95H91.4301V27.9478Z" fill="#9C63F7"/>
<path d="M98.0718 28.0261C97.3858 28.0261 96.8852 27.8591 96.5656 27.5272C96.246 27.1953 96.0873 26.7202 96.0873 26.0998C96.0873 25.4816 96.2482 25.0066 96.5701 24.6725C96.8919 24.3406 97.3925 24.1736 98.0718 24.1736C98.7579 24.1736 99.2608 24.3406 99.5803 24.6725C99.9021 25.0044 100.063 25.4794 100.063 26.0998C100.063 26.7181 99.9044 27.1931 99.5848 27.5272C99.2675 27.8591 98.7624 28.0261 98.0718 28.0261ZM98.0718 27.3081C98.4741 27.3081 98.7579 27.2126 98.9278 27.0239C99.0954 26.8352 99.1803 26.5272 99.1803 26.0998C99.1803 25.6747 99.0954 25.3666 98.9278 25.1801C98.7602 24.9935 98.4741 24.9003 98.0718 24.9003C97.6763 24.9003 97.3925 24.9935 97.2249 25.1801C97.0572 25.3666 96.9723 25.6747 96.9723 26.0998C96.9723 26.525 97.0572 26.833 97.2249 27.0239C97.3925 27.2148 97.674 27.3081 98.0718 27.3081Z" fill="#9C63F7"/>
<path d="M100.946 27.948V24.2539H101.748L101.795 24.6834C101.976 24.5684 102.193 24.4643 102.445 24.371C102.698 24.2777 102.946 24.2127 103.192 24.1758V24.8222C103.042 24.8482 102.879 24.8851 102.707 24.935C102.533 24.9849 102.367 25.0391 102.213 25.0977C102.059 25.1584 101.927 25.2192 101.82 25.2799V27.9458H100.946V27.948Z" fill="#9C63F7"/>
<path d="M103.86 27.9479V22.6941H104.736V25.7331L106.334 24.2516H107.337L105.786 25.7396L107.424 27.9457H106.502L105.241 26.1908L104.736 26.6594V27.9457H103.86V27.9479Z" fill="#9C63F7"/>
<path d="M109.61 28.0261C108.946 28.0261 108.432 27.8678 108.068 27.5511C107.704 27.2343 107.523 26.7484 107.523 26.0933C107.523 25.5012 107.677 25.0326 107.988 24.6899C108.298 24.3471 108.77 24.1758 109.4 24.1758C109.979 24.1758 110.412 24.3233 110.705 24.6161C110.996 24.909 111.143 25.2886 111.143 25.7506V26.4361H108.356C108.399 26.794 108.533 27.0413 108.759 27.1758C108.984 27.3103 109.326 27.3775 109.787 27.3775C109.979 27.3775 110.178 27.3602 110.381 27.3233C110.585 27.2864 110.761 27.2409 110.911 27.1823V27.8048C110.739 27.8786 110.542 27.9328 110.321 27.9675C110.1 28.0066 109.863 28.0261 109.61 28.0261ZM108.359 25.8829H110.374V25.6248C110.374 25.371 110.303 25.1714 110.158 25.0283C110.012 24.8851 109.769 24.8135 109.427 24.8135C109.02 24.8135 108.741 24.9003 108.589 25.0717C108.435 25.243 108.359 25.5142 108.359 25.8829Z" fill="#9C63F7"/>
<path d="M112.028 27.948V24.2539H112.83L112.877 24.6834C113.058 24.5684 113.275 24.4643 113.528 24.371C113.78 24.2777 114.028 24.2127 114.274 24.1758V24.8222C114.124 24.8482 113.961 24.8851 113.789 24.935C113.615 24.9849 113.452 25.0391 113.295 25.0977C113.141 25.1584 113.009 25.2192 112.902 25.2799V27.9458H112.028V27.948Z" fill="#9C63F7"/>
</svg>
