<svg width="593" height="184" viewBox="0 0 593 184" fill="none" xmlns="http://www.w3.org/2000/svg">
<g clip-path="url(#clip0_1_637)">
<path d="M372.079 100.821C376.279 100.821 379.693 97.4362 379.693 93.2533C379.693 89.0784 376.287 85.6858 372.079 85.6858C367.878 85.6858 364.465 89.0704 364.465 93.2533C364.465 97.4283 367.87 100.821 372.079 100.821Z" fill="#9C63F7"/>
<path d="M262.092 100.821C266.292 100.821 269.706 97.4362 269.706 93.2533C269.706 89.0784 266.301 85.6858 262.092 85.6858C257.891 85.6858 254.478 89.0704 254.478 93.2533C254.478 97.4283 257.883 100.821 262.092 100.821Z" fill="#9C63F7"/>
<path d="M423.642 100.821C427.843 100.821 431.257 97.4362 431.257 93.2533C431.257 89.0784 427.851 85.6858 423.642 85.6858C419.442 85.6858 416.028 89.0704 416.028 93.2533C416.028 97.4283 419.434 100.821 423.642 100.821Z" fill="#9C63F7"/>
<path d="M181.718 101.22V27.7238H214.785C222.367 27.7238 228.832 28.9611 234.19 31.4357C239.547 33.9103 243.643 37.8697 246.478 43.3059C249.313 48.7421 250.727 55.9584 250.727 64.9309C250.727 77.5594 247.627 86.7714 241.426 92.5508C235.226 98.3382 226.343 101.228 214.785 101.228H181.718V101.22ZM203.308 84.7837H212.038C215.636 84.7837 218.656 84.2728 221.106 83.2431C223.556 82.2133 225.427 80.2735 226.736 77.4237C228.037 74.5739 228.688 70.407 228.688 64.9309C228.688 59.4548 228.094 55.216 226.905 52.2065C225.716 49.2051 223.901 47.1136 221.451 45.9322C219.002 44.7507 215.861 44.16 212.038 44.16H203.308V84.7837Z" fill="#9C63F7"/>
<path d="M277.376 101.22L305.737 27.7238H328.587L356.947 101.22H334.442L328.242 85.582H305.961L299.873 101.22H277.376ZM308.837 70.1755H325.374L317.11 48.6064L308.837 70.1755Z" fill="#9C63F7"/>
<path d="M387.187 101.22V27.7238H408.776V101.22H387.187Z" fill="#9C63F7"/>
<path d="M453.697 101.22L436.469 27.7238H457.601L465.986 66.6392L474.138 38.7957V27.7238H491.824L503.077 66.7509L511.92 27.7238H533.051L515.943 101.22H496.426L485.286 63.2146L473.214 101.22H453.697Z" fill="#9C63F7"/>
<path d="M560.961 100.534C550.086 100.534 542.071 98.1387 536.906 93.3412C531.742 88.5516 529.156 81.5508 529.156 72.3388C529.156 63.2067 531.758 56.2298 536.962 51.4003C542.167 46.5708 550.167 44.1521 560.961 44.1521C571.828 44.1521 579.884 46.5708 585.129 51.4003C590.374 56.2298 592.992 63.2147 592.992 72.3388C592.992 81.5428 590.39 88.5436 585.185 93.3412C579.98 98.1387 571.909 100.534 560.961 100.534ZM560.961 84.8955C564.479 84.8955 567.025 83.9057 568.599 81.926C570.166 79.9463 570.953 76.7532 570.953 72.3388C570.953 68.0043 570.166 64.8272 568.599 62.8075C567.033 60.7959 564.487 59.7821 560.961 59.7821C557.516 59.7821 555.026 60.7879 553.5 62.8075C551.966 64.8272 551.203 67.9963 551.203 72.3388C551.203 76.7532 551.966 79.9463 553.5 81.926C555.026 83.9137 557.516 84.8955 560.961 84.8955Z" fill="#9C63F7"/>
<path d="M191.3 129.215V122.358L184.634 110.743H187.895L192.858 119.724L197.822 110.743H201.083L194.416 122.358V129.215H191.3Z" fill="#9C63F7"/>
<path d="M208.062 129.503C205.597 129.503 203.798 128.888 202.649 127.666C201.5 126.445 200.93 124.697 200.93 122.414C200.93 120.139 201.508 118.391 202.665 117.161C203.822 115.94 205.621 115.325 208.062 115.325C210.528 115.325 212.335 115.94 213.484 117.161C214.64 118.383 215.219 120.131 215.219 122.414C215.219 124.689 214.648 126.437 213.5 127.666C212.359 128.888 210.544 129.503 208.062 129.503ZM208.062 126.86C209.508 126.86 210.528 126.509 211.139 125.815C211.741 125.12 212.046 123.986 212.046 122.414C212.046 120.849 211.741 119.716 211.139 119.029C210.536 118.343 209.508 118 208.062 118C206.641 118 205.621 118.343 205.018 119.029C204.416 119.716 204.111 120.849 204.111 122.414C204.111 123.979 204.416 125.112 205.018 125.815C205.629 126.517 206.641 126.86 208.062 126.86Z" fill="#9C63F7"/>
<path d="M223.331 129.502C221.692 129.502 220.439 129.055 219.564 128.153C218.688 127.251 218.255 125.934 218.255 124.194V115.621H221.403V124.194C221.403 125.208 221.652 125.958 222.158 126.429C222.656 126.908 223.427 127.148 224.463 127.148C225.234 127.148 225.941 127.004 226.6 126.717C227.25 126.429 227.82 126.046 228.302 125.567V115.613H231.419V129.207H228.559L228.415 127.802C227.796 128.281 227.065 128.68 226.222 129.008C225.371 129.343 224.407 129.502 223.331 129.502Z" fill="#9C63F7"/>
<path d="M235.194 129.215V115.621H238.077L238.246 117.201C238.896 116.778 239.675 116.395 240.583 116.052C241.49 115.708 242.382 115.469 243.266 115.333V117.712C242.727 117.808 242.141 117.944 241.523 118.127C240.896 118.311 240.302 118.51 239.748 118.726C239.193 118.949 238.72 119.173 238.334 119.396V129.207H235.194V129.215Z" fill="#9C63F7"/>
<path d="M252.422 135.41V115.621H255.136L255.313 116.97C255.932 116.419 256.598 116.004 257.329 115.732C258.06 115.469 258.927 115.333 259.923 115.333C261.883 115.333 263.417 115.868 264.509 116.922C265.602 117.983 266.156 119.74 266.156 122.182C266.156 124.625 265.586 126.461 264.453 127.674C263.321 128.888 261.771 129.494 259.803 129.494C258.148 129.494 256.735 129.111 255.562 128.345V135.402H252.422V135.41ZM259 127.148C261.658 127.148 262.983 125.487 262.983 122.158C262.983 120.554 262.686 119.412 262.092 118.734C261.497 118.055 260.494 117.712 259.088 117.712C257.682 117.712 256.51 118.191 255.57 119.149V125.95C256.012 126.317 256.51 126.605 257.056 126.82C257.602 127.044 258.253 127.148 259 127.148Z" fill="#9C63F7"/>
<path d="M276.26 129.502C273.875 129.502 272.027 128.92 270.718 127.754C269.409 126.589 268.758 124.801 268.758 122.39C268.758 120.211 269.312 118.486 270.429 117.225C271.545 115.964 273.24 115.333 275.505 115.333C277.585 115.333 279.143 115.876 280.196 116.954C281.24 118.031 281.77 119.428 281.77 121.129V123.651H271.754C271.907 124.968 272.389 125.878 273.2 126.373C274.011 126.868 275.24 127.116 276.894 127.116C277.585 127.116 278.3 127.052 279.031 126.916C279.762 126.78 280.396 126.613 280.934 126.397V128.688C280.316 128.96 279.609 129.159 278.814 129.287C278.019 129.431 277.168 129.502 276.26 129.502ZM271.762 121.616H279.007V120.666C279.007 119.732 278.75 118.997 278.228 118.47C277.706 117.944 276.83 117.68 275.601 117.68C274.14 117.68 273.136 117.999 272.589 118.63C272.035 119.261 271.762 120.259 271.762 121.616Z" fill="#9C63F7"/>
<path d="M284.95 129.215V115.621H287.834L288.003 117.201C288.653 116.778 289.432 116.395 290.34 116.052C291.247 115.708 292.139 115.469 293.022 115.333V117.712C292.484 117.808 291.898 117.944 291.279 118.127C290.653 118.311 290.059 118.51 289.504 118.726C288.95 118.949 288.476 119.173 288.091 119.396V129.207H284.95V129.215Z" fill="#9C63F7"/>
<path d="M299.841 129.502C298.901 129.502 298.002 129.439 297.143 129.303C296.283 129.167 295.576 129.008 295.022 128.816V126.174C295.673 126.421 296.396 126.613 297.191 126.748C297.978 126.884 298.733 126.948 299.44 126.948C300.516 126.948 301.287 126.852 301.745 126.661C302.211 126.469 302.435 126.094 302.435 125.543C302.435 125.144 302.299 124.825 302.018 124.593C301.737 124.362 301.327 124.154 300.773 123.962C300.227 123.771 299.528 123.539 298.677 123.276C297.865 123.013 297.167 122.717 296.572 122.406C295.978 122.087 295.512 121.687 295.183 121.185C294.853 120.69 294.693 120.035 294.693 119.237C294.693 117.991 295.143 117.034 296.05 116.355C296.958 115.676 298.404 115.333 300.411 115.333C301.199 115.333 301.954 115.389 302.66 115.509C303.375 115.621 303.978 115.764 304.476 115.94V118.55C303.937 118.343 303.343 118.175 302.701 118.063C302.058 117.952 301.456 117.896 300.901 117.896C299.897 117.896 299.142 117.983 298.636 118.151C298.13 118.319 297.873 118.67 297.873 119.181C297.873 119.716 298.138 120.091 298.669 120.314C299.199 120.538 300.05 120.833 301.223 121.216C302.299 121.544 303.158 121.887 303.793 122.246C304.427 122.613 304.885 123.044 305.166 123.547C305.447 124.05 305.584 124.713 305.584 125.511C305.584 126.852 305.094 127.85 304.114 128.513C303.126 129.175 301.705 129.502 299.841 129.502Z" fill="#9C63F7"/>
<path d="M314.909 129.503C312.443 129.503 310.644 128.888 309.495 127.666C308.347 126.445 307.777 124.697 307.777 122.414C307.777 120.139 308.355 118.391 309.511 117.161C310.668 115.94 312.467 115.325 314.909 115.325C317.375 115.325 319.182 115.94 320.33 117.161C321.487 118.383 322.065 120.131 322.065 122.414C322.065 124.689 321.495 126.437 320.346 127.666C319.198 128.888 317.391 129.503 314.909 129.503ZM314.909 126.86C316.355 126.86 317.375 126.509 317.985 125.815C318.587 125.12 318.893 123.986 318.893 122.414C318.893 120.849 318.587 119.716 317.985 119.029C317.383 118.343 316.355 118 314.909 118C313.487 118 312.467 118.343 311.865 119.029C311.262 119.716 310.957 120.849 310.957 122.414C310.957 123.979 311.262 125.112 311.865 125.815C312.467 126.517 313.479 126.86 314.909 126.86Z" fill="#9C63F7"/>
<path d="M325.238 129.215V115.621H328.121L328.266 117.058C328.884 116.579 329.615 116.171 330.474 115.836C331.334 115.501 332.281 115.333 333.317 115.333C335.084 115.333 336.378 115.748 337.181 116.571C337.984 117.393 338.394 118.678 338.394 120.41V129.215H335.277V120.554C335.277 119.5 335.06 118.766 334.627 118.343C334.193 117.92 333.382 117.712 332.185 117.712C331.47 117.712 330.771 117.856 330.089 118.143C329.406 118.431 328.836 118.806 328.37 119.261V129.215H325.238Z" fill="#9C63F7"/>
<path d="M345.871 129.502C345.004 129.502 344.201 129.351 343.462 129.039C342.723 128.736 342.128 128.273 341.687 127.65C341.245 127.028 341.02 126.262 341.02 125.344C341.02 124.042 341.47 122.997 342.361 122.206C343.253 121.408 344.634 121.017 346.506 121.017H350.891V120.418C350.891 119.772 350.787 119.253 350.586 118.87C350.385 118.486 350.016 118.207 349.485 118.039C348.955 117.864 348.184 117.784 347.164 117.784C345.55 117.784 344.04 118.023 342.634 118.502V116.179C343.253 115.932 344 115.732 344.883 115.581C345.767 115.429 346.723 115.349 347.743 115.349C349.743 115.349 351.269 115.748 352.321 116.555C353.365 117.361 353.895 118.67 353.895 120.482V129.231H351.212L351.012 127.85C350.449 128.385 349.767 128.8 348.947 129.087C348.128 129.359 347.1 129.502 345.871 129.502ZM346.707 127.267C347.646 127.267 348.473 127.108 349.172 126.796C349.871 126.477 350.449 126.054 350.891 125.519V123.14H346.562C345.638 123.14 344.972 123.316 344.554 123.675C344.136 124.026 343.936 124.569 343.936 125.296C343.936 126.006 344.177 126.509 344.658 126.812C345.14 127.116 345.823 127.267 346.707 127.267Z" fill="#9C63F7"/>
<path d="M360.907 129.502C359.79 129.502 358.947 129.231 358.369 128.688C357.79 128.145 357.501 127.243 357.501 125.982V109.889H360.65V125.695C360.65 126.23 360.746 126.597 360.939 126.78C361.132 126.972 361.421 127.068 361.806 127.068C362.272 127.068 362.714 127.012 363.131 126.9V129.167C362.762 129.303 362.417 129.391 362.079 129.439C361.742 129.478 361.348 129.502 360.907 129.502Z" fill="#9C63F7"/>
<path d="M378.111 129.502C376.882 129.502 375.789 129.295 374.85 128.872C373.91 128.449 373.179 127.754 372.657 126.78C372.135 125.806 371.878 124.497 371.878 122.853C371.878 121.224 372.159 119.851 372.713 118.734C373.267 117.616 374.046 116.77 375.034 116.195C376.022 115.621 377.147 115.333 378.4 115.333C379.227 115.333 379.966 115.429 380.608 115.621C381.251 115.812 381.869 116.108 382.472 116.507V109.881H385.62V129.215H382.938L382.737 127.866C382.118 128.417 381.444 128.832 380.713 129.095C379.974 129.367 379.107 129.502 378.111 129.502ZM378.946 127.148C380.351 127.148 381.524 126.669 382.464 125.711V118.909C381.556 118.103 380.424 117.704 379.058 117.704C377.733 117.704 376.729 118.143 376.054 119.021C375.38 119.899 375.042 121.185 375.042 122.861C375.042 124.489 375.356 125.607 375.982 126.214C376.609 126.844 377.597 127.148 378.946 127.148Z" fill="#9C63F7"/>
<path d="M390.777 129.215V117.999H388.696L388.985 115.621H393.917V129.215H390.777ZM390.52 112.779V110.2H393.957V112.779H390.52Z" fill="#9C63F7"/>
<path d="M403.242 134.26C402.222 134.26 401.202 134.196 400.182 134.077C399.162 133.949 398.294 133.765 397.588 133.518V131.107C398.359 131.354 399.242 131.546 400.238 131.682C401.242 131.817 402.19 131.881 403.097 131.881C404.487 131.881 405.491 131.802 406.125 131.65C406.76 131.498 407.081 131.155 407.081 130.62C407.081 130.221 406.929 129.934 406.615 129.774C406.31 129.614 405.724 129.526 404.856 129.526H401.162C398.68 129.526 397.435 128.656 397.435 126.916C397.435 126.365 397.596 125.846 397.925 125.367C398.254 124.889 398.768 124.529 399.483 124.274C398.696 123.891 398.11 123.364 397.74 122.693C397.363 122.023 397.178 121.225 397.178 120.283C397.178 118.542 397.7 117.281 398.752 116.499C399.796 115.716 401.371 115.325 403.467 115.325C403.909 115.325 404.374 115.357 404.856 115.429C405.338 115.493 405.716 115.557 405.981 115.613H411.001L410.912 117.648H408.599C408.969 117.952 409.234 118.335 409.41 118.798C409.587 119.261 409.667 119.756 409.667 120.291C409.667 121.743 409.226 122.885 408.342 123.715C407.459 124.545 406.117 124.96 404.334 124.96C404.029 124.96 403.74 124.944 403.483 124.92C403.226 124.889 402.937 124.857 402.632 124.817C402.053 124.873 401.539 125.024 401.073 125.28C400.608 125.527 400.383 125.862 400.383 126.285C400.383 126.573 400.495 126.78 400.728 126.9C400.961 127.02 401.346 127.084 401.885 127.084H405.724C407.089 127.084 408.141 127.371 408.88 127.962C409.619 128.545 409.989 129.391 409.989 130.5C409.989 131.841 409.402 132.799 408.246 133.382C407.089 133.973 405.419 134.26 403.242 134.26ZM403.475 122.989C404.728 122.989 405.595 122.781 406.085 122.358C406.575 121.935 406.824 121.224 406.824 120.211C406.824 119.197 406.575 118.462 406.085 118C405.595 117.537 404.72 117.313 403.475 117.313C402.302 117.313 401.443 117.537 400.905 117.976C400.367 118.415 400.093 119.165 400.093 120.211C400.093 121.185 400.351 121.895 400.857 122.334C401.371 122.773 402.246 122.989 403.475 122.989Z" fill="#9C63F7"/>
<path d="M414.502 129.215V117.999H412.422L412.711 115.621H417.643V129.215H414.502ZM414.245 112.779V110.2H417.683V112.779H414.245Z" fill="#9C63F7"/>
<path d="M426.646 129.502C425.185 129.502 424.092 129.119 423.37 128.337C422.647 127.563 422.285 126.509 422.285 125.168V118.055H420.269V115.621H422.285V112.491L425.402 111.542V115.613H429.04L428.839 118.047H425.402V124.992C425.402 125.775 425.586 126.325 425.948 126.645C426.317 126.956 426.912 127.116 427.739 127.116C428.261 127.116 428.807 127.02 429.385 126.828V129.039C428.638 129.351 427.731 129.502 426.646 129.502Z" fill="#9C63F7"/>
<path d="M436.172 129.502C435.305 129.502 434.501 129.351 433.762 129.039C433.024 128.736 432.429 128.273 431.987 127.65C431.546 127.028 431.321 126.262 431.321 125.344C431.321 124.042 431.771 122.997 432.662 122.206C433.554 121.408 434.935 121.017 436.806 121.017H441.192V120.418C441.192 119.772 441.087 119.253 440.887 118.87C440.686 118.486 440.316 118.207 439.786 118.039C439.256 117.864 438.485 117.784 437.465 117.784C435.851 117.784 434.341 118.023 432.935 118.502V116.179C433.554 115.932 434.301 115.732 435.184 115.581C436.068 115.429 437.023 115.349 438.043 115.349C440.043 115.349 441.569 115.748 442.621 116.555C443.666 117.361 444.196 118.67 444.196 120.482V129.231H441.513L441.312 127.85C440.75 128.385 440.067 128.8 439.248 129.087C438.429 129.359 437.401 129.502 436.172 129.502ZM437.007 127.267C437.947 127.267 438.774 127.108 439.473 126.796C440.172 126.477 440.75 126.054 441.192 125.519V123.14H436.863C435.939 123.14 435.272 123.316 434.855 123.675C434.437 124.026 434.236 124.569 434.236 125.296C434.236 126.006 434.477 126.509 434.959 126.812C435.441 127.116 436.124 127.267 437.007 127.267Z" fill="#9C63F7"/>
<path d="M451.207 129.502C450.091 129.502 449.248 129.231 448.669 128.688C448.091 128.145 447.802 127.243 447.802 125.982V109.889H450.95V125.695C450.95 126.23 451.047 126.597 451.24 126.78C451.432 126.972 451.722 127.068 452.107 127.068C452.573 127.068 453.015 127.012 453.432 126.9V129.167C453.063 129.303 452.717 129.391 452.38 129.439C452.043 129.478 451.649 129.502 451.207 129.502Z" fill="#9C63F7"/>
<path d="M462.203 129.215L469.303 110.743H472.821L479.865 129.215H476.636L474.789 124.457H467.311L465.464 129.215H462.203ZM467.801 122.047H474.267L471.038 113.585L467.801 122.047Z" fill="#9C63F7"/>
<path d="M482.491 129.215V126.78H485.15V129.215H482.491Z" fill="#9C63F7"/>
<path d="M488.354 129.215V110.743H491.503V129.215H488.354Z" fill="#9C63F7"/>
<path d="M494.675 129.215V126.78H497.334V129.215H494.675Z" fill="#9C63F7"/>
<path d="M510.313 129.215L506.707 115.621H509.855L512.225 125.519L514.907 117.289V115.629H517.301L520.272 125.527L522.642 115.629H525.758L522.176 129.223H519.204L516.289 120.33L513.317 129.223H510.313V129.215Z" fill="#9C63F7"/>
<path d="M534.183 129.503C531.718 129.503 529.919 128.888 528.77 127.666C527.622 126.445 527.051 124.697 527.051 122.414C527.051 120.139 527.63 118.391 528.786 117.161C529.943 115.94 531.742 115.325 534.183 115.325C536.649 115.325 538.456 115.94 539.605 117.161C540.761 118.383 541.34 120.131 541.34 122.414C541.34 124.689 540.769 126.437 539.621 127.666C538.48 128.888 536.665 129.503 534.183 129.503ZM534.183 126.86C535.629 126.86 536.649 126.509 537.26 125.815C537.862 125.12 538.167 123.986 538.167 122.414C538.167 120.849 537.862 119.716 537.26 119.029C536.657 118.343 535.629 118 534.183 118C532.762 118 531.742 118.343 531.139 119.029C530.537 119.716 530.232 120.849 530.232 122.414C530.232 123.979 530.537 125.112 531.139 125.815C531.742 126.517 532.754 126.86 534.183 126.86Z" fill="#9C63F7"/>
<path d="M544.512 129.215V115.621H547.396L547.564 117.201C548.215 116.778 548.994 116.395 549.902 116.052C550.809 115.708 551.701 115.469 552.584 115.333V117.712C552.046 117.808 551.46 117.944 550.841 118.127C550.215 118.311 549.62 118.51 549.066 118.726C548.512 118.949 548.038 119.173 547.653 119.396V129.207H544.512V129.215Z" fill="#9C63F7"/>
<path d="M554.986 129.215V109.881H558.134V121.065L563.877 115.613H567.483L561.909 121.089L567.796 129.207H564.479L559.949 122.749L558.134 124.473V129.207H554.986V129.215Z" fill="#9C63F7"/>
<path d="M575.651 129.502C573.266 129.502 571.419 128.92 570.109 127.754C568.8 126.589 568.15 124.801 568.15 122.39C568.15 120.211 568.704 118.486 569.82 117.225C570.937 115.964 572.631 115.333 574.896 115.333C576.977 115.333 578.535 115.876 579.587 116.954C580.631 118.031 581.161 119.428 581.161 121.129V123.651H571.146C571.298 124.968 571.78 125.878 572.591 126.373C573.402 126.868 574.631 127.116 576.286 127.116C576.977 127.116 577.691 127.052 578.422 126.916C579.153 126.78 579.788 126.613 580.326 126.397V128.688C579.707 128.96 579.001 129.159 578.205 129.287C577.41 129.431 576.559 129.502 575.651 129.502ZM571.154 121.616H578.398V120.666C578.398 119.732 578.141 118.997 577.619 118.47C577.097 117.944 576.222 117.68 574.993 117.68C573.531 117.68 572.527 117.999 571.981 118.63C571.427 119.261 571.154 120.259 571.154 121.616Z" fill="#9C63F7"/>
<path d="M584.342 129.215V115.621H587.225L587.394 117.201C588.044 116.778 588.824 116.395 589.731 116.052C590.639 115.708 591.53 115.469 592.414 115.333V117.712C591.876 117.808 591.289 117.944 590.671 118.127C590.044 118.311 589.458 118.51 588.896 118.726C588.342 118.949 587.868 119.173 587.482 119.396V129.207H584.342V129.215Z" fill="#9C63F7"/>
<path d="M122.476 6.89701H85.9639C84.7832 2.93761 82.3978 0 77.1771 0C71.9565 0 69.2578 2.93761 68.0772 6.89701H31.8781C14.4572 6.89701 0.337402 20.9305 0.337402 38.2449V106.385C0.337402 123.699 14.4572 137.733 31.8781 137.733H50.1985V171.747C50.1985 178.516 55.7163 184 62.5272 184H73.4745V160.866H80.8717V184H91.819C98.6299 184 104.148 178.516 104.148 171.747V137.733H122.476C139.897 137.733 154.017 123.699 154.017 106.385V38.2449C154.017 20.9305 139.897 6.89701 122.476 6.89701ZM131.054 112.068C131.054 113.801 129.632 115.214 127.874 115.214H26.2398C24.4808 115.214 23.0592 113.809 23.0592 112.068V32.8646C23.0592 31.1323 24.4808 29.7194 26.2398 29.7194H127.865C129.624 29.7194 131.046 31.1243 131.046 32.8646V112.068H131.054Z" fill="url(#paint0_linear_1_637)"/>
<path d="M23.2039 153.259V164.961C23.2039 170.741 27.9185 175.435 33.7415 175.435C39.5645 175.435 44.2792 170.749 44.2792 164.961V142.794H33.7415C27.9185 142.786 23.2039 147.471 23.2039 153.259Z" fill="url(#paint1_linear_1_637)"/>
<path d="M120.508 163.724H132.283C138.098 163.724 142.821 159.038 142.821 153.251C142.821 147.463 138.106 142.778 132.283 142.778H109.979V153.251C109.979 159.038 114.693 163.724 120.508 163.724Z" fill="url(#paint2_linear_1_637)"/>
<path d="M49.9577 78.7967C55.0234 78.7967 59.1299 74.7152 59.1299 69.6805C59.1299 64.6458 55.0234 60.5643 49.9577 60.5643C44.892 60.5643 40.7854 64.6458 40.7854 69.6805C40.7854 74.7152 44.892 78.7967 49.9577 78.7967Z" fill="url(#paint3_linear_1_637)"/>
<path d="M110.742 60.1972C109.585 59.2233 108.075 58.7363 106.557 58.7363C105.746 58.7363 104.927 58.88 104.164 59.1674L104.156 59.1754L101.915 60.5963L87.5381 69.6965L101.762 78.8686L104.156 80.4092L104.164 80.4172C106.332 81.2314 108.959 80.8882 110.742 79.3795C113.055 77.4317 113.416 73.9034 111.111 71.9476L107.746 69.7843L110.742 67.7807C113.047 65.8329 113.047 62.1449 110.742 60.1972Z" fill="url(#paint4_linear_1_637)"/>
<path d="M67.8843 88.9347C67.8843 93.9717 71.9885 98.0509 77.0565 98.0509C82.1246 98.0509 86.2288 93.9717 86.2288 88.9347" fill="url(#paint5_linear_1_637)"/>
</g>
<defs>
<linearGradient id="paint0_linear_1_637" x1="0.336013" y1="91.9988" x2="154.02" y2="91.9988" gradientUnits="userSpaceOnUse">
<stop stop-color="#07EDD2"/>
<stop offset="0.8034" stop-color="#9569F5"/>
</linearGradient>
<linearGradient id="paint1_linear_1_637" x1="23.2053" y1="159.106" x2="44.2738" y2="159.106" gradientUnits="userSpaceOnUse">
<stop stop-color="#45B3E0"/>
<stop offset="1" stop-color="#8F6EF4"/>
</linearGradient>
<linearGradient id="paint2_linear_1_637" x1="109.978" y1="153.256" x2="142.819" y2="153.256" gradientUnits="userSpaceOnUse">
<stop stop-color="#45B3E0"/>
<stop offset="1" stop-color="#8F6EF4"/>
</linearGradient>
<linearGradient id="paint3_linear_1_637" x1="40.783" y1="69.6795" x2="59.1263" y2="69.6795" gradientUnits="userSpaceOnUse">
<stop stop-color="#5A9FE5"/>
<stop offset="0.5542" stop-color="#9C63F7"/>
<stop offset="1" stop-color="#9668F6"/>
</linearGradient>
<linearGradient id="paint4_linear_1_637" x1="87.5403" y1="69.791" x2="112.666" y2="69.791" gradientUnits="userSpaceOnUse">
<stop stop-color="#5A9FE5"/>
<stop offset="0.5542" stop-color="#9C63F7"/>
<stop offset="1" stop-color="#9668F6"/>
</linearGradient>
<linearGradient id="paint5_linear_1_637" x1="67.8837" y1="93.4926" x2="86.227" y2="93.4926" gradientUnits="userSpaceOnUse">
<stop stop-color="#5A9FE5"/>
<stop offset="0.5542" stop-color="#9C63F7"/>
<stop offset="1" stop-color="#9668F6"/>
</linearGradient>
<clipPath id="clip0_1_637">
<rect width="593" height="184" fill="white"/>
</clipPath>
</defs>
</svg>
