<svg width="700" height="688" viewBox="0 0 700 688" fill="none" xmlns="http://www.w3.org/2000/svg">
<path d="M187.5 54.0327C194.404 54.0327 200 48.5377 200 41.7592C200 34.9808 194.404 29.4857 187.5 29.4857C180.596 29.4857 175 34.9808 175 41.7592C175 48.5377 180.596 54.0327 187.5 54.0327Z" fill="url(#paint0_linear_1_632)"/>
<path d="M460.5 542.523C464.642 542.523 468 539.225 468 535.158C468 531.091 464.642 527.794 460.5 527.794C456.358 527.794 453 531.091 453 535.158C453 539.225 456.358 542.523 460.5 542.523Z" fill="url(#paint1_linear_1_632)"/>
<path d="M574.5 344C574.5 465.85 473.996 564.643 350 564.643C226.004 564.643 125.5 465.85 125.5 344C125.5 222.15 226.004 123.357 350 123.357C473.996 123.357 574.5 222.15 574.5 344Z" stroke="#646464" stroke-opacity="0.4"/>
<path d="M699.5 344C699.5 533.702 543.032 687.5 350 687.5C156.968 687.5 0.5 533.702 0.5 344C0.5 154.298 156.968 0.5 350 0.5C543.032 0.5 699.5 154.298 699.5 344Z" stroke="#646464" stroke-opacity="0.4"/>
<defs>
<linearGradient id="paint0_linear_1_632" x1="174.997" y1="41.7579" x2="199.995" y2="41.7579" gradientUnits="userSpaceOnUse">
<stop stop-color="#5A9FE5"/>
<stop offset="0.5542" stop-color="#9C63F7"/>
<stop offset="1" stop-color="#9668F6"/>
</linearGradient>
<linearGradient id="paint1_linear_1_632" x1="452.998" y1="535.158" x2="467.997" y2="535.158" gradientUnits="userSpaceOnUse">
<stop stop-color="#5A9FE5"/>
<stop offset="0.5542" stop-color="#9C63F7"/>
<stop offset="1" stop-color="#9668F6"/>
</linearGradient>
</defs>
</svg>
