<svg width="543" height="552" viewBox="0 0 543 552" fill="none" xmlns="http://www.w3.org/2000/svg">
<path d="M459.5 257.346C459.5 384.095 356.749 486.846 230 486.846C103.251 486.846 0.5 384.095 0.5 257.346C0.5 130.596 103.251 27.8455 230 27.8455C356.749 27.8455 459.5 130.596 459.5 257.346Z" fill="url(#paint0_radial_1_599)" fill-opacity="0.1"/>
<circle cx="274" cy="269" r="199.5" stroke="#646464" stroke-opacity="0.4"/>
<circle cx="274" cy="269" r="268.5" stroke="#646464" stroke-opacity="0.4"/>
<path d="M328.5 90C334.299 90 339 85.299 339 79.5C339 73.701 334.299 69 328.5 69C322.701 69 318 73.701 318 79.5C318 85.299 322.701 90 328.5 90Z" fill="url(#paint1_linear_1_599)"/>
<path d="M267.5 552C273.299 552 278 547.299 278 541.5C278 535.701 273.299 531 267.5 531C261.701 531 257 535.701 257 541.5C257 547.299 261.701 552 267.5 552Z" fill="url(#paint2_linear_1_599)"/>
<defs>
<radialGradient id="paint0_radial_1_599" cx="0" cy="0" r="1" gradientUnits="userSpaceOnUse" gradientTransform="translate(221.5 257.5) rotate(90) scale(229.5)">
<stop stop-color="white"/>
<stop offset="1" stop-color="white" stop-opacity="0"/>
</radialGradient>
<linearGradient id="paint1_linear_1_599" x1="317.997" y1="79.4989" x2="338.996" y2="79.4989" gradientUnits="userSpaceOnUse">
<stop stop-color="#5A9FE5"/>
<stop offset="0.5542" stop-color="#9C63F7"/>
<stop offset="1" stop-color="#9668F6"/>
</linearGradient>
<linearGradient id="paint2_linear_1_599" x1="256.997" y1="541.499" x2="277.996" y2="541.499" gradientUnits="userSpaceOnUse">
<stop stop-color="#5A9FE5"/>
<stop offset="0.5542" stop-color="#9C63F7"/>
<stop offset="1" stop-color="#9668F6"/>
</linearGradient>
</defs>
</svg>
