<svg width="20" height="20" viewBox="0 0 20 20" fill="none" xmlns="http://www.w3.org/2000/svg">
<path d="M19.5565 0.458161C19.4161 0.317531 19.2494 0.20596 19.0659 0.129836C18.8824 0.0537112 18.6857 0.0145271 18.487 0.0145271C18.2883 0.0145271 18.0916 0.0537112 17.9081 0.129836C17.7246 0.20596 17.5579 0.317531 17.4175 0.458161L9.99945 7.86105L2.58139 0.442991C2.44095 0.302545 2.27421 0.191138 2.09071 0.115129C1.90721 0.0391207 1.71054 1.47983e-09 1.51192 0C1.3133 -1.47983e-09 1.11662 0.0391207 0.933121 0.115129C0.74962 0.191138 0.582887 0.302545 0.442441 0.442991C0.301996 0.583436 0.190588 0.750169 0.11458 0.93367C0.0385714 1.11717 -0.000549318 1.31385 -0.000549316 1.51247C-0.000549315 1.71109 0.0385714 1.90776 0.11458 2.09126C0.190588 2.27476 0.301996 2.4415 0.442441 2.58194L7.8605 10L0.442441 17.4181C0.301996 17.5585 0.190588 17.7252 0.11458 17.9087C0.0385714 18.0922 -0.000549316 18.2889 -0.000549316 18.4875C-0.000549316 18.6862 0.0385714 18.8828 0.11458 19.0663C0.190588 19.2498 0.301996 19.4166 0.442441 19.557C0.582887 19.6975 0.74962 19.8089 0.933121 19.8849C1.11662 19.9609 1.3133 20 1.51192 20C1.71054 20 1.90721 19.9609 2.09071 19.8849C2.27421 19.8089 2.44095 19.6975 2.58139 19.557L9.99945 12.1389L17.4175 19.557C17.558 19.6975 17.7247 19.8089 17.9082 19.8849C18.0917 19.9609 18.2884 20 18.487 20C18.6856 20 18.8823 19.9609 19.0658 19.8849C19.2493 19.8089 19.416 19.6975 19.5565 19.557C19.6969 19.4166 19.8083 19.2498 19.8843 19.0663C19.9603 18.8828 19.9995 18.6862 19.9995 18.4875C19.9995 18.2889 19.9603 18.0922 19.8843 17.9087C19.8083 17.7252 19.6969 17.5585 19.5565 17.4181L12.1384 10L19.5565 2.58194C20.1329 2.00549 20.1329 1.03462 19.5565 0.458161Z" fill="white"/>
</svg>
