<svg width="26" height="26" viewBox="0 0 26 26" fill="none" xmlns="http://www.w3.org/2000/svg">
<path d="M13 0.9375C6.1 0.9375 0.5 6.5375 0.5 13.4375C0.5 20.3375 6.1 25.9375 13 25.9375H19.25V23.4375H13C7.575 23.4375 3 18.8625 3 13.4375C3 8.0125 7.575 3.4375 13 3.4375C18.425 3.4375 23 8.0125 23 13.4375V15.225C23 16.2125 22.1125 17.1875 21.125 17.1875C20.1375 17.1875 19.25 16.2125 19.25 15.225V13.4375C19.25 9.9875 16.45 7.1875 13 7.1875C9.55 7.1875 6.75 9.9875 6.75 13.4375C6.75 16.8875 9.55 19.6875 13 19.6875C14.725 19.6875 16.3 18.9875 17.425 17.85C18.2375 18.9625 19.6375 19.6875 21.125 19.6875C23.5875 19.6875 25.5 17.6875 25.5 15.225V13.4375C25.5 6.5375 19.9 0.9375 13 0.9375ZM13 17.1875C10.925 17.1875 9.25 15.5125 9.25 13.4375C9.25 11.3625 10.925 9.6875 13 9.6875C15.075 9.6875 16.75 11.3625 16.75 13.4375C16.75 15.5125 15.075 17.1875 13 17.1875Z" fill="#9C63F7"/>
</svg>
