<svg width="30" height="26" viewBox="0 0 30 26" fill="none" xmlns="http://www.w3.org/2000/svg">
<path d="M8.9375 22.7484C8.625 22.4789 8.46875 22.1598 8.46875 21.7911C8.46875 21.4223 8.625 21.1036 8.9375 20.8348L18.0938 12.9375L8.90625 5.01328C8.61458 4.76172 8.46875 4.44727 8.46875 4.06992C8.46875 3.69258 8.625 3.36914 8.9375 3.09961C9.25 2.83008 9.62 2.69531 10.0475 2.69531C10.475 2.69531 10.8446 2.83008 11.1562 3.09961L21.6563 12.1828C21.7813 12.2906 21.87 12.4074 21.9225 12.5332C21.975 12.659 22.0008 12.7938 22 12.9375C22 13.0813 21.9738 13.216 21.9213 13.3418C21.8688 13.4676 21.7804 13.5844 21.6563 13.6922L11.125 22.7754C10.8333 23.027 10.4737 23.1527 10.0462 23.1527C9.61875 23.1527 9.24917 23.018 8.9375 22.7484Z" fill="url(#paint0_linear_1_1891)"/>
<defs>
<linearGradient id="paint0_linear_1_1891" x1="7.19997" y1="22.7699" x2="18.2551" y2="8.20449" gradientUnits="userSpaceOnUse">
<stop stop-color="#45B3E0"/>
<stop offset="1" stop-color="#8F6EF4"/>
</linearGradient>
</defs>
</svg>
