<svg width="25" height="26" viewBox="0 0 25 26" fill="none" xmlns="http://www.w3.org/2000/svg">
<g clip-path="url(#clip0_1_1832)">
<path d="M12.4998 24.4583C18.828 24.4583 23.9582 19.3281 23.9582 13C23.9582 6.67183 18.828 1.54163 12.4998 1.54163M12.4998 24.4583C6.17171 24.4583 1.0415 19.3281 1.0415 13C1.0415 6.67183 6.17171 1.54163 12.4998 1.54163M12.4998 24.4583C15.6248 24.4583 16.6665 19.25 16.6665 13C16.6665 6.74996 15.6248 1.54163 12.4998 1.54163M12.4998 24.4583C9.37484 24.4583 8.33317 19.25 8.33317 13C8.33317 6.74996 9.37484 1.54163 12.4998 1.54163M2.08317 17.1666H22.9165M2.08317 8.83329H22.9165" stroke="white" stroke-width="2.08333"/>
</g>
<defs>
<clipPath id="clip0_1_1832">
<rect width="25" height="25" fill="white" transform="translate(0 0.5)"/>
</clipPath>
</defs>
</svg>
